<svg xmlns="http://www.w3.org/2000/svg" width="66" height="66" viewBox="0 0 66 66">
  <g id="info" transform="translate(0)">
    <circle id="Ellipse_81" data-name="Ellipse 81" cx="33" cy="33" r="33" transform="translate(0)" fill="#16a0b7"/>
    <g id="XMLID_1_" transform="translate(15.607 13.528)">
      <g id="XMLID_2_" transform="translate(5.343 5.343)">
        <path id="XMLID_1681_" d="M124.043,82.083a11.838,11.838,0,1,0-19.49,9.032,7.678,7.678,0,0,1,2.688,5.861h9.929a7.762,7.762,0,0,1,2.727-5.9A11.81,11.81,0,0,0,124.043,82.083Z" transform="translate(-100.367 -70.245)" fill="#63dbfc"/>
      </g>
      <g id="XMLID_1705_">
        <path id="XMLID_1728_" d="M174.4,226.132h-4.2v-6.739l1.1-2.926a.76.76,0,0,0,.048-.267v-2.294h.767a.761.761,0,1,0,0-1.521h-.767v-.767a.761.761,0,0,0-1.521,0v.767h-3.825v-.767a.761.761,0,0,0-1.521,0v.767h-.767a.761.761,0,0,0,0,1.521h.767V216.2a.76.76,0,0,0,.048.267l1.1,2.926v6.739h-4.2a.761.761,0,0,0-.761.761v3.055a.761.761,0,0,0,.761.761h3.078a3.427,3.427,0,0,0,3.4,3.055h.022a3.427,3.427,0,0,0,3.4-3.055H174.4a.761.761,0,0,0,.761-.761v-3.055A.761.761,0,0,0,174.4,226.132Zm-7.307-7.144-1.1-2.926v-2.156h3.825v2.156l-1.1,2.926a.76.76,0,0,0-.048.267v6.877h-1.534v-6.877A.758.758,0,0,0,167.091,218.988Zm.826,13.254H167.9a1.9,1.9,0,0,1-1.866-1.534h3.753A1.905,1.905,0,0,1,167.917,232.242Zm5.72-3.055H162.175v-1.534h11.462Z" transform="translate(-150.725 -194.818)" fill="#fff"/>
        <path id="XMLID_1731_" d="M246.761,3.049a.761.761,0,0,0,.761-.761V.761a.761.761,0,1,0-1.521,0V2.288A.761.761,0,0,0,246.761,3.049Z" transform="translate(-229.579)" fill="#fff"/>
        <path id="XMLID_1732_" d="M385.751,63.453l-1.08,1.08a.761.761,0,0,0,1.076,1.076l1.08-1.08a.761.761,0,0,0-1.076-1.076Z" transform="translate(-357.497 -58.421)" fill="#fff"/>
        <path id="XMLID_1733_" d="M444.084,215.878h-1.528a.761.761,0,1,0,0,1.521h1.528a.761.761,0,0,0,0-1.521Z" transform="translate(-410.482 -199.457)" fill="#fff"/>
        <path id="XMLID_1734_" d="M32.41,215.878H30.883a.761.761,0,1,0,0,1.521H32.41a.761.761,0,1,0,0-1.521Z" transform="translate(-30.122 -199.457)" fill="#fff"/>
        <path id="XMLID_1735_" d="M94.65,63.453a.761.761,0,0,0-1.076,1.076l1.08,1.08a.761.761,0,0,0,1.076-1.076Z" transform="translate(-88.542 -58.42)" fill="#fff"/>
      </g>
    </g>
  </g>
</svg>
