<svg id="calenadar" xmlns="http://www.w3.org/2000/svg" width="14" height="14" viewBox="0 0 14 14">
  <rect id="_14x14" data-name="14x14" width="14" height="14" fill="none"/>
  <g id="calendar" transform="translate(0.807 0.807)">
    <path id="Path_888" data-name="Path 888" d="M11.87,171.52H.516a.516.516,0,0,0-.516.516v6.173a1.55,1.55,0,0,0,1.548,1.548h9.29a1.55,1.55,0,0,0,1.548-1.548v-6.173A.516.516,0,0,0,11.87,171.52Zm0,0" transform="translate(0 -167.371)" fill="none"/>
    <path id="Path_889" data-name="Path 889" d="M10.838,64H1.548A1.548,1.548,0,0,0,0,65.548v1.569H12.386V65.548A1.548,1.548,0,0,0,10.838,64Zm0,0" transform="translate(0 -62.452)" fill="#def6fc"/>
    <path id="Path_890" data-name="Path 890" d="M10.967,54.022H1.419A1.42,1.42,0,0,1,0,52.6V44.087a1.42,1.42,0,0,1,1.419-1.419h9.548a1.42,1.42,0,0,1,1.419,1.419V52.6A1.42,1.42,0,0,1,10.967,54.022ZM1.419,43.442a.646.646,0,0,0-.645.645V52.6a.646.646,0,0,0,.645.645h9.548a.646.646,0,0,0,.645-.645V44.087a.646.646,0,0,0-.645-.645Zm0,0" transform="translate(0 -41.636)" fill="#2c2d30"/>
    <path id="Path_891" data-name="Path 891" d="M12,171.442H.387a.387.387,0,1,1,0-.774H12a.387.387,0,1,1,0,.774Zm0,0" transform="translate(0 -166.539)" fill="#2c2d30"/>
    <path id="Path_892" data-name="Path 892" d="M107.055,3.1a.387.387,0,0,1-.387-.387V.387a.387.387,0,0,1,.774,0V2.709A.387.387,0,0,1,107.055,3.1Zm0,0" transform="translate(-104.088)" fill="#2c2d30"/>
    <path id="Path_893" data-name="Path 893" d="M373.719,3.1a.387.387,0,0,1-.387-.387V.387a.387.387,0,1,1,.774,0V2.709A.387.387,0,0,1,373.719,3.1Zm0,0" transform="translate(-364.3)" fill="#2c2d30"/>
  </g>
</svg>
