<svg id="Component_282_1" data-name="Component 282 – 1" xmlns="http://www.w3.org/2000/svg" xmlns:xlink="http://www.w3.org/1999/xlink" width="47.919" height="47.971" viewBox="0 0 47.919 47.971" >
  <defs>
    <clipPath id="clip-path">
      <rect id="Rectangle_213" data-name="Rectangle 213" width="47.919" height="47.971" transform="translate(0 0)" fill="none"/>
    </clipPath>
  </defs>
  <g id="Group_546" data-name="Group 546" transform="translate(0 0)">
    <g id="Group_545" data-name="Group 545" clip-path="url(#clip-path)">
      <path id="Path_838" data-name="Path 838" d="M23.957,13.944A10.063,10.063,0,1,1,13.894,24.007,10.063,10.063,0,0,1,23.957,13.944" fill="#d0f4fa"/>
      <path id="Path_839" data-name="Path 839" d="M18.026,28.673a.953.953,0,0,1,0-1.878H29.192a.953.953,0,0,1,0,1.878Zm0-3.756a.952.952,0,0,1,0-1.877H29.888a.952.952,0,0,1,0,1.877Zm0-3.754a.953.953,0,0,1,0-1.878H29.192a.953.953,0,0,1,0,1.878Z" fill="#16a0b7"/>
      <path id="Path_840" data-name="Path 840" d="M41.644,6.512h-1.4v-1.4a.559.559,0,0,0-.559-.559H37.452a.559.559,0,0,0-.559.559v1.4h-1.4a.559.559,0,0,0-.559.559V9.307a.559.559,0,0,0,.559.559h1.4v1.4a.559.559,0,0,0,.559.559h2.236a.559.559,0,0,0,.559-.559v-1.4h1.4a.56.56,0,0,0,.559-.559V7.07a.56.56,0,0,0-.56-.558Zm-.559,2.236h-1.4a.559.559,0,0,0-.559.559v1.4H38.011v-1.4a.559.559,0,0,0-.559-.559h-1.4V7.63h1.4a.559.559,0,0,0,.559-.559v-1.4h1.118v1.4a.559.559,0,0,0,.559.559h1.4Z" fill="#e54253"/>
      <path id="Path_841" data-name="Path 841" d="M46.974,0H14.545A.947.947,0,0,0,13.6.946V15.367a13.352,13.352,0,0,0-1.082,15.746L.832,42.8a3.032,3.032,0,0,0,4.29,4.282L13.6,38.6v8.42a.946.946,0,0,0,.946.945l24.072-.008a.846.846,0,0,0,.132-.01l.063-.005.045-.01.042-.01.037-.011.047-.017a.7.7,0,0,0,.079-.035l.173-.115-.166-.187.228.131,8.335-8.33.182-.22v-.021a.807.807,0,0,0,.038-.078l.019-.057c0-.012.008-.023.011-.035l.028-.159a.6.6,0,0,0,.008-.113V.946A.946.946,0,0,0,46.974,0M44.691,39.626l-5.116,5.117V39.626ZM11.535,38,3.787,45.746a1.142,1.142,0,0,1-1.614-1.615L9.92,36.384Zm-.28-2.951,2.39-2.389a13.736,13.736,0,0,0,1.613,1.614l-2.39,2.389ZM23.934,12.414A11.571,11.571,0,1,1,12.362,23.985,11.584,11.584,0,0,1,23.934,12.414m9.733,20.859H41.41a.945.945,0,0,0,0-1.891H35.172c.191-.289.371-.587.54-.89h5.7a.946.946,0,0,0,0-1.891H36.579c.108-.293.205-.591.291-.889h4.54a.945.945,0,0,0,0-1.89H37.271c.04-.3.071-.593.092-.891H41.41a.945.945,0,0,0,0-1.89H37.363c-.021-.3-.052-.6-.092-.892H41.41a.946.946,0,0,0,0-1.891H36.87c-.086-.3-.184-.6-.291-.89h4.829a.946.946,0,0,0,0-1.891h-5.7q-.251-.454-.539-.892H41.41a.945.945,0,0,0,0-1.891H33.667a13.38,13.38,0,0,0-18.176-1.189V1.891H46.028V37.735h-7.4a.946.946,0,0,0-.943.945v7.4H15.491V36.714L16.806,35.4a13.424,13.424,0,0,0,16.861-2.127" fill="#404145"/>
    </g>
  </g>
</svg>
