<svg id="eye" xmlns="http://www.w3.org/2000/svg" xmlns:xlink="http://www.w3.org/1999/xlink" width="50" height="50.604" viewBox="0 0 50 50.604">
  <defs>
    <clipPath id="clip-path">
      <rect id="Rectangle_3271" data-name="Rectangle 3271" width="48" height="32.035" fill="none"/>
    </clipPath>
  </defs>
  <rect id="Placeholder" width="48" height="50" transform="translate(2)" fill="none"/>
  <g id="Group_9245" data-name="Group 9245" transform="translate(10.72 8.85)">
    <path id="Path_3944" data-name="Path 3944" d="M120.422,163.146a12.472,12.472,0,1,1-24.276-4.025c.674-.492,1.381-.967,2.115-1.414a19.384,19.384,0,0,1,9.972-3.113,18.807,18.807,0,0,1,9.1,2.6c.769.429,1.512.895,2.222,1.382A12.434,12.434,0,0,1,120.422,163.146Z" transform="translate(-95.477 -154.595)" fill="#d0f4fa"/>
  </g>
  <g id="Group_9246" data-name="Group 9246" transform="translate(0 1.775)">
    <text id="E" transform="translate(0 26.829)" fill="#404145" font-size="12" font-family="Rubik-Medium, Rubik" font-weight="500"><tspan x="3" y="11">E</tspan></text>
    <g id="Group_9328" data-name="Group 9328" transform="translate(2)" clip-path="url(#clip-path)">
      <path id="Path_4097" data-name="Path 4097" d="M47.836,13.492h0a1,1,0,0,0-.243-1.358.914.914,0,0,0-1.3.253,8.32,8.32,0,0,1-2.138,2.225,9.25,9.25,0,0,1-1.7.915,7.923,7.923,0,0,1-2.521.527c-.51-.606-1.114-1.29-1.8-2.014a9.84,9.84,0,0,0,2.143-1.063,9.929,9.929,0,0,0,1.486-1.2,10.427,10.427,0,0,0,2.376-3.6A.991.991,0,0,0,43.625,6.9a.925.925,0,0,0-1.225.528,8.46,8.46,0,0,1-1.965,2.959A3.26,3.26,0,0,1,38.9,11.552a8.056,8.056,0,0,1-2.025.838l-.32.086c-.544-.515-1.124-1.035-1.737-1.549A9.689,9.689,0,0,0,36.8,9.593,6.59,6.59,0,0,0,38.121,8.2a10.307,10.307,0,0,0,1.637-3.079.987.987,0,0,0-.579-1.242.928.928,0,0,0-1.193.6A8.315,8.315,0,0,1,36.66,6.974,5.275,5.275,0,0,1,35.3,8.344a7.844,7.844,0,0,1-2.19,1.211l-.023.008q-.167-.123-.337-.244c-.739-.528-1.486-1.012-2.221-1.438l-.227-.13A8.87,8.87,0,0,0,32.231,6.2,8.521,8.521,0,0,0,33.4,4.653a9.52,9.52,0,0,0,.876-1.908A.987.987,0,0,0,33.7,1.5a.929.929,0,0,0-1.193.6A7.494,7.494,0,0,1,31.763,3.7,6.6,6.6,0,0,1,30.5,5.217a6.991,6.991,0,0,1-2.342,1.408l-.061.022a18.987,18.987,0,0,0-3.351-1.111,8.6,8.6,0,0,0,1.84-1.929,10.518,10.518,0,0,0,.943-1.744q.113-.279.209-.568A.987.987,0,0,0,27.158.053a.929.929,0,0,0-1.193.6,7.18,7.18,0,0,1-.272.7,9.019,9.019,0,0,1-1.138,1.753,6.618,6.618,0,0,1-2.7,1.824l-.563.206h-.013a15.051,15.051,0,0,0-1.606.087A9.275,9.275,0,0,0,20.929,2.8a.9.9,0,0,0-.319-.933s-.168-.014-.716,0S18.82,2.969,18.82,2.969A6.666,6.666,0,0,1,15.7,6.12l-.646.274q-.042.018-.081.039-.569.23-1.141.5a9.038,9.038,0,0,0,.509-2.193,1.033,1.033,0,0,0,.005-.134l-.012-.428c-.01-.349-.331-.755-1.151-.548S12.4,5.041,12.4,5.041A6.888,6.888,0,0,1,9.694,9.4q-.326.235-.649.48a41.43,41.43,0,0,0-6.432,6.192c-.577.686-1.379,1.643-2.047,2.441a2.437,2.437,0,0,0-.512,2.078,2.363,2.363,0,0,0,1.308,1.676,11.923,11.923,0,0,1,3.173,1.95,28.157,28.157,0,0,0,7.154,5.346,20.783,20.783,0,0,0,9.586,2.472c4.685,0,9.726-2.146,14.581-6.207a39.723,39.723,0,0,0,5.952-6.157,1.009,1.009,0,0,0,.021-1.162c-.029-.043-.19-.276-.472-.654a9.65,9.65,0,0,0,2.291-.724l.013.019a10,10,0,0,0,1.631-.981,10.258,10.258,0,0,0,2.542-2.675M21.276,30.081c-5.253,0-11.018-2.711-15.421-7.252a13.176,13.176,0,0,0-3.723-2.343.447.447,0,0,1-.153-.69c.666-.8,1.467-1.752,2.043-2.436a39.5,39.5,0,0,1,6.127-5.9c.185-.14,1.524-1.09,1.978-1.377A17.2,17.2,0,0,1,21.276,7.09a16.669,16.669,0,0,1,8.337,2.5c.684.4,1.382.849,2.074,1.343a39.957,39.957,0,0,1,8.186,8.119c-1.9,2.337-9.594,11.031-18.6,11.031" transform="translate(0 0.001)" fill="#404145"/>
    </g>
    <text id="F_P" data-name="F  P" transform="translate(0 39.829)" fill="#e54253" font-size="8" font-family="Rubik-Bold, Rubik" font-weight="700"><tspan x="0" y="7" xml:space="preserve">F  P</tspan></text>
  </g>
  <circle id="Ellipse_323" data-name="Ellipse 323" cx="3.5" cy="3.5" r="3.5" transform="translate(20.067 15)" fill="#404145"/>
</svg>
