<svg width="179" height="38" viewBox="0 0 179 38" fill="none" xmlns="http://www.w3.org/2000/svg">
<g clip-path="url(#clip0_8_31)">
<path d="M18.8 38H13.4V16H13.3C12.2 19.1 11 22.2 9.80002 25.4H8.80002C7.60002 22.3 6.50002 19.2 5.30002 15.9V38.1H-0.0999756C2.44305e-05 25.3 2.44305e-05 12.7 2.44305e-05 0.100024H4.40002C6.10002 4.50002 7.70002 8.80002 9.40002 13.2C11.1 8.80002 12.8 4.40002 14.4 0.100024H18.8V38ZM42.9 16.6V2.44305e-05H48V37.9H43.9C43.8 37.7 43.6 37.4 43.6 37.1C43.6 36.6 43.3 36.1 43.3 35.6C43.2 35.1 43.1 34.6 42.9 34.1C42.7 33.6 42.8 33.1 42.5 32.7C42.5 32 42.1 31.4 42 30.7C41.9 30 41.7 29.3 41.5 28.7C41.2 27.6 41.1 26.5 40.6 25.4C40.5 24.4 40.2 23.4 39.9 22.5C39.6 21.4 39.5 20.3 39 19.2C38.8 18.8 38.8 18.4 38.8 18H38.7V37.8H33.5V-0.0999756H38.4C38.5 0.100024 38.7 0.400024 38.7 0.600024C38.8 1.30002 39 2.10002 39.2 2.80002C39.4 3.50002 39.5 4.20002 39.8 4.90002C40 5.50002 40.1 6.00002 40.3 6.60002C40.4 7.20002 40.5 7.70002 40.7 8.30002C41.1 9.30002 41.2 10.4 41.6 11.4C41.8 11.9 41.9 12.4 42 12.8C42.1 13.5 42.4 14.2 42.6 15C42.6 15.2 42.7 15.3 42.7 15.5C42.7 15.6 42.9 15.8 42.8 15.9C42.5 16.3 42.8 16.4 42.9 16.6ZM139.9 17.9V38H134.9V0.100024H139.8C141.3 5.60002 142.7 11.1 144.2 16.6H144.3V0.100024H149.5V38H145.3C143.6 31.3 141.9 24.6 140.1 17.8C140 17.8 139.9 17.8 139.9 17.9ZM130.4 20.7C131.6 26.5 132.8 32.2 134 37.9H128.5C127.4 32.3 126.2 26.8 125.1 21.1H124.5V37.9H119.1V2.44305e-05H129.1C129.7 2.44305e-05 130.4 0.100024 131 0.300024C132.2 0.700024 132.8 1.50002 133.1 2.70002C133.2 3.00002 133.3 3.30002 133.3 3.60002C133.3 3.90002 133.4 4.20002 133.4 4.60002V15.8C133.4 16.7 133.2 17.6 133.1 18.4C133 18.7 132.9 19 132.7 19.3C132.2 19.9 131.7 20.5 130.8 20.6C130.7 20.5 130.5 20.6 130.4 20.7ZM124.5 4.90002V16.2H127.3L127.9 15.3V6.70002C127.9 6.20002 127.9 5.70002 127.6 5.10002C127.4 5.00002 127.2 4.90002 126.9 4.90002H124.5ZM101.9 18.9V33.6C101.9 35 101.4 36.3 100.2 37.2C99.8 37.5 99.3 37.7 98.8 37.8C98.5 37.9 98.3 37.9 98 38H92C91.3 38 90.7 37.8 90.1 37.5C89 37.1 88.2 35.9 88 34.8C87.9 34.4 87.9 34.1 87.9 33.8C87.6 32 87.8 30.1 87.8 28.3V22.7V17.1V11.5V5.90002C87.8 5.00002 87.8 4.10002 88 3.30002C88.1 2.70002 88.3 2.10002 88.6 1.70002C88.9 1.30002 89.2 0.900024 89.5 0.700024C89.8 0.400024 90.3 0.300024 90.7 0.100024C91 0.100024 91.5 2.44305e-05 91.9 2.44305e-05H97.8C98.3 2.44305e-05 98.8 0.200024 99.3 0.300024C100.5 0.600024 101.2 1.40002 101.6 2.50002C101.8 3.10002 102 3.80002 101.9 4.50002V18.9ZM96.4 32.8C96.4 32.5 96.5 32.2 96.5 31.9V5.50002L95.9 4.90002H94.3C93.9 4.90002 93.6 4.90002 93.3 5.10002C93.3 5.60002 93 6.00002 93 6.50002V26.1C93 28.3 92.8 30.5 93.2 32.6C93.3 32.8 93.5 32.9 93.6 33H95.9C96.1 33 96.2 32.9 96.4 32.8ZM103.5 2.44305e-05H108.9V32.6L109.3 33H111.7L112.3 32.4V2.44305e-05L112.4 -0.0999756H117.8V33.4C117.8 34.3 117.5 35.3 117 36.2C116.6 36.8 116 37.2 115.4 37.5C114.8 37.7 114.1 37.8 113.5 37.8H107.9C107.4 37.8 106.9 37.6 106.4 37.5C105.2 37.2 104.2 36 103.9 34.7C103.8 34.2 103.8 33.7 103.8 33.3C103.5 22.3 103.5 11.2 103.5 2.44305e-05ZM154.6 2.44305e-05H161.2C161.4 2.44305e-05 161.6 2.44379e-05 161.8 0.300024V1.30002C161.8 1.60002 161.9 1.90002 161.9 2.30002C161.9 2.60002 161.8 3.00002 162.1 3.30002V3.40002C162.2 4.20002 162.2 4.90002 162.3 5.70002C162.3 6.10002 162.4 6.40002 162.5 6.70002C162.5 7.00002 162.4 7.40002 162.7 7.70002V7.90002C162.8 8.60002 162.8 9.40003 162.9 10.1C162.9 10.4 163 10.7 163.1 11.1C163.1 11.4 163 11.8 163.3 12.1V12.2C163.2 12.9 163.5 13.6 163.5 14.4C163.5 14.8 163.6 15.1 163.6 15.5C163.6 15.8 163.5 16.2 163.8 16.5V16.7C163.9 17.4 163.9 18.2 164 18.9C164 19.2 164.1 19.5 164.2 19.9C164.2 20.2 164.1 20.6 164.4 20.9V21C164.3 21.7 164.6 22.4 164.6 23.2C164.6 23.5 164.7 23.9 164.7 24.2C164.7 24.5 164.6 24.9 164.9 25.2V25.3C165 26 165 26.8 165.1 27.5C165.1 27.9 165.2 28.2 165.3 28.5C165.4 28.8 165.1 29.2 165.5 29.6V29.8C165.6 30.5 165.6 31.3 165.7 32C165.7 32.3 165.8 32.6 165.9 33C165.9 33.3 165.8 33.7 166.1 34V34.2C166.2 34.9 166.1 35.7 166.3 36.4C166.4 37 166.4 37.7 166.4 38.3H161.3C161.4 37.4 161.1 36.5 161.1 35.6C161.1 35.3 161 34.9 161 34.6C161 34.3 161.1 33.9 161 33.6C160.8 32.9 160.9 32.2 160.8 31.4H156.4C156.2 32 156.2 32.7 156.2 33.4C156.2 33.7 156 34.1 156 34.4C156 34.8 156.1 35.1 155.9 35.4V35.5C155.8 36.4 155.8 37.3 155.7 38.2H150.7C150.7 37.9 150.6 37.7 150.8 37.4V37.3C150.9 36.6 150.9 36 151 35.3C151 34.9 151.1 34.6 151.2 34.3C151.3 34 151 33.6 151.4 33.3V33.2C151.5 32.5 151.5 31.9 151.6 31.2C151.6 30.9 151.7 30.6 151.8 30.2C151.9 29.9 151.7 29.6 151.9 29.3C152 29.2 151.9 29.1 151.9 29C152 28.3 151.9 27.6 152.1 26.9C152.3 26.3 152.1 25.6 152.4 25C152.6 24.4 152.5 23.7 152.6 23C152.6 22.6 152.7 22.3 152.8 22C152.8 21.6 152.7 21.3 153 21V20.9C153.1 20.2 153.1 19.6 153.2 18.9C153.2 18.6 153.3 18.3 153.4 17.9C153.5 17.6 153.3 17.3 153.6 17V16.8C153.7 16.1 153.7 15.4 153.8 14.7C153.8 14.4 153.9 14.1 154 13.7C154 13.4 153.9 13 154.2 12.7V12.6C154.3 11.9 154.3 11.3 154.4 10.6C154.4 10.2 154.5 9.90003 154.6 9.60003C154.7 9.30003 154.5 8.90003 154.8 8.60003V8.50002C154.9 7.80002 154.9 7.20002 155 6.50002C155 6.20002 155.1 5.90002 155.2 5.50002C155.3 5.20002 155.1 4.90002 155.3 4.60002V4.50002C155.2 3.80002 155.5 3.20002 155.5 2.50002C155.5 2.20002 155.6 1.90002 155.6 1.60002V0.700024C154.4 0.500024 154.5 0.300024 154.6 2.44305e-05ZM159.7 26C159.6 25.5 159.5 25.1 159.5 24.7C159.4 24.2 159.6 23.7 159.4 23.3C159.3 23 159.4 22.6 159.4 22.2C159.4 21.8 159.3 21.5 159.3 21.1C159.3 20.6 159.3 20.1 159.2 19.7C159.1 19.4 159.2 19 159.2 18.7C159.2 18.4 159.1 18.1 159.1 17.7C159.1 17.2 159.1 16.7 159 16.2C158.9 15.9 159 15.5 159 15.1C159 14.7 158.9 14.4 158.8 14C158.8 13.5 158.8 13.1 158.7 12.6C158.6 12.2 158.7 11.8 158.7 11.4C158.7 11 158.5 10.6 158.5 10.2C158.5 9.50002 158.4 8.80002 158.3 8.20002C158.1 8.80002 157.9 9.30002 158 9.90002C158 10.1 158.1 10.3 158 10.4C157.7 10.8 157.9 11.2 157.9 11.5C157.8 11.9 157.8 12.3 157.7 12.7C157.6 13.1 157.7 13.6 157.6 14C157.5 14.3 157.6 14.8 157.6 15.2C157.6 15.6 157.4 15.9 157.4 16.3C157.5 17.2 157.1 18 157.3 18.8V18.9C157 19.2 157.1 19.7 157.2 20C157.2 20.4 157 20.8 157 21.2C157 21.7 157 22.2 156.9 22.7C156.7 23.6 156.8 24.4 156.7 25.3C156.7 25.5 156.6 25.7 156.6 25.9C157.3 26 158.4 26 159.7 26ZM51.9 27.3H57.3V31.9C57.3 32.2 57.4 32.5 57.4 32.7C57.8 33 58.1 33 58.5 33H60.3C60.4 32.9 60.5 32.7 60.7 32.5V32.3V26.5C60.7 25.9 60.4 25.3 60.1 24.8C59.8 24.4 59.6 24.1 59.3 23.8C58.8 23.2 58.2 22.6 57.7 22C56.9 21.1 56.1 20.2 55.4 19.3C54.7 18.6 54.1 17.8 53.4 17C52.8 16.4 52.4 15.6 52.1 14.8C52.1 14.7 52 14.5 52 14.3C52 10.8 51.9 7.30002 52 3.80002C52 2.10002 52.9 0.800024 54.7 0.100024C55.3 0.100024 55.9 2.44305e-05 56.6 2.44305e-05H61.9C62.6 2.44305e-05 63.3 0.200024 63.9 0.500024C65 1.00002 65.6 1.90002 65.9 3.00002C66 3.60002 66 4.10002 66 4.70002V10.8H60.6V5.50002L60 4.90002H57.7L57.2 5.40002V12.3C57.4 12.7 57.7 13.2 58 13.7C58 13.8 58.1 13.8 58.1 13.9C58.7 14.5 59.2 15.1 59.8 15.7C60.1 16 60.3 16.3 60.6 16.6C60.9 16.9 61.3 17.1 61.4 17.5L61.5 17.6C62.1 18.2 62.7 18.8 63.2 19.5C63.9 20.4 64.7 21.1 65.3 22C65.7 22.6 65.9 23.2 65.9 23.9V33.8C65.9 34.8 65.5 35.7 64.8 36.5C64.2 37.1 63.5 37.5 62.6 37.7C62.4 37.9 62 38 61.6 38H56.4C55.3 38 54.2 37.7 53.3 37C52.8 36.6 52.5 36 52.3 35.4C52.1 34.8 52 34.1 52 33.5V27.7C51.9 27.6 51.9 27.5 51.9 27.3ZM25.7 33H31.8V37.9H20.2V2.44305e-05H31.7V4.90002H25.5V16.2H30.2V21.1H25.5C25.7 25.1 25.7 29 25.7 33ZM80.8 2.44305e-05H86.2V33.6C86.2 34.4 85.9 35.2 85.6 36C85.2 36.9 84.5 37.4 83.6 37.7C83 37.9 82.4 38 81.7 38H76.1C75.4 38 74.8 37.8 74.2 37.5C73.2 37.1 72.6 36.3 72.2 35.3C72 34.6 71.8 33.9 71.9 33.2V27.8V27.3H77.3V31.7C77.3 32.2 77.5 32.6 77.9 33H80.3C80.8 32.6 80.9 32.1 80.9 31.6V14.9V0.900024C80.8 0.600024 80.8 0.300024 80.8 2.44305e-05ZM172 33H178C178.3 33.2 178.3 33.4 178.3 33.6V37.9H166.7V2.44305e-05H172.1C172 11 172 22 172 33ZM50.2 8.60003H49V0.100024H51.8C51.8 0.400024 51.9 0.700024 51.7 1.10002C51.5 1.50002 51.6 1.90002 51.5 2.40002C51.4 2.80002 51.4 3.20002 51.2 3.60002C51.1 3.90002 51.1 4.30002 51 4.60002C50.9 4.90002 51 5.10002 50.8 5.40002C50.7 5.60002 50.8 5.90002 50.7 6.10002C50.5 6.30002 50.8 6.70002 50.5 6.90002C50.6 7.30002 50.4 7.80002 50.3 8.20002C50.3 8.30002 50.2 8.50003 50.2 8.60003Z" fill="#DB1D28"/>
</g>
<defs>
<clipPath id="clip0_8_31">
<rect width="179" height="38" fill="white"/>
</clipPath>
</defs>
</svg>
