<svg width="412" height="91" viewBox="0 0 412 91" fill="none" xmlns="http://www.w3.org/2000/svg">
<g clip-path="url(#clip0_7_8)">
<path d="M89.4 85.7H88.3V52.5V0H89.4V41.1V85.7Z" fill="#9A2923" stroke="white"/>
<path d="M1.59998 4.70001H72.1V26.4H1.59998V4.70001Z" fill="#9A2923" stroke="white"/>
<path d="M72.1 27.9H1.69998C2.29998 52.7 14.6 74.1 37 88.5C59 74.2 71.5 52.7 72.1 27.9ZM72.1 4.70001H1.59998V26.4H72.1V4.70001ZM22.9 19.7H22.2C22.1 19.7 21.9 20 21.9 20.1C22 20.8 22 21.4 21.9 22.1C21.4 22.4 20.9 22.4 20.3 22.2H15.6C15.2 22.1 14.7 22.2 14.3 22.3C14.3 22.5 14.2 22.6 14 22.6C13.6 22.7 13.1 22.7 12.7 22.6L12.3 22.2H7.29998C6.59998 22.4 5.79998 22.3 5.09998 22V20C5.09998 19.8 4.89998 19.6 4.69998 19.6C3.69998 19.6 3.29998 19.6 3.19998 18.9C2.89998 17.8 3.59998 17.5 4.69998 17.6H4.99998C5.39998 16.7 5.49998 15.6 5.29998 14.6V12.2C4.19998 12.2 2.99998 12.2 3.49998 10.9C3.59998 10.2 3.99998 10.1 4.99998 10.1C5.69998 9.70001 4.79998 8.00001 5.59998 7.70001H7.69998C7.79998 7.60001 7.99998 7.60001 8.09998 7.40001C8.49998 7.40001 8.99998 7.50001 9.39998 7.70001H12.4C12.9 7.90001 13.3 8.10001 13.7 8.40001C13.8 8.30001 14 8.10001 14.1 8.10001C14.6 7.80001 15.2 7.70001 15.8 7.70001H18.2C18.8 7.60001 19.1 7.40001 19.5 7.70001C20.3 7.50001 21.1 7.60001 21.9 7.90001C22 8.40001 22.1 9.00001 22 9.60001V9.70001C22 9.80001 22 9.80001 22.3 9.80001H23C23.6 9.80001 24 10.3 24 10.9V11C23.7 11.7 23.1 11.7 22.2 11.7C22.1 12.1 22.1 12.5 22.2 12.8V16.6C22.3 17.3 22.9 16.9 23.8 17.2C24.7 17.5 24.4 19.8 22.9 19.7ZM44.5 19.7H43.8C43.7 19.7 43.5 20 43.5 20.1C43.6 20.8 43.6 21.4 43.5 22.1C43 22.4 42.5 22.4 41.9 22.2H37.6C37.2 22.1 36.7 22.2 36.3 22.3C36.3 22.5 36.2 22.6 36 22.6C35.6 22.7 35.1 22.7 34.7 22.6L34.3 22.2H29.2C28.4 22.4 27.6 22.3 26.9 22V20C26.9 19.8 26.7 19.6 26.5 19.6C25.5 19.6 25.1 19.6 25 18.9C24.7 17.8 25.4 17.5 26.5 17.6H26.6C27 16.6 27.1 15.6 26.9 14.6V12.2C25.8 12.2 24.6 12.2 25.1 10.9C25.2 10.2 25.8 10 26.8 10C27.5 9.60001 26.7 7.90001 27.4 7.60001H29.5C29.6 7.50001 29.8 7.50001 29.9 7.30001C30.3 7.30001 30.8 7.40001 31.2 7.60001H34.2C34.7 7.80001 35.1 8.00001 35.5 8.30001C35.6 8.10001 35.8 8.00001 36.1 8.00001C36.6 7.70001 37.2 7.60001 37.8 7.60001H39.8C40.4 7.50001 40.8 7.30001 41.1 7.60001C41.9 7.40001 42.7 7.50001 43.5 7.80001C43.7 8.40001 43.7 9.00001 43.6 9.60001V9.70001C43.6 9.80001 43.6 9.80001 43.9 9.80001H44.6C45.2 9.80001 45.6 10.3 45.6 10.9V11C45.3 11.7 44.8 11.7 43.8 11.7C43.7 12.1 43.7 12.5 43.8 12.8V16.6C43.9 17.3 44.5 16.9 45.4 17.2C45.8 18.3 45.9 19.8 44.5 19.7ZM68.7 19.7H68C67.8 19.7 67.7 20 67.7 20.1C67.8 20.8 67.8 21.4 67.7 22.1C67.2 22.4 66.7 22.4 66.1 22.2H59.8C59.4 22.1 58.9 22.2 58.5 22.3C58.5 22.5 58.4 22.6 58.2 22.6C57.8 22.7 57.3 22.7 56.9 22.6L56.5 22.2H50.5C49.7 22.4 48.9 22.3 48.2 22V20C48.2 19.8 48 19.6 47.8 19.6C46.8 19.6 46.4 19.6 46.2 18.9C45.9 17.8 46.6 17.5 47.8 17.6H47.9C48.3 16.6 48.4 15.6 48.2 14.6V12.2C47.1 12.2 45.9 12.2 46.4 10.9C46.5 10.2 47 10 48 10C48.9 9.70001 48 8.00001 48.7 7.70001H50.8C50.9 7.60001 51.1 7.60001 51.2 7.40001C51.6 7.40001 52.1 7.50001 52.5 7.70001C53.8 7.60001 55.2 7.60001 56.5 7.70001C57 7.90001 57.4 8.10001 57.8 8.40001L58.2 8.00001C58.7 7.70001 59.3 7.60001 59.9 7.60001C61.2 7.70001 62.6 7.70001 63.9 7.60001C64.7 7.50001 64.7 7.30001 65.2 7.60001C66 7.40001 66.8 7.50001 67.6 7.70001C67.8 8.30001 67.8 8.90001 67.7 9.50001V9.60001C67.7 9.70001 67.7 9.70001 68 9.70001H68.7C69.3 9.70001 69.7 10.2 69.7 10.8V11C69.4 11.7 68.9 11.7 67.9 11.7C67.8 12.1 67.8 12.5 67.9 12.8V16.6C68.1 17.3 68.6 16.9 69.5 17.2C70.2 18.2 70.3 19.8 68.7 19.7Z" fill="#9A2923" stroke="white"/>
<path d="M0 3.09998V27.6C0.3 53.4 13.3 75.6 36.4 90.3L36.8 90.6L37.2 90.3C60.3 75.6 73.3 53.3 73.6 27.6V3.09998H0ZM36.8 88.5C14.6 74.2 2.1 52.7 1.6 27.9H72C71.5 52.7 59 74.2 36.8 88.5ZM72.2 26.3H1.7V4.69998H72.2V26.3ZM4.8 17.7C3.8 17.6 3.1 17.8 3.3 19C3.4 19.7 3.9 19.9 4.8 19.7C5 19.7 5.2 19.9 5.2 20.1V22.1C5.9 22.5 6.7 22.6 7.5 22.4H12.5L12.9 22.8C13.3 22.9 13.8 22.9 14.2 22.8H14.5C14.9 22.6 15.3 22.6 15.8 22.7H20.3C20.8 22.8 21.4 22.8 21.9 22.6C22 21.9 22 21.3 21.9 20.6C21.9 20.5 21.9 20.2 22.2 20.2H22.9C24.3 20.2 24.2 18.9 23.5 18.3C22.8 17.7 22.1 18.4 21.9 17.7V13.7C21.8 13.3 21.8 12.9 21.9 12.6C22.9 12.6 23.5 12.6 23.7 11.9C23.8 11.3 23.5 10.7 23 10.5H22.3C21.9 10.5 22 10.5 22 10.4V10.3C22.1 9.69998 22 9.09998 21.9 8.49998C21.1 8.19998 20.3 8.19997 19.5 8.39997C19.2 7.99997 18.8 8.29997 18.2 8.39997H15.7C15.1 8.39997 14.5 8.49998 14 8.79998C13.8 8.79998 13.6 8.89998 13.4 9.09998C13 8.79998 12.6 8.49997 12.1 8.39997H9.1C8.8 7.99997 8.3 7.99998 7.9 7.89998C7.8 7.99998 7.6 7.99998 7.5 8.19998H5.4C4.7 8.49998 5.5 10.2 4.8 10.6C3.8 10.6 3.4 10.6 3.3 11.5C3 12.6 4.2 12.6 5.3 12.8V15.2C5.5 16 5.4 16.9 4.8 17.7ZM12.6 20.7H12.5C10.8 20.6 9.5 20.8 7.7 20.7C7.3 20.1 8.1 19.6 8.7 19.6C9.9 19.8 11.1 19.8 12.2 19.7C12.5 19.7 12.8 19.8 13 20C13.2 20.4 12.8 20.4 12.6 20.7ZM20.3 8.69998C20.6 8.29998 21.2 8.19998 21.6 8.59998L21.7 8.69998C22 9.09998 21.4 10.4 22 10.7H23C23.2 10.7 23.3 10.7 23.4 10.8C23.7 10.9 23.7 11.4 23.5 11.7C23.3 12 23.2 12 23.1 12H22.2C21.9 12 21.6 12.9 21.6 13.6C21.5 15 21.5 16.3 21.6 17.7C21.6 18.4 22.5 18 23 18.1C23.1 18.2 23.4 18.4 23.4 18.5C23.7 19.9 21.7 18.8 21.4 19.6C21.1 20.4 21.5 20.9 21.4 21.4C21.3 21.7 21 22 20.7 21.8H15C14.7 21.7 14.7 21.5 14.7 21.2C14.7 21 14.8 20.9 15 20.9H19C19.6 21 20.2 20.9 20.7 20.6V9.49998C20.7 9.19998 20.5 8.79998 20.3 8.69998ZM19.4 9.09998C19.4 8.99998 19.4 8.99998 19.5 8.79998C19.6 8.59998 19.8 8.99998 20 9.09998C20.2 9.19998 20.3 9.49998 20.4 9.69998C20.5 10.6 20.5 11.5 20.4 12.4V13.7C20.5 15.7 20.4 19.6 20.4 20.1C20.4 20.6 20.4 20.4 20.3 20.2C20 19.8 19.8 19.4 19.6 18.9C19.4 14.6 19.5 12.9 19.4 9.09998ZM19.7 20.1C19.8 20.2 20 20.4 20 20.5C20 20.9 19 20.8 18.6 20.8H14.8C14.6 20.6 14.5 20.3 14.7 20.1L14.8 20C15.2 19.4 17.8 20 19.1 19.6C19.3 19.6 19.6 19.8 19.7 20.1ZM13.9 14.5V9.29998C13.9 8.99998 14 8.79998 14.2 8.59998C14.5 8.39998 14.8 8.19998 15.2 7.99998C16.1 7.99998 17.1 7.99998 18 8.09998H18.6C18.9 8.09998 19 8.39998 19.2 8.69998V19.2C18.8 19.4 18.3 19.5 17.8 19.5H15.2C15 19.5 14.8 19.6 14.6 19.8C14.5 19.9 14.3 19.9 14 19.9C13.9 19.4 13.9 18.9 14 18.5C13.9 17 13.9 15.3 13.9 14.5ZM14.4 21.1C14.5 21.2 14.5 21.4 14.5 21.7C14.5 22 14.4 22.2 14.2 22.4C14.1 22.5 13.9 22.7 13.8 22.7H13.2C13.1 22.7 12.9 22.6 12.8 22.4C12.7 22.2 12.5 22.1 12.5 22V21.6C12.5 21.2 12.7 20.9 13.1 20.7C13.4 20.5 13.9 20.5 14.2 20.9L14.3 21C14.4 21 14.4 21.1 14.4 21.1ZM8.2 17.8V8.49998C8.4 8.29998 8.6 8.19998 8.9 8.19998H10.3C10.6 8.19998 10.9 8.29998 11.2 8.29998C11.4 8.29998 11.6 8.29998 11.8 8.19998C12.5 8.19998 13.2 8.49998 13.7 9.09998V16.6C13.8 17.6 13.7 18.7 13.6 19.7C13.2 19.7 12.8 19.6 12.5 19.4C11.5 19.3 10.4 19.5 9.4 19.4C9.1 19.4 8.8 19.3 8.6 19.1C8.2 18.7 8.2 18.3 8.2 17.8ZM7.5 8.79998C7.6 8.79998 7.8 8.79997 7.8 8.89997V16.3C7.9 17.3 7.8 18.4 7.5 19.4C7.4 19.7 7.1 19.9 6.8 20C6.7 17.6 6.8 15.3 6.8 13.6V10.6C6.7 9.89998 7 9.19998 7.5 8.79998ZM5.5 17.6V15C5.6 14 5.5 13 5.4 12C5 11.6 4.1 12.3 3.7 11.6C3.5 11.2 3.7 10.8 4.1 10.6H4.3C4.9 10.5 5.3 10.9 5.4 10.3V8.79998C5.4 8.59998 5.5 8.39997 5.7 8.39997H5.8C6.2 8.29997 6.6 8.39998 6.9 8.69998C6.9 8.79998 6.8 8.99998 6.8 9.09998C6.8 9.19998 6.7 9.29998 6.5 9.29998C6.4 10.1 6.4 10.9 6.5 11.7V18.6C6.5 19.3 6.2 20.9 6.8 21C7.3 21.1 7.8 21.1 8.4 21H11.8C12 21 12.2 21.1 12.4 21.3C12.5 21.6 12.4 21.7 12.3 21.9H6C5.7 21.7 5.6 21.3 5.7 20.9C5.7 20.2 6 19.5 5.4 19.2H4.4C4.1 19.2 3.9 18.9 3.8 18.6C3.8 18.4 3.9 18.2 4.1 18H4.7C5 18 5.6 18.3 5.5 17.6ZM8.8 11.9V11.6H10.9V12H10.8C10.5 12 10.4 12 10.4 12.3V12.7L11.3 15.4L12.2 12.4V12.1C12.2 11.8 12.1 11.8 11.8 11.8V11.5H13.4V12C13.3 12 13 12.1 13 12.3C12.9 12.6 12.9 12.7 12.7 13L11.6 17.3H11.2L9.8 12.9C9.2 12 9.2 12 8.8 11.9ZM52.5 13H52.2V11.3H52.5C52.5 11.4 52.6 11.4 52.8 11.4H55.8C55.9 11.4 55.9 11.4 55.9 11.3H56.2V13C56.1 12 56.1 12 55.6 12H55V15.8C55 16.4 55 16.5 55.4 16.5H55.5V17H53.2V16.7H53.3C53.7 16.7 53.7 16.7 53.7 16V12H53C52.7 12 52.7 12 52.5 13ZM18 17H14.6V16.7H14.9C15.2 16.7 15.3 16.7 15.3 16V12.7C15.3 12 15.3 12 14.9 12V11.6H18.2V12.9H17.9C17.9 12.2 17.8 12.2 17.5 12.2H16.4V14.2H17.3C17.7 14.2 17.7 14.2 17.7 13.6H18V15.4H17.7V15.1C17.7 14.7 17.7 14.5 17.3 14.5H16.4V15.6C16.2 15.8 16.2 16.1 16.4 16.3H17.4C17.8 16.3 18 16.2 18.1 15.4H18.4L18 17ZM63.2 15.9C63.2 15.5 63 15.1 62.6 14.9L62.3 14.6C62 14.4 61.8 14.2 61.7 13.9C61.5 13.6 61.4 13.2 61.4 12.9C61.3 12.2 61.7 11.6 62.4 11.5H62.8C63.1 11.5 63.4 11.6 63.6 11.6H63.7L63.8 13H63.7C63.7 12.4 63.3 12 62.7 11.9C62.4 11.9 62.1 12.2 62.1 12.5C62.1 12.9 62.4 13.2 62.7 13.4H62.8L63.1 13.5L63.5 13.8C63.9 14.2 64.2 14.8 64.2 15.4C64.3 16.2 63.7 17 62.9 17.1C62.7 17.1 62.4 17.1 62.2 17H62H61.7L61.6 15.3H61.9C61.9 15.9 62.3 16.4 62.9 16.6C63.1 16.4 63.2 16.1 63.2 15.9ZM48.2 17.7C47.2 17.6 46.5 17.8 46.6 19C46.7 19.7 47.2 19.9 48.2 19.7C48.4 19.7 48.6 19.9 48.6 20.1V22.1C49.3 22.5 50.1 22.6 50.9 22.4H56.9L57.3 22.8C57.7 22.9 58.2 22.9 58.6 22.8H58.9C59.3 22.6 59.7 22.6 60.1 22.6H66.2C66.7 22.7 67.3 22.7 67.8 22.5C67.9 21.8 67.9 21.2 67.8 20.5C67.8 20.4 67.8 20.1 68.1 20.1H68.8C70.2 20.1 70.1 18.8 69.4 18.2C68.7 17.6 68 18.3 67.8 17.6V13.6C67.7 13.2 67.7 12.8 67.8 12.5C68.8 12.5 69.4 12.5 69.6 11.8C69.7 11.2 69.4 10.6 68.9 10.4H68C67.6 10.4 67.7 10.4 67.7 10.3V10.2C67.8 9.59998 67.7 8.99997 67.6 8.39997C66.8 7.99997 66 7.99998 65.2 8.19998C64.9 7.79998 64.5 8.09998 63.9 8.19998C62.6 8.29998 61.2 8.29998 59.9 8.19998C59.3 8.19998 58.7 8.39998 58.2 8.59998C58 8.59998 57.8 8.69997 57.6 8.89997C57.2 8.59997 56.8 8.29998 56.3 8.19998C55.5 7.89998 53.5 8.19998 52.3 8.19998C51.9 7.99998 51.5 7.99998 51.1 7.89998C50.9 7.99998 50.8 7.99998 50.6 8.19998H48.5C47.8 8.49998 48.7 10.2 47.9 10.6C46.9 10.6 46.3 10.6 46.3 11.5C46 12.8 47.1 12.8 48.1 12.8V15.2C48.5 15.9 48.5 16.8 48.2 17.7ZM56.9 20.7H56.6C54.9 20.6 52.6 20.8 50.8 20.7C50.4 20.1 51.4 19.6 51.8 19.6C53.3 19.8 54.8 19.8 56.3 19.7C56.6 19.7 56.9 19.8 57.1 20C57.4 20.4 57 20.4 56.9 20.7ZM58.6 22.3C58.5 22.4 58.3 22.6 58.2 22.6H57.6C57.4 22.6 57.3 22.5 57.3 22.3C57.2 22.2 57 22 57 21.9V21.5C57 21.1 57.2 20.8 57.6 20.6C58 20.4 58.4 20.4 58.7 20.7L58.8 20.8C58.9 20.9 58.9 21.1 58.9 21.4C59 21.7 58.8 22 58.6 22.3ZM66.1 8.49998C66.4 8.09998 67 7.99997 67.4 8.39997L67.5 8.49998C67.8 8.89998 67.2 10.2 67.8 10.5H68.8C69 10.5 69.1 10.5 69.2 10.6C69.5 10.7 69.5 11.2 69.3 11.5C69.2 11.6 69 11.8 68.9 11.8H68.1C67.8 11.8 67.5 12.7 67.5 13.4C67.4 14.8 67.4 16.1 67.5 17.5C67.5 18.2 68.3 17.8 68.9 17.9C69 18 69.3 18.2 69.3 18.3C69.6 19.7 67.6 18.6 67.3 19.4C67 20.2 67.4 20.7 67.3 21.2C67.2 21.5 66.9 21.8 66.6 21.6H59.4C59.1 21.5 59.1 21.3 59.1 21C59.1 20.8 59.2 20.7 59.4 20.7H64.6C65.2 20.8 65.8 20.7 66.3 20.4V9.39997C66.2 9.29997 66.1 8.89998 66.1 8.49998C66 8.59998 66 8.69998 66.1 8.49998ZM65.3 8.99998C65.3 8.89998 65.3 8.69998 65.5 8.69998C65.6 8.69998 65.8 8.79998 65.9 8.99998C66 9.19998 66.2 9.39998 66.3 9.59998C66.4 10.5 66.4 11.4 66.3 12.3V13.6C66.4 15.6 66.3 19.5 66.3 20C66.3 20.5 66.3 20.3 66.1 20.1C65.8 19.7 65.6 19.3 65.4 18.8C65.2 14.6 65.3 12.9 65.3 8.99998ZM65.4 20C65.5 20.1 65.7 20.3 65.7 20.4C65.7 20.8 64.7 20.7 64.3 20.7H58.9C58.7 20.5 58.6 20.2 58.8 19.9L58.9 19.8C59.3 19.2 63.3 19.8 64.7 19.4C65 19.5 65.3 19.7 65.4 20ZM51.5 17.8V8.49998C51.7 8.29998 51.9 8.19998 52.2 8.19998H53.5C53.9 8.19998 55.1 8.29998 55.5 8.29998C55.9 8.29998 55.8 8.29998 56.1 8.19998C56.8 8.19998 57.5 8.49998 57.9 9.09998V10.2H58.2V9.49998C58.2 9.29998 58.3 9.09997 58.5 8.89997C58.8 8.69997 59.1 8.49998 59.5 8.29998C60.3 8.19998 62.9 8.29998 63.9 8.29998H64.5C64.8 8.29998 64.9 8.59997 65.1 8.89997V19.4C64.7 19.6 64.2 19.7 63.7 19.7H59.6C59.4 19.7 59.2 19.8 59 20C58.9 20.1 58.7 20.1 58.4 20.1C58.3 19.6 58.3 19.1 58.4 18.7H58C58 19.1 58 19.6 57.9 20C57.5 20 57.1 19.9 56.8 19.7C55.8 19.6 53.7 19.8 52.7 19.7C52.4 19.7 52.1 19.6 51.9 19.4C51.4 19 51.4 18.4 51.5 17.8ZM50.8 8.79998C50.9 8.79998 51.1 8.79997 51.1 8.89997V16.3C51.2 17.3 51.1 18.4 50.8 19.4C50.7 19.7 50.4 19.9 50.1 20C50 17.6 50.1 15.3 50.1 13.6V10.6C50 9.89998 50.3 9.19998 50.8 8.79998ZM48.8 17.6V15C48.9 14 48.8 13 48.7 12C48.3 11.6 47.4 12.3 47 11.6C46.8 11.2 47 10.8 47.3 10.6H47.7C48.3 10.5 48.7 10.9 48.8 10.3V8.79998C48.8 8.59998 48.9 8.39997 49.1 8.39997H49.2C49.6 8.29997 50 8.39998 50.3 8.69998C50.3 8.79998 50.2 8.99998 50.2 9.09998C50.2 9.19998 50.1 9.29998 50 9.29998C49.9 10.1 49.9 10.9 50 11.7V18.6C50 19.3 49.7 20.9 50.3 21C50.8 21.1 51.3 21.1 51.9 21H56.2C56.4 21 56.6 21.1 56.8 21.3C56.9 21.6 56.8 21.7 56.6 21.9H49.4C49 21.7 48.9 21.3 49 21C49 20.3 49.3 19.6 48.7 19.3H47.7C47.4 19.3 47.2 19 47.1 18.7C47.1 18.5 47.2 18.3 47.4 18.1C47.6 18 47.7 18 48 18C48.3 18 48.7 18.3 48.8 17.6ZM58 16.6C57.4 16.6 57.4 16.5 57.4 16.3V16L57.7 15H59L59.3 16V16.4C59.3 16.5 59.3 16.7 59.1 16.7H58.7V17.1H60.7V16.7C60.4 16.6 60.2 16.3 60.1 16L59 11.6H58V11.9L57 16C56.9 16.6 56.7 16.9 56.4 16.9V17.3H58.1V16.6H58ZM58.3 12.6L58.9 14.4H57.9L58.3 12.6ZM61.3 52.3C60.6 51.7 59.6 51.3 59.3 51C59 50.5 58.9 49.9 58.7 49.3C58.4 48.8 58.2 48.4 57.9 47.9C57.3 47.1 55.9 46.2 55.5 46.9C55.1 47.8 54.5 48.6 53.8 49.3C53 49.9 52.2 50.4 51.3 50.7C47.9 51 44.4 51 41 50.9C40.6 50.8 40.4 50.4 40.4 50.1C40.3 47.2 40.4 44.2 40.7 41.3C41.2 40.4 41.9 39.6 42.7 39C43.7 38 45.2 37.7 45.2 37C44.7 36 43.9 35.2 42.9 34.7C41.8 34.1 40.5 34.1 40.1 33.9C39.5 33.2 39 32.5 38.5 31.6C38 30.9 37.3 30.3 36.7 29.8C36 30.3 35.4 31 34.9 31.6C34.4 32.4 33.9 33.2 33.3 33.9C32.9 34.2 31.6 34.2 30.5 34.7C29.5 35.2 28.7 36 28.2 37C28.2 37.7 29.9 37.8 30.9 38.7C31.8 39.2 32.5 40 32.9 41C33.2 44 33.2 47 33.2 49.8C33.3 50.2 33 50.6 32.6 50.6C29.2 50.8 25.7 50.7 22.3 50.5C21.4 50.2 20.5 49.7 19.8 49.1C19.1 48.4 18.5 47.6 18.1 46.7C17.8 46 16.4 47 15.7 47.7C15.4 48.1 15.1 48.7 14.8 49.1C14.7 49.7 14.5 50.3 14.2 50.8C13.9 51.1 12.9 51.5 12.2 52.1C11.3 52.7 10.7 53.6 10.2 54.5C10.7 55.2 11.3 55.9 12 56.3C12.8 56.7 13.5 57.1 14.3 57.6C14.5 58.4 14.8 59.2 15.2 60C15.8 60.9 16.5 61.7 17.5 62.3C18.2 62.6 18.6 62.6 18.8 62.3C19 62 19.7 60.7 19.9 60C20.5 59.1 21.3 58.3 22.3 57.7C23.3 57.3 24.4 57.1 25.4 57.1H32.2C32.8 57.1 33.2 57.5 33.2 58.1V70C33.2 71.3 32.7 72.6 31.8 73.5C30.8 74.5 29.5 75.3 28.1 75.7C27.5 75.8 28.1 76.4 28.4 76.8C28.9 77.4 29.6 77.9 30.2 78.4C31.1 78.8 32 79.2 32.9 79.4C33.6 79.8 34.1 80.5 34.2 81.2C34.8 82.4 35.6 83.4 36.6 84.2C37.6 83.4 38.4 82.4 39 81.2C39.2 80.5 39.7 79.8 40.3 79.4C41.2 79.2 42.1 78.9 43 78.4C43.7 78 44.3 77.4 44.8 76.8C45.1 76.4 45.6 75.8 45.1 75.7C43.7 75.3 42.4 74.5 41.4 73.4C40.6 72.4 40.1 71.2 40 69.9V58.2C40 57.7 40.5 57.2 41 57.2H47.8C48.9 57.2 49.9 57.4 50.9 57.8C51.9 58.4 52.7 59.1 53.3 60C53.7 60.7 54.3 62 54.4 62.3C54.5 62.6 55 62.4 55.7 62.3C56.6 61.7 57.4 61 58 60C58.3 59.2 58.6 58.4 58.8 57.6C59.6 57.2 60.3 56.8 61 56.4C61.7 55.9 62.4 55.3 62.8 54.6C62.4 53.8 61.9 53 61.3 52.3ZM17.1 49.8C17.3 49.5 17.5 49.2 17.8 49H18.1C18.4 49.3 18.5 49.6 18.8 49.8C19 50.3 19.1 50.7 19.1 51.2C19.1 51.8 19 52.3 18.8 52.9C18.7 53.3 18.6 53.6 18.5 54C18.4 54.3 18.4 54.7 18.2 55V55.6L18.1 55.7H18V55.1C18 54.8 17.9 54.4 17.7 54.1C17.6 53.7 17.5 53.4 17.4 53C17.2 52.4 17.1 51.9 17.1 51.3C16.9 50.9 16.9 50.3 17.1 49.8ZM19.1 56.2C19.3 56.2 19.4 56.3 19.4 56.5C19.4 56.7 19.3 56.8 19.1 56.8H16.8C16.6 56.8 16.5 56.7 16.5 56.5C16.5 56.3 16.6 56.2 16.8 56.2H19.1ZM15.3 54.1H14.7C14.6 54.2 14.4 54.2 14.3 54.5C14.2 54.7 14.1 54.9 14.2 55.1C14.1 55 13.8 54.8 13.6 54.7C13.4 54.5 13.3 54.3 13.3 54C13.3 53.6 13.4 53.3 13.6 53C14 52.6 14.5 52.4 15 52.4C15.4 52.4 15.7 52.5 16 52.7C16.4 53 16.7 53.3 17 53.7C17.2 54 17.3 54.3 17.3 54.7C17.4 55 17.4 55.4 17.3 55.7C17.3 55.8 17.2 55.8 17 55.7V55.6C17 55.5 16.9 55.3 16.7 55.2C16.5 54.9 16.3 54.7 16 54.5C15.9 54.1 15.6 54 15.3 54.1ZM19.3 58.5C19 58.5 18.7 58.4 18.4 58.2V58.8C18.4 59 18.3 59.2 18.1 59.4H17.8C17.6 59.3 17.5 59.1 17.5 58.8V58.2C17.2 58.4 17 58.5 16.6 58.5C16.3 58.5 15.9 58.2 16 58.2L16.9 57.8C17 57.6 17.2 57.5 17.2 57.4H18.6C18.7 57.5 18.7 57.7 18.9 57.8C19.1 57.9 19.3 58.2 19.6 58.2C19.9 58.2 19.7 58.3 19.3 58.5ZM22.7 53.8C22.7 54.1 22.6 54.2 22.4 54.5C22.2 54.7 22 54.8 21.8 54.9C21.8 54.8 21.7 54.5 21.7 54.3L21.2 54H20.6C20.3 54 20 54.1 19.7 54.3C19.4 54.5 19.3 54.7 19 55C18.7 55.3 18.9 55.3 18.7 55.4V55.5C18.7 55.6 18.6 55.6 18.4 55.5V54.5C18.5 54.2 18.7 53.8 18.8 53.5C19 53.1 19.4 52.7 19.8 52.5C20.1 52.3 20.4 52.2 20.8 52.2C21.3 52.2 21.8 52.4 22.2 52.8C22.5 53.2 22.6 53.5 22.7 53.8ZM38.8 36C39.1 35.8 39.4 35.7 39.8 35.7C40.3 35.7 40.8 35.9 41.2 36.3C41.4 36.6 41.5 36.9 41.5 37.3C41.5 37.6 41.4 37.8 41.2 38C41 38.2 40.8 38.3 40.6 38.4C40.6 38.3 40.5 38 40.5 37.8L40.1 37.4H39.5C39.2 37.4 38.9 37.5 38.7 37.7C38.4 37.8 38.3 38.1 38 38.4C37.7 38.7 37.9 38.7 37.7 38.8V39C37.7 39.1 37.6 39.1 37.4 39V38C37.5 37.7 37.5 37.3 37.7 37C38 36.6 38.4 36.3 38.8 36ZM37.1 77V77.6C37.1 77.7 37 77.7 37 77.7C36.9 77.7 36.9 77.6 36.9 77.6V77C36.9 76.7 36.8 76.3 36.8 76C36.7 75.6 36.6 75.2 36.4 74.9C36.2 74.3 36.1 73.8 36.1 73.2C36.1 72.7 36.2 72.2 36.4 71.8C36.6 71.5 36.9 71.3 37.2 71H37.5C37.8 71.3 37.9 71.6 38.2 71.8C38.4 72.3 38.5 72.7 38.5 73.2C38.5 73.8 38.4 74.3 38.2 74.9C38.1 75.2 38 75.6 37.9 75.9C37.3 76.2 37.1 76.6 37.1 77ZM38 78.2C38.1 78.2 38.4 78.2 38.4 78.5C38.4 78.8 38.4 78.9 38.1 78.9H35.7C35.6 78.9 35.3 78.9 35.3 78.6C35.3 78.3 35.3 78.2 35.6 78.2H38ZM37.4 58.3V58.9C37.4 59.1 37.3 59.3 37.1 59.5H36.8C36.6 59.4 36.5 59.2 36.5 58.9V58.3C36.2 58.5 36 58.5 35.7 58.6C35.4 58.6 35 58.3 35.1 58.3L35.9 57.9C36 57.8 36.2 57.6 36.2 57.5H38C38.1 57.6 38.1 57.8 38.3 57.9C38.5 58.1 38.8 58.3 39.1 58.3C39.2 58.3 38.9 58.6 38.5 58.6C38.2 58.6 37.8 58.5 37.4 58.3ZM38 56.9H35.7C35.5 56.9 35.4 56.8 35.4 56.6C35.4 56.4 35.5 56.3 35.7 56.3H38C38.2 56.2 38.4 56.3 38.4 56.5C38.5 56.7 38.4 56.8 38.3 56.9H38ZM37.2 55.1V55.7L37 55.8L36.9 55.7V55.1C36.9 54.8 36.8 54.4 36.6 54.1C36.5 53.7 36.4 53.4 36.3 53C36.1 52.4 36 51.9 36 51.3C36 50.8 36.1 50.3 36.3 49.9C36.5 49.6 36.8 49.3 37.1 49H37.4C37.7 49.3 37.8 49.6 38.1 49.8C38.3 50.3 38.4 50.7 38.4 51.2C38.4 51.8 38.3 52.4 38.1 52.9C38 53.3 37.9 53.6 37.8 54C37.3 54.4 37.3 54.7 37.2 55.1ZM37.3 41.6V42.2C37.3 42.4 37.2 42.6 37 42.8H36.7C36.4 42.7 36.3 42.4 36.3 42.1V41.5C36 41.7 35.8 41.8 35.5 41.8C35.2 41.8 34.8 41.5 34.9 41.5C35.2 41.4 35.4 41.2 35.6 41.1C35.7 41 35.9 40.8 35.9 40.7H37.6C37.7 40.8 37.7 41 37.9 41.1C38.1 41.2 38.5 41.5 38.7 41.5C38.9 41.5 38.6 41.8 38.1 41.8C37.8 41.8 37.6 41.7 37.3 41.6ZM35.3 39.9C35.3 39.8 35.4 39.6 35.7 39.6H38C38.1 39.6 38.3 39.7 38.4 39.9C38.5 40.1 38.3 40.2 38 40.2H35.7C35.4 40.2 35.3 40.1 35.3 39.9ZM36 33.3C36.2 33 36.4 32.7 36.7 32.5H37C37.3 32.8 37.4 33.1 37.7 33.3C37.9 33.7 38 34.2 38 34.7C38 35.3 37.9 35.8 37.7 36.4C37.6 36.8 37.5 37.1 37.4 37.5C37.2 37.8 37.2 38.2 37.1 38.5V39.1C37.1 39.2 37 39.2 37 39.2L36.9 39.1V38.5C36.9 38.1 36.8 37.8 36.6 37.5C36.3 36.9 36.5 36.9 36.3 36.4C36.1 35.8 36 35.3 36 34.7C35.9 34.2 35.9 33.7 36.1 33.3H36ZM33 38C32.9 38.2 32.8 38.4 32.8 38.6C32.7 38.4 32.4 38.3 32.2 38.2C32 38 31.9 37.8 31.9 37.5C31.9 37.2 32 36.8 32.2 36.5C32.6 36.2 33.1 36 33.6 35.9C34 35.9 34.3 36 34.6 36.2C35 36.5 35.3 36.8 35.6 37.2C35.8 37.5 35.9 37.9 35.9 38.2V39.2C35.9 39.3 35.8 39.3 35.6 39.2V39C35.6 38.9 35.5 38.7 35.3 38.6C35.1 38.3 34.9 38 34.6 37.9C34.4 37.6 34.1 37.5 33.8 37.5H33.2L32.8 37.9L33 38ZM33 54.6C32.9 54.8 32.8 55 32.8 55.2C32.7 55.1 32.4 54.9 32.2 54.8C32.1 54.5 32 54.3 32 54C32 53.7 32.1 53.3 32.3 53C32.7 52.7 33.2 52.5 33.7 52.4C34.1 52.4 34.4 52.5 34.7 52.7C35.1 53 35.4 53.3 35.7 53.7C35.8 54 36 54.4 36.1 54.7C36.2 55 36.2 55.4 36.1 55.7C36.1 55.8 36 55.8 35.8 55.7V55.6C35.7 55.5 35.7 55.3 35.5 55.2C35.3 54.9 35.1 54.7 34.8 54.5C34.4 54.2 33.9 54.1 33.4 54.2C33.3 54.2 33.1 54.3 33 54.5V54.6ZM34 75.9H33.4C33.3 76 33.2 76 33 76.3C32.9 76.5 32.8 76.7 32.8 76.9C32.7 76.8 32.4 76.6 32.2 76.5C32.1 76.3 32 76 32 75.8C32 75.5 32.1 75.1 32.3 74.8C32.7 74.4 33.2 74.2 33.7 74.2C34 74.2 34.4 74.3 34.7 74.5C35.1 74.8 35.4 75.1 35.7 75.5C35.9 75.8 36 76.2 36 76.5C36.1 76.8 36.1 77.2 36 77.5C36 77.6 35.9 77.6 35.7 77.5V77.4C35.7 77.3 35.6 77.1 35.4 77C35.2 76.7 35 76.5 34.7 76.3C34.5 76 34.3 75.9 34 75.9ZM38.1 80.4C37.8 80.4 37.5 80.3 37.3 80.1V80.7C37.3 80.9 37.2 81.1 37 81.3H36.7C36.5 81.2 36.4 81 36.4 80.7V80.1C36.1 80.3 35.9 80.3 35.6 80.4C35.3 80.4 34.9 80.1 35 80.1C35.3 80 35.5 79.9 35.7 79.7C35.8 79.5 36 79.4 36 79.3H37.7C37.8 79.4 37.8 79.6 38 79.7C38.2 79.8 38.6 80.1 38.8 80.1C38.6 80.3 38.4 80.4 38.1 80.4ZM41.1 74.9C41.3 75.2 41.4 75.5 41.4 75.9C41.4 76.2 41.3 76.4 41.1 76.6C40.9 76.8 40.7 76.9 40.5 77C40.5 76.9 40.4 76.6 40.4 76.4L39.9 76H39.3C39 76 38.7 76.1 38.5 76.3C38.2 76.4 38.1 76.7 37.8 77C37.5 77.3 37.7 77.3 37.5 77.4V77.5C37.5 77.6 37.4 77.6 37.2 77.6C37.1 77.6 37.1 77.5 37.1 77.5C37 77.2 37 76.8 37.1 76.5C37.2 76.2 37.2 75.8 37.4 75.5C37.6 75.1 38 74.7 38.4 74.5C38.7 74.3 39 74.2 39.4 74.2C40 74.2 40.6 74.4 41.1 74.9ZM41.5 53.8C41.5 54.1 41.4 54.2 41.2 54.5C41 54.7 40.8 54.8 40.6 54.9C40.6 54.8 40.5 54.5 40.5 54.3L40.1 54C39.6 53.8 39.1 53.9 38.7 54.3C38.4 54.5 38.3 54.7 38 55C37.7 55.3 37.9 55.3 37.7 55.4V55.5C37.7 55.6 37.6 55.6 37.4 55.5C37.2 55.2 37.2 54.8 37.4 54.5C37.5 54.2 37.5 53.8 37.7 53.5C37.9 53.1 38.3 52.7 38.7 52.5C39 52.3 39.3 52.2 39.7 52.2C40.2 52.2 40.7 52.4 41.1 52.8C41.3 53.1 41.5 53.5 41.5 53.8ZM54.7 49.8C54.9 49.5 55.1 49.2 55.4 49H55.7C56 49.3 56.1 49.6 56.4 49.8C56.6 50.2 56.7 50.7 56.7 51.2C56.7 51.8 56.6 52.3 56.4 52.9C56.3 53.3 56.2 53.6 56.1 54C56 54.3 56 54.7 55.8 55V55.6L55.6 55.7L55.5 55.6V55C55.5 54.7 55.4 54.3 55.2 54C55.1 53.6 55.1 53.3 54.9 52.9C54.7 52.3 54.6 51.8 54.6 51.2C54.5 50.8 54.5 50.3 54.7 49.8ZM56.7 56.2C56.8 56.2 57 56.3 57.1 56.5C57.2 56.7 57 56.8 56.7 56.8H54.4C54.3 56.8 54 56.7 54 56.5C54 56.3 54.1 56.2 54.4 56.2H56.7ZM52.8 54H52.2C52 54.1 51.9 54.1 51.8 54.4C51.7 54.6 51.6 54.8 51.7 55C51.6 54.9 51.3 54.7 51.1 54.6C50.9 54.5 51 54.2 50.8 53.9C50.8 53.6 50.9 53.2 51.1 52.9C51.5 52.6 52 52.4 52.5 52.3C52.9 52.3 53.2 52.4 53.5 52.6C53.9 52.9 54.2 53.2 54.5 53.6C54.7 53.9 54.8 54.3 54.8 54.6V55.6C54.8 55.7 54.7 55.7 54.5 55.6V55.5C54.3 55.1 54 54.7 53.7 54.4C53.5 54.1 53.2 54 52.8 54ZM56.9 58.4C56.6 58.4 56.3 58.3 56.1 58.1V58.7C56.1 58.9 56 59.1 55.8 59.3H55.5C55.3 59.2 55.2 59 55.2 58.7V58.1C54.9 58.3 54.7 58.4 54.4 58.4C54.1 58.4 53.7 58.1 53.8 58.1C54.1 58 54.3 57.8 54.5 57.7C54.6 57.6 54.8 57.4 54.8 57.3H56.5C56.7 57.4 56.7 57.6 56.8 57.7C56.9 57.8 57.2 58.1 57.5 58.1C57.8 58.1 57.2 58.4 56.9 58.4ZM59.9 54.6C59.7 54.8 59.6 54.9 59.3 55C59.3 54.9 59.1 54.6 59.1 54.4L58.8 54C58.3 53.9 57.8 54 57.4 54.3C57.1 54.5 56.9 54.7 56.8 55C56.7 55.1 56.7 55.3 56.5 55.4V55.5C56.5 55.6 56.4 55.6 56.2 55.5V54.5C56.3 54.2 56.3 53.8 56.5 53.5C56.7 53.1 57.1 52.7 57.5 52.5C57.8 52.3 58.1 52.2 58.5 52.2C59 52.2 59.5 52.4 59.9 52.8C60.2 53 60.3 53.4 60.2 53.8C60.2 54.1 60.2 54.4 59.9 54.6ZM26.6 17.7C25.6 17.6 24.9 17.8 25.1 19C25.2 19.7 25.7 19.9 26.6 19.7C26.8 19.7 27 19.9 27 20.1V22.1C27.7 22.5 28.5 22.6 29.3 22.4H34.4L34.8 22.8C35.2 22.9 35.7 22.9 36.1 22.8H36.2C36.6 22.6 37 22.6 37.5 22.7H41.8C42.3 22.8 42.9 22.8 43.3 22.6C43.5 21.9 43.5 21.3 43.3 20.6C43.3 20.5 43.5 20.2 43.6 20.2H44.3C45.7 20.2 45.6 18.9 44.9 18.3C44.2 17.7 43.5 18.4 43.3 17.7V13.7C43.2 13.3 43.2 12.9 43.3 12.6C44.3 12.6 44.9 12.6 45.1 11.9C45.2 11.3 44.9 10.7 44.4 10.5H43.6C43.3 10.5 43.3 10.5 43.3 10.4V10.3C43.4 9.69998 43.3 9.09998 43.2 8.49998C42.4 8.19998 41.6 8.19997 40.8 8.39997C40.5 7.99997 40.1 8.29997 39.5 8.39997H37.5C36.9 8.39997 36.3 8.49998 35.8 8.79998C35.6 8.79998 35.4 8.89998 35.2 9.09998C34.8 8.79998 34.4 8.59997 34 8.39997H31C30.6 8.29997 30.1 8.29998 29.7 8.09998C29.6 8.19998 29.4 8.19997 29.3 8.39997H27.2C26.5 8.69997 27.3 10.4 26.6 10.8C25.6 10.8 25.1 10.8 24.9 11.7C24.6 13 25.8 13 26.8 13V15.4C27 16 26.9 16.9 26.6 17.7ZM34.4 20.7H34.3C32.6 20.6 31.3 20.8 29.5 20.7C29.1 20.1 29.9 19.6 30.4 19.6C31.6 19.8 32.9 19.8 34.1 19.7C34.4 19.7 34.7 19.8 34.9 20C35 20.4 34.5 20.4 34.4 20.7ZM41.8 8.69998C42.1 8.29998 42.7 8.19998 43.1 8.59998L43.2 8.69998C43.5 9.09998 42.9 10.4 43.5 10.7H44.5C44.7 10.7 44.8 10.7 44.9 10.8C45.2 10.9 45.2 11.4 45 11.7C44.8 12 44.8 12 44.6 12H43.8C43.5 12 43.2 12.9 43.2 13.6C43.1 15 43.1 16.3 43.2 17.7C43.2 18.4 44 18 44.6 18.1C44.9 18.2 45 18.4 45 18.5C45.3 19.9 43.3 18.8 43 19.6C42.7 20.4 43.1 20.9 43 21.4C42.9 21.7 42.6 22 42.3 21.8H37.1C36.9 21.7 36.8 21.5 36.8 21.2C36.8 21 36.9 20.9 37.1 20.9H40.4C41 21 41.6 20.9 42.1 20.6V9.49998C42 9.19998 41.9 8.89998 41.8 8.69998C41.6 8.49998 41.6 8.59998 41.8 8.69998ZM40.9 9.09998C40.9 8.99998 40.9 8.99998 41 8.79998C41.1 8.59998 41.3 8.89998 41.4 9.09998C41.5 9.29998 41.7 9.49998 41.8 9.69998C41.9 10.6 41.9 11.5 41.8 12.4V13.7C41.9 15.7 41.8 19.6 41.8 20.1C41.8 20.6 41.8 20.4 41.7 20.2C41.4 19.8 41.2 19.4 41 18.9C40.9 14.6 40.9 12.9 40.9 9.09998ZM41.1 20.1C41.2 20.2 41.4 20.4 41.4 20.5C41.4 20.9 40.4 20.8 40 20.8H36.6C36.4 20.6 36.3 20.3 36.5 20.1L36.6 20C37 19.4 39.1 20 40.6 19.6C40.8 19.6 41.1 19.8 41.1 20.1ZM35.7 14.5V9.29998C35.7 9.09998 35.8 8.79998 35.8 8.59998C36.1 8.39998 36.4 8.19998 36.8 7.99998C37.6 7.89998 38.5 7.89998 39.3 7.99998H39.9C40.2 7.99998 40.3 8.29998 40.5 8.59998V19.1C40.1 19.4 39.6 19.5 39.1 19.4H36.8C36.6 19.4 36.4 19.5 36.2 19.7C36.1 19.8 35.9 19.8 35.6 19.8C35.5 19.3 35.5 18.8 35.6 18.4V14.5H35.7ZM36.3 21.1C36.4 21.2 36.4 21.4 36.4 21.7C36.4 22 36.3 22.2 36.1 22.4C36 22.5 35.8 22.7 35.7 22.7H35.1C35 22.7 34.8 22.6 34.7 22.4C34.6 22.2 34.4 22.1 34.4 22V21.6C34.4 21.2 34.6 20.9 35 20.7C35.3 20.5 35.8 20.5 36.1 20.9C36.1 20.9 36.1 21 36.2 21C36.2 21 36.3 21 36.3 21.1ZM30 17.8V8.49998C30.2 8.29998 30.4 8.19998 30.7 8.19998H31.7C32.1 8.19998 32.5 8.29998 33.1 8.29998C33.3 8.29998 33.5 8.29998 33.7 8.19998C34.4 8.19998 35.1 8.49998 35.5 9.09998V16.6H35.4C35.3 16.6 35.3 16.5 35.1 16.3L34.7 15.4L34.5 15.1L34.1 14.2C34.6 13.9 35 13.4 35 12.8C35.1 12.2 34.8 11.7 34.3 11.4C33.9 11.3 33.6 11.2 33.2 11.1C32.7 11.1 32.2 11.1 31.6 11.2H31.5V11.6H31.6C31.9 11.6 32 11.6 32 12.3V15.6C32 16.3 32 16.3 31.6 16.3H31.5V16.7H33.6V16.4H33.5C33.2 16.4 33.1 16.4 33.1 15.7V14.6H33.5L33.9 15.5L34.2 15.9C34.3 16.3 34.6 16.7 34.9 16.9C35.2 17.1 35.5 17.2 35.9 17.2H36.2C36.3 18 36.2 18.9 36.1 19.7C35.7 19.6 35.3 19.6 35 19.3C34 19.2 32.7 19.4 31.9 19.3C31.6 19.3 31.3 19.2 31 19C30 18.7 30 18.3 30 17.8ZM33.7 13C33.9 13.5 33.6 14.1 33.1 14.3H32.6V11.9H32.7C33.3 11.9 33.7 12.3 33.7 12.9V13ZM29.3 8.59998C29.4 8.59998 29.6 8.59998 29.6 8.69998V16.1C29.7 17.1 29.6 18.2 29.3 19.2C29.2 19.5 28.9 19.7 28.6 19.8C28.5 17.4 28.6 15.1 28.6 13.4V10.4C28.5 9.79997 28.8 9.09998 29.3 8.59998ZM27.3 17.6V15C27.4 14 27.3 13 27.2 12C26.8 11.6 25.9 12.3 25.5 11.6C25.3 11.2 25.5 10.8 25.9 10.6H26.3C26.9 10.5 27.3 10.9 27.4 10.3V8.79998C27.4 8.59998 27.5 8.39997 27.7 8.39997H27.8C28.2 8.29997 28.6 8.39998 28.9 8.69998C28.9 8.89998 28.9 8.99998 28.8 9.09998C28.7 9.19998 28.7 9.39997 28.5 9.39997C28.4 10.2 28.4 11 28.5 11.8V18.7C28.5 19.4 28.2 21 28.8 21.1C29.3 21.2 29.8 21.2 30.4 21.1H33.8C34 21.1 34.2 21.2 34.4 21.4C34.5 21.7 34.4 21.8 34.3 22H28.1C27.8 21.9 27.8 21.4 27.8 21.1C27.8 20.4 28.1 19.7 27.5 19.4H26.5C26.2 19.4 26 19.1 25.9 18.8C25.9 18.6 26 18.4 26.2 18.2C26.3 18.1 26.5 18.1 26.8 18.1C27.1 18.1 27.3 18.3 27.3 17.6ZM39.1 17H37.3V16.7C37.6 16.7 37.7 16.7 37.7 16V12.7C37.7 12.1 37.7 12 37.3 12V11.6H39.1V12C38.8 12 38.7 12 38.7 12.7V16C38.7 16.7 38.7 16.7 39.1 16.7V17ZM134.7 50.5V31.2H120.7V50.5H109.3V3.29998H120.7V21.1H134.7V3.29998H146.1V50.5H134.7ZM183.6 50.5L181.8 43.3H168.1L166.3 50.5H153.8L168 3.29998H181.8L195.9 50.5H183.6ZM175 15.2L170.3 33.3H179.5L175 15.2ZM224.5 50.5L218.1 34.3H213.8V50.5H202.4V3.29998H221.7C229.8 2.99998 236.6 9.19996 237 17.3V18.6C237 26.6 232.8 30.6 229.3 32.3L237.3 50.6L224.5 50.5ZM225.3 18.9C225.6 16.2 223.6 13.7 220.8 13.4H213.9V24.5H220C222.7 24.7 225.1 22.6 225.3 19.8V18.9ZM255.5 50.5L241.5 3.29998H253.9L262.6 37L271.1 3.29998H283.3L269.2 50.5H255.5ZM310.9 50.5L309.1 43.3H295.4L293.6 50.5H281.2L295.2 3.09998H309L323.1 50.3L310.9 50.5ZM302.3 15.2L297.8 33.3H307L302.3 15.2ZM351.9 50.5L345.5 34.3H341.2V50.5H329.8V3.29998H349C357.1 2.99998 363.9 9.19996 364.3 17.3V18.6C364.3 26.6 360.1 30.6 356.6 32.3L364.6 50.6L351.9 50.5ZM352.6 18.9C352.9 16.2 350.9 13.7 348.1 13.4H341.2V24.5H347.3C350 24.7 352.4 22.6 352.6 19.8V18.9ZM373.6 50.5V3.29998H390.1C403.7 3.29998 411.6 12.9 411.6 26.9C411.6 40.9 404 50.5 390.3 50.5H373.6ZM399.9 26.9C399.9 18.1 396.5 13.2 390.1 13.2H385V40.5H390.1C396.2 40.5 399.9 35.2 399.9 26.9ZM107.3 80.8L108.9 78.2C109.9 79.3 111.4 80 112.9 80C113.9 80.2 114.8 79.6 115.1 78.6V78.2C115.1 75.3 107.8 76.3 107.8 70.8C107.9 68.1 110.1 65.9 112.8 66H113.2C115 66 116.8 66.6 118.2 67.8L116.6 70.3C115.7 69.4 114.4 68.9 113.1 68.9C112.1 68.8 111.3 69.5 111.1 70.4V70.6C111.1 73.2 118.4 72.4 118.4 77.9C118.4 80.8 116.5 82.9 112.8 82.9C110.8 83 108.8 82.2 107.3 80.8ZM120.4 74.4C120.4 69.4 123.1 65.9 127.4 65.9C129.9 65.9 132.1 67.5 132.9 69.8L130.2 71C129.9 69.7 128.8 68.8 127.5 68.8C125.2 68.8 123.9 71.1 123.9 74.4C123.9 77.7 125.3 80 127.5 80C128.8 79.9 130 78.9 130.3 77.6L133 78.8C132.3 81.2 130 82.9 127.5 82.9C123.1 82.9 120.4 79.4 120.4 74.4ZM144.4 82.6V75.6H138.9V82.6H135.6V66.3H138.9V72.8H144.4V66.3H147.7V82.7L144.4 82.6ZM150.8 74.4C150.8 69.5 153.4 65.9 157.7 65.9C162 65.9 164.6 69.5 164.6 74.4C164.6 79.3 162 82.9 157.7 82.9C153.4 82.9 150.8 79.3 150.8 74.4ZM161.2 74.4C161.2 71.3 160 68.8 157.7 68.8C155.4 68.8 154.3 71.2 154.3 74.4C154.3 77.6 155.5 80 157.8 80C160.1 80 161.2 77.6 161.2 74.4ZM167.5 74.4C167.5 69.5 170.1 65.9 174.4 65.9C178.7 65.9 181.3 69.5 181.3 74.4C181.3 79.3 178.7 82.9 174.4 82.9C170.1 82.9 167.5 79.3 167.5 74.4ZM177.9 74.4C177.9 71.3 176.7 68.8 174.4 68.8C172.1 68.8 170.9 71.2 170.9 74.4C170.9 77.6 172.1 80 174.4 80C176.7 80 177.9 77.6 177.9 74.4ZM184.8 82.6V66.3H188.1V79.8H193.6V82.7L184.8 82.6ZM202.9 74.4C202.9 69.5 205.5 65.9 209.8 65.9C214.1 65.9 216.7 69.5 216.7 74.4C216.7 79.3 214.1 82.9 209.8 82.9C205.5 82.9 202.9 79.3 202.9 74.4ZM213.3 74.4C213.3 71.3 212.1 68.8 209.8 68.8C207.5 68.8 206.3 71.2 206.3 74.4C206.3 77.6 207.5 80 209.8 80C212.1 80 213.3 77.6 213.3 74.4ZM220.2 82.6V66.3H229.6V69.2H223.5V72.9H229.4V75.6H223.5V82.5L220.2 82.6ZM239.7 82.6V66.3H245.7C248.6 66.4 250.7 68.9 250.6 71.7V71.8C250.5 74.5 248.4 76.6 245.7 76.7H243V82.6H239.7ZM247.5 71.5C247.6 70.4 246.8 69.3 245.7 69.2H242.9V73.9H245.3C246.4 73.9 247.4 73 247.4 71.9V71.8C247.5 71.7 247.5 71.6 247.5 71.5ZM254.2 76.9V66.3H257.5V77C257.3 78.5 258.4 79.9 259.9 80.1C261.4 80.3 262.8 79.2 263 77.7V66.3H266.3V77C266.2 80.3 263.5 83 260.2 83C256.9 83 254.2 80.3 254.2 77V76.9ZM270.1 82.6V66.3H276.9C279.1 66.1 281 67.7 281.2 69.8V70.5C281.3 72.2 280.2 73.8 278.5 74.3C280.3 74.8 281.5 76.4 281.4 78.3C281.6 80.5 280 82.5 277.8 82.7H277L270.1 82.6ZM277.9 71C278 70.1 277.4 69.3 276.5 69.2H273.4V72.9H276.1C277 73 277.8 72.3 277.9 71.4V71ZM278.1 77.7C278.2 76.7 277.5 75.8 276.5 75.7H273.2V79.7H276.1C277 79.8 277.9 79.1 278 78.2V78.1C278.2 78 278.2 77.9 278.1 77.7ZM285.1 82.6V66.3H288.4V79.8H293.9V82.7L285.1 82.6ZM297.3 82.6V66.3H300.6V82.7L297.3 82.6ZM304.2 74.4C304.2 69.4 306.9 65.9 311.2 65.9C313.7 65.9 315.9 67.5 316.7 69.8L314 71C313.7 69.7 312.6 68.8 311.3 68.8C309 68.8 307.7 71.1 307.7 74.4C307.7 77.7 309.1 80 311.3 80C312.6 79.9 313.8 78.9 314.1 77.6L316.8 78.8C316.1 81.2 313.8 82.9 311.3 82.9C306.9 82.9 304.2 79.4 304.2 74.4ZM335.4 82.6V75.6H329.9V82.6H326.6V66.3H329.9V72.8H335.4V66.3H338.7V82.7L335.4 82.6ZM342.6 82.6V66.3H352V69.2H345.9V72.9H351.8V75.6H345.9V79.6H352V82.5L342.6 82.6ZM365.1 82.6L364.3 79.7H359.2L358.4 82.6H354.8L359.7 66.2H363.7L368.6 82.6H365.1ZM361.7 69.7L359.8 76.8H363.6L361.7 69.7ZM371.5 82.6V66.3H374.8V79.8H380.3V82.7L371.5 82.6ZM384.8 82.6V69.1H381.1V66.3H391.7V69.2H388V82.7L384.8 82.6ZM404 82.6V75.6H398.5V82.6H395.2V66.3H398.5V72.8H404V66.3H407.3V82.7L404 82.6Z" fill="#9A2923"/>
<path d="M66.1 8.49998C66.4 8.09998 67 7.99997 67.4 8.39997L67.5 8.49998C67.8 8.89998 67.2 10.2 67.8 10.5H68.8C69 10.5 69.1 10.5 69.2 10.6C69.5 10.7 69.5 11.2 69.3 11.5C69.2 11.6 69 11.8 68.9 11.8H68.1C67.8 11.8 67.5 12.7 67.5 13.4C67.4 14.8 67.4 16.1 67.5 17.5C67.5 18.2 68.3 17.8 68.9 17.9C69 18 69.3 18.2 69.3 18.3C69.6 19.7 67.6 18.6 67.3 19.4C67 20.2 67.4 20.7 67.3 21.2C67.2 21.5 66.9 21.8 66.6 21.6H59.4C59.1 21.5 59.1 21.3 59.1 21C59.1 20.8 59.2 20.7 59.4 20.7H64.6C65.2 20.8 65.8 20.7 66.3 20.4V9.39997C66.2 9.29997 66.1 8.89998 66.1 8.49998ZM66.1 8.49998C66 8.69998 66 8.59998 66.1 8.49998ZM41.8 8.69998C42.1 8.29998 42.7 8.19998 43.1 8.59998L43.2 8.69998C43.5 9.09998 42.9 10.4 43.5 10.7H44.5C44.7 10.7 44.8 10.7 44.9 10.8C45.2 10.9 45.2 11.4 45 11.7C44.8 12 44.8 12 44.6 12H43.8C43.5 12 43.2 12.9 43.2 13.6C43.1 15 43.1 16.3 43.2 17.7C43.2 18.4 44 18 44.6 18.1C44.9 18.2 45 18.4 45 18.5C45.3 19.9 43.3 18.8 43 19.6C42.7 20.4 43.1 20.9 43 21.4C42.9 21.7 42.6 22 42.3 21.8H37.1C36.9 21.7 36.8 21.5 36.8 21.2C36.8 21 36.9 20.9 37.1 20.9H40.4C41 21 41.6 20.9 42.1 20.6V9.49998C42 9.19998 41.9 8.89998 41.8 8.69998ZM41.8 8.69998C41.6 8.59998 41.6 8.49998 41.8 8.69998ZM0 3.09998V27.6C0.3 53.4 13.3 75.6 36.4 90.3L36.8 90.6L37.2 90.3C60.3 75.6 73.3 53.3 73.6 27.6V3.09998H0ZM36.8 88.5C14.6 74.2 2.1 52.7 1.6 27.9H72C71.5 52.7 59 74.2 36.8 88.5ZM72.2 26.3H1.7V4.69998H72.2V26.3ZM4.8 17.7C3.8 17.6 3.1 17.8 3.3 19C3.4 19.7 3.9 19.9 4.8 19.7C5 19.7 5.2 19.9 5.2 20.1V22.1C5.9 22.5 6.7 22.6 7.5 22.4H12.5L12.9 22.8C13.3 22.9 13.8 22.9 14.2 22.8H14.5C14.9 22.6 15.3 22.6 15.8 22.7H20.3C20.8 22.8 21.4 22.8 21.9 22.6C22 21.9 22 21.3 21.9 20.6C21.9 20.5 21.9 20.2 22.2 20.2H22.9C24.3 20.2 24.2 18.9 23.5 18.3C22.8 17.7 22.1 18.4 21.9 17.7V13.7C21.8 13.3 21.8 12.9 21.9 12.6C22.9 12.6 23.5 12.6 23.7 11.9C23.8 11.3 23.5 10.7 23 10.5H22.3C21.9 10.5 22 10.5 22 10.4V10.3C22.1 9.69998 22 9.09998 21.9 8.49998C21.1 8.19998 20.3 8.19997 19.5 8.39997C19.2 7.99997 18.8 8.29997 18.2 8.39997H15.7C15.1 8.39997 14.5 8.49998 14 8.79998C13.8 8.79998 13.6 8.89998 13.4 9.09998C13 8.79998 12.6 8.49997 12.1 8.39997H9.1C8.8 7.99997 8.3 7.99998 7.9 7.89998C7.8 7.99998 7.6 7.99998 7.5 8.19998H5.4C4.7 8.49998 5.5 10.2 4.8 10.6C3.8 10.6 3.4 10.6 3.3 11.5C3 12.6 4.2 12.6 5.3 12.8V15.2C5.5 16 5.4 16.9 4.8 17.7ZM12.6 20.7H12.5C10.8 20.6 9.5 20.8 7.7 20.7C7.3 20.1 8.1 19.6 8.7 19.6C9.9 19.8 11.1 19.8 12.2 19.7C12.5 19.7 12.8 19.8 13 20C13.2 20.4 12.8 20.4 12.6 20.7ZM20.3 8.69998C20.6 8.29998 21.2 8.19998 21.6 8.59998L21.7 8.69998C22 9.09998 21.4 10.4 22 10.7H23C23.2 10.7 23.3 10.7 23.4 10.8C23.7 10.9 23.7 11.4 23.5 11.7C23.3 12 23.2 12 23.1 12H22.2C21.9 12 21.6 12.9 21.6 13.6C21.5 15 21.5 16.3 21.6 17.7C21.6 18.4 22.5 18 23 18.1C23.1 18.2 23.4 18.4 23.4 18.5C23.7 19.9 21.7 18.8 21.4 19.6C21.1 20.4 21.5 20.9 21.4 21.4C21.3 21.7 21 22 20.7 21.8H15C14.7 21.7 14.7 21.5 14.7 21.2C14.7 21 14.8 20.9 15 20.9H19C19.6 21 20.2 20.9 20.7 20.6V9.49998C20.7 9.19998 20.5 8.79998 20.3 8.69998ZM19.4 9.09998C19.4 8.99998 19.4 8.99998 19.5 8.79998C19.6 8.59998 19.8 8.99998 20 9.09998C20.2 9.19998 20.3 9.49998 20.4 9.69998C20.5 10.6 20.5 11.5 20.4 12.4V13.7C20.5 15.7 20.4 19.6 20.4 20.1C20.4 20.6 20.4 20.4 20.3 20.2C20 19.8 19.8 19.4 19.6 18.9C19.4 14.6 19.5 12.9 19.4 9.09998ZM19.7 20.1C19.8 20.2 20 20.4 20 20.5C20 20.9 19 20.8 18.6 20.8H14.8C14.6 20.6 14.5 20.3 14.7 20.1L14.8 20C15.2 19.4 17.8 20 19.1 19.6C19.3 19.6 19.6 19.8 19.7 20.1ZM13.9 14.5V9.29998C13.9 8.99998 14 8.79998 14.2 8.59998C14.5 8.39998 14.8 8.19998 15.2 7.99998C16.1 7.99998 17.1 7.99998 18 8.09998H18.6C18.9 8.09998 19 8.39998 19.2 8.69998V19.2C18.8 19.4 18.3 19.5 17.8 19.5H15.2C15 19.5 14.8 19.6 14.6 19.8C14.5 19.9 14.3 19.9 14 19.9C13.9 19.4 13.9 18.9 14 18.5C13.9 17 13.9 15.3 13.9 14.5ZM14.4 21.1C14.5 21.2 14.5 21.4 14.5 21.7C14.5 22 14.4 22.2 14.2 22.4C14.1 22.5 13.9 22.7 13.8 22.7H13.2C13.1 22.7 12.9 22.6 12.8 22.4C12.7 22.2 12.5 22.1 12.5 22V21.6C12.5 21.2 12.7 20.9 13.1 20.7C13.4 20.5 13.9 20.5 14.2 20.9L14.3 21C14.4 21 14.4 21.1 14.4 21.1ZM8.2 17.8V8.49998C8.4 8.29998 8.6 8.19998 8.9 8.19998H10.3C10.6 8.19998 10.9 8.29998 11.2 8.29998C11.4 8.29998 11.6 8.29998 11.8 8.19998C12.5 8.19998 13.2 8.49998 13.7 9.09998V16.6C13.8 17.6 13.7 18.7 13.6 19.7C13.2 19.7 12.8 19.6 12.5 19.4C11.5 19.3 10.4 19.5 9.4 19.4C9.1 19.4 8.8 19.3 8.6 19.1C8.2 18.7 8.2 18.3 8.2 17.8ZM7.5 8.79998C7.6 8.79998 7.8 8.79997 7.8 8.89997V16.3C7.9 17.3 7.8 18.4 7.5 19.4C7.4 19.7 7.1 19.9 6.8 20C6.7 17.6 6.8 15.3 6.8 13.6V10.6C6.7 9.89998 7 9.19998 7.5 8.79998ZM5.5 17.6V15C5.6 14 5.5 13 5.4 12C5 11.6 4.1 12.3 3.7 11.6C3.5 11.2 3.7 10.8 4.1 10.6H4.3C4.9 10.5 5.3 10.9 5.4 10.3V8.79998C5.4 8.59998 5.5 8.39997 5.7 8.39997H5.8C6.2 8.29997 6.6 8.39998 6.9 8.69998C6.9 8.79998 6.8 8.99998 6.8 9.09998C6.8 9.19998 6.7 9.29998 6.5 9.29998C6.4 10.1 6.4 10.9 6.5 11.7V18.6C6.5 19.3 6.2 20.9 6.8 21C7.3 21.1 7.8 21.1 8.4 21H11.8C12 21 12.2 21.1 12.4 21.3C12.5 21.6 12.4 21.7 12.3 21.9H6C5.7 21.7 5.6 21.3 5.7 20.9C5.7 20.2 6 19.5 5.4 19.2H4.4C4.1 19.2 3.9 18.9 3.8 18.6C3.8 18.4 3.9 18.2 4.1 18H4.7C5 18 5.6 18.3 5.5 17.6ZM8.8 11.9V11.6H10.9V12H10.8C10.5 12 10.4 12 10.4 12.3V12.7L11.3 15.4L12.2 12.4V12.1C12.2 11.8 12.1 11.8 11.8 11.8V11.5H13.4V12C13.3 12 13 12.1 13 12.3C12.9 12.6 12.9 12.7 12.7 13L11.6 17.3H11.2L9.8 12.9C9.2 12 9.2 12 8.8 11.9ZM52.5 13H52.2V11.3H52.5C52.5 11.4 52.6 11.4 52.8 11.4H55.8C55.9 11.4 55.9 11.4 55.9 11.3H56.2V13C56.1 12 56.1 12 55.6 12H55V15.8C55 16.4 55 16.5 55.4 16.5H55.5V17H53.2V16.7H53.3C53.7 16.7 53.7 16.7 53.7 16V12H53C52.7 12 52.7 12 52.5 13ZM18 17H14.6V16.7H14.9C15.2 16.7 15.3 16.7 15.3 16V12.7C15.3 12 15.3 12 14.9 12V11.6H18.2V12.9H17.9C17.9 12.2 17.8 12.2 17.5 12.2H16.4V14.2H17.3C17.7 14.2 17.7 14.2 17.7 13.6H18V15.4H17.7V15.1C17.7 14.7 17.7 14.5 17.3 14.5H16.4V15.6C16.2 15.8 16.2 16.1 16.4 16.3H17.4C17.8 16.3 18 16.2 18.1 15.4H18.4L18 17ZM63.2 15.9C63.2 15.5 63 15.1 62.6 14.9L62.3 14.6C62 14.4 61.8 14.2 61.7 13.9C61.5 13.6 61.4 13.2 61.4 12.9C61.3 12.2 61.7 11.6 62.4 11.5H62.8C63.1 11.5 63.4 11.6 63.6 11.6H63.7L63.8 13H63.7C63.7 12.4 63.3 12 62.7 11.9C62.4 11.9 62.1 12.2 62.1 12.5C62.1 12.9 62.4 13.2 62.7 13.4H62.8L63.1 13.5L63.5 13.8C63.9 14.2 64.2 14.8 64.2 15.4C64.3 16.2 63.7 17 62.9 17.1C62.7 17.1 62.4 17.1 62.2 17H62H61.7L61.6 15.3H61.9C61.9 15.9 62.3 16.4 62.9 16.6C63.1 16.4 63.2 16.1 63.2 15.9ZM48.2 17.7C47.2 17.6 46.5 17.8 46.6 19C46.7 19.7 47.2 19.9 48.2 19.7C48.4 19.7 48.6 19.9 48.6 20.1V22.1C49.3 22.5 50.1 22.6 50.9 22.4H56.9L57.3 22.8C57.7 22.9 58.2 22.9 58.6 22.8H58.9C59.3 22.6 59.7 22.6 60.1 22.6H66.2C66.7 22.7 67.3 22.7 67.8 22.5C67.9 21.8 67.9 21.2 67.8 20.5C67.8 20.4 67.8 20.1 68.1 20.1H68.8C70.2 20.1 70.1 18.8 69.4 18.2C68.7 17.6 68 18.3 67.8 17.6V13.6C67.7 13.2 67.7 12.8 67.8 12.5C68.8 12.5 69.4 12.5 69.6 11.8C69.7 11.2 69.4 10.6 68.9 10.4H68C67.6 10.4 67.7 10.4 67.7 10.3V10.2C67.8 9.59998 67.7 8.99997 67.6 8.39997C66.8 7.99997 66 7.99998 65.2 8.19998C64.9 7.79998 64.5 8.09998 63.9 8.19998C62.6 8.29998 61.2 8.29998 59.9 8.19998C59.3 8.19998 58.7 8.39998 58.2 8.59998C58 8.59998 57.8 8.69997 57.6 8.89997C57.2 8.59997 56.8 8.29998 56.3 8.19998C55.5 7.89998 53.5 8.19998 52.3 8.19998C51.9 7.99998 51.5 7.99998 51.1 7.89998C50.9 7.99998 50.8 7.99998 50.6 8.19998H48.5C47.8 8.49998 48.7 10.2 47.9 10.6C46.9 10.6 46.3 10.6 46.3 11.5C46 12.8 47.1 12.8 48.1 12.8V15.2C48.5 15.9 48.5 16.8 48.2 17.7ZM56.9 20.7H56.6C54.9 20.6 52.6 20.8 50.8 20.7C50.4 20.1 51.4 19.6 51.8 19.6C53.3 19.8 54.8 19.8 56.3 19.7C56.6 19.7 56.9 19.8 57.1 20C57.4 20.4 57 20.4 56.9 20.7ZM58.6 22.3C58.5 22.4 58.3 22.6 58.2 22.6H57.6C57.4 22.6 57.3 22.5 57.3 22.3C57.2 22.2 57 22 57 21.9V21.5C57 21.1 57.2 20.8 57.6 20.6C58 20.4 58.4 20.4 58.7 20.7L58.8 20.8C58.9 20.9 58.9 21.1 58.9 21.4C59 21.7 58.8 22 58.6 22.3ZM65.3 8.99998C65.3 8.89998 65.3 8.69998 65.5 8.69998C65.6 8.69998 65.8 8.79998 65.9 8.99998C66 9.19998 66.2 9.39998 66.3 9.59998C66.4 10.5 66.4 11.4 66.3 12.3V13.6C66.4 15.6 66.3 19.5 66.3 20C66.3 20.5 66.3 20.3 66.1 20.1C65.8 19.7 65.6 19.3 65.4 18.8C65.2 14.6 65.3 12.9 65.3 8.99998ZM65.4 20C65.5 20.1 65.7 20.3 65.7 20.4C65.7 20.8 64.7 20.7 64.3 20.7H58.9C58.7 20.5 58.6 20.2 58.8 19.9L58.9 19.8C59.3 19.2 63.3 19.8 64.7 19.4C65 19.5 65.3 19.7 65.4 20ZM51.5 17.8V8.49998C51.7 8.29998 51.9 8.19998 52.2 8.19998H53.5C53.9 8.19998 55.1 8.29998 55.5 8.29998C55.9 8.29998 55.8 8.29998 56.1 8.19998C56.8 8.19998 57.5 8.49998 57.9 9.09998V10.2H58.2V9.49998C58.2 9.29998 58.3 9.09997 58.5 8.89997C58.8 8.69997 59.1 8.49998 59.5 8.29998C60.3 8.19998 62.9 8.29998 63.9 8.29998H64.5C64.8 8.29998 64.9 8.59997 65.1 8.89997V19.4C64.7 19.6 64.2 19.7 63.7 19.7H59.6C59.4 19.7 59.2 19.8 59 20C58.9 20.1 58.7 20.1 58.4 20.1C58.3 19.6 58.3 19.1 58.4 18.7H58C58 19.1 58 19.6 57.9 20C57.5 20 57.1 19.9 56.8 19.7C55.8 19.6 53.7 19.8 52.7 19.7C52.4 19.7 52.1 19.6 51.9 19.4C51.4 19 51.4 18.4 51.5 17.8ZM50.8 8.79998C50.9 8.79998 51.1 8.79997 51.1 8.89997V16.3C51.2 17.3 51.1 18.4 50.8 19.4C50.7 19.7 50.4 19.9 50.1 20C50 17.6 50.1 15.3 50.1 13.6V10.6C50 9.89998 50.3 9.19998 50.8 8.79998ZM48.8 17.6V15C48.9 14 48.8 13 48.7 12C48.3 11.6 47.4 12.3 47 11.6C46.8 11.2 47 10.8 47.3 10.6H47.7C48.3 10.5 48.7 10.9 48.8 10.3V8.79998C48.8 8.59998 48.9 8.39997 49.1 8.39997H49.2C49.6 8.29997 50 8.39998 50.3 8.69998C50.3 8.79998 50.2 8.99998 50.2 9.09998C50.2 9.19998 50.1 9.29998 50 9.29998C49.9 10.1 49.9 10.9 50 11.7V18.6C50 19.3 49.7 20.9 50.3 21C50.8 21.1 51.3 21.1 51.9 21H56.2C56.4 21 56.6 21.1 56.8 21.3C56.9 21.6 56.8 21.7 56.6 21.9H49.4C49 21.7 48.9 21.3 49 21C49 20.3 49.3 19.6 48.7 19.3H47.7C47.4 19.3 47.2 19 47.1 18.7C47.1 18.5 47.2 18.3 47.4 18.1C47.6 18 47.7 18 48 18C48.3 18 48.7 18.3 48.8 17.6ZM58 16.6C57.4 16.6 57.4 16.5 57.4 16.3V16L57.7 15H59L59.3 16V16.4C59.3 16.5 59.3 16.7 59.1 16.7H58.7V17.1H60.7V16.7C60.4 16.6 60.2 16.3 60.1 16L59 11.6H58V11.9L57 16C56.9 16.6 56.7 16.9 56.4 16.9V17.3H58.1V16.6H58ZM58.3 12.6L58.9 14.4H57.9L58.3 12.6ZM61.3 52.3C60.6 51.7 59.6 51.3 59.3 51C59 50.5 58.9 49.9 58.7 49.3C58.4 48.8 58.2 48.4 57.9 47.9C57.3 47.1 55.9 46.2 55.5 46.9C55.1 47.8 54.5 48.6 53.8 49.3C53 49.9 52.2 50.4 51.3 50.7C47.9 51 44.4 51 41 50.9C40.6 50.8 40.4 50.4 40.4 50.1C40.3 47.2 40.4 44.2 40.7 41.3C41.2 40.4 41.9 39.6 42.7 39C43.7 38 45.2 37.7 45.2 37C44.7 36 43.9 35.2 42.9 34.7C41.8 34.1 40.5 34.1 40.1 33.9C39.5 33.2 39 32.5 38.5 31.6C38 30.9 37.3 30.3 36.7 29.8C36 30.3 35.4 31 34.9 31.6C34.4 32.4 33.9 33.2 33.3 33.9C32.9 34.2 31.6 34.2 30.5 34.7C29.5 35.2 28.7 36 28.2 37C28.2 37.7 29.9 37.8 30.9 38.7C31.8 39.2 32.5 40 32.9 41C33.2 44 33.2 47 33.2 49.8C33.3 50.2 33 50.6 32.6 50.6C29.2 50.8 25.7 50.7 22.3 50.5C21.4 50.2 20.5 49.7 19.8 49.1C19.1 48.4 18.5 47.6 18.1 46.7C17.8 46 16.4 47 15.7 47.7C15.4 48.1 15.1 48.7 14.8 49.1C14.7 49.7 14.5 50.3 14.2 50.8C13.9 51.1 12.9 51.5 12.2 52.1C11.3 52.7 10.7 53.6 10.2 54.5C10.7 55.2 11.3 55.9 12 56.3C12.8 56.7 13.5 57.1 14.3 57.6C14.5 58.4 14.8 59.2 15.2 60C15.8 60.9 16.5 61.7 17.5 62.3C18.2 62.6 18.6 62.6 18.8 62.3C19 62 19.7 60.7 19.9 60C20.5 59.1 21.3 58.3 22.3 57.7C23.3 57.3 24.4 57.1 25.4 57.1H32.2C32.8 57.1 33.2 57.5 33.2 58.1V70C33.2 71.3 32.7 72.6 31.8 73.5C30.8 74.5 29.5 75.3 28.1 75.7C27.5 75.8 28.1 76.4 28.4 76.8C28.9 77.4 29.6 77.9 30.2 78.4C31.1 78.8 32 79.2 32.9 79.4C33.6 79.8 34.1 80.5 34.2 81.2C34.8 82.4 35.6 83.4 36.6 84.2C37.6 83.4 38.4 82.4 39 81.2C39.2 80.5 39.7 79.8 40.3 79.4C41.2 79.2 42.1 78.9 43 78.4C43.7 78 44.3 77.4 44.8 76.8C45.1 76.4 45.6 75.8 45.1 75.7C43.7 75.3 42.4 74.5 41.4 73.4C40.6 72.4 40.1 71.2 40 69.9V58.2C40 57.7 40.5 57.2 41 57.2H47.8C48.9 57.2 49.9 57.4 50.9 57.8C51.9 58.4 52.7 59.1 53.3 60C53.7 60.7 54.3 62 54.4 62.3C54.5 62.6 55 62.4 55.7 62.3C56.6 61.7 57.4 61 58 60C58.3 59.2 58.6 58.4 58.8 57.6C59.6 57.2 60.3 56.8 61 56.4C61.7 55.9 62.4 55.3 62.8 54.6C62.4 53.8 61.9 53 61.3 52.3ZM17.1 49.8C17.3 49.5 17.5 49.2 17.8 49H18.1C18.4 49.3 18.5 49.6 18.8 49.8C19 50.3 19.1 50.7 19.1 51.2C19.1 51.8 19 52.3 18.8 52.9C18.7 53.3 18.6 53.6 18.5 54C18.4 54.3 18.4 54.7 18.2 55V55.6L18.1 55.7H18V55.1C18 54.8 17.9 54.4 17.7 54.1C17.6 53.7 17.5 53.4 17.4 53C17.2 52.4 17.1 51.9 17.1 51.3C16.9 50.9 16.9 50.3 17.1 49.8ZM19.1 56.2C19.3 56.2 19.4 56.3 19.4 56.5C19.4 56.7 19.3 56.8 19.1 56.8H16.8C16.6 56.8 16.5 56.7 16.5 56.5C16.5 56.3 16.6 56.2 16.8 56.2H19.1ZM15.3 54.1H14.7C14.6 54.2 14.4 54.2 14.3 54.5C14.2 54.7 14.1 54.9 14.2 55.1C14.1 55 13.8 54.8 13.6 54.7C13.4 54.5 13.3 54.3 13.3 54C13.3 53.6 13.4 53.3 13.6 53C14 52.6 14.5 52.4 15 52.4C15.4 52.4 15.7 52.5 16 52.7C16.4 53 16.7 53.3 17 53.7C17.2 54 17.3 54.3 17.3 54.7C17.4 55 17.4 55.4 17.3 55.7C17.3 55.8 17.2 55.8 17 55.7V55.6C17 55.5 16.9 55.3 16.7 55.2C16.5 54.9 16.3 54.7 16 54.5C15.9 54.1 15.6 54 15.3 54.1ZM19.3 58.5C19 58.5 18.7 58.4 18.4 58.2V58.8C18.4 59 18.3 59.2 18.1 59.4H17.8C17.6 59.3 17.5 59.1 17.5 58.8V58.2C17.2 58.4 17 58.5 16.6 58.5C16.3 58.5 15.9 58.2 16 58.2L16.9 57.8C17 57.6 17.2 57.5 17.2 57.4H18.6C18.7 57.5 18.7 57.7 18.9 57.8C19.1 57.9 19.3 58.2 19.6 58.2C19.9 58.2 19.7 58.3 19.3 58.5ZM22.7 53.8C22.7 54.1 22.6 54.2 22.4 54.5C22.2 54.7 22 54.8 21.8 54.9C21.8 54.8 21.7 54.5 21.7 54.3L21.2 54H20.6C20.3 54 20 54.1 19.7 54.3C19.4 54.5 19.3 54.7 19 55C18.7 55.3 18.9 55.3 18.7 55.4V55.5C18.7 55.6 18.6 55.6 18.4 55.5V54.5C18.5 54.2 18.7 53.8 18.8 53.5C19 53.1 19.4 52.7 19.8 52.5C20.1 52.3 20.4 52.2 20.8 52.2C21.3 52.2 21.8 52.4 22.2 52.8C22.5 53.2 22.6 53.5 22.7 53.8ZM38.8 36C39.1 35.8 39.4 35.7 39.8 35.7C40.3 35.7 40.8 35.9 41.2 36.3C41.4 36.6 41.5 36.9 41.5 37.3C41.5 37.6 41.4 37.8 41.2 38C41 38.2 40.8 38.3 40.6 38.4C40.6 38.3 40.5 38 40.5 37.8L40.1 37.4H39.5C39.2 37.4 38.9 37.5 38.7 37.7C38.4 37.8 38.3 38.1 38 38.4C37.7 38.7 37.9 38.7 37.7 38.8V39C37.7 39.1 37.6 39.1 37.4 39V38C37.5 37.7 37.5 37.3 37.7 37C38 36.6 38.4 36.3 38.8 36ZM37.1 77V77.6C37.1 77.7 37 77.7 37 77.7C36.9 77.7 36.9 77.6 36.9 77.6V77C36.9 76.7 36.8 76.3 36.8 76C36.7 75.6 36.6 75.2 36.4 74.9C36.2 74.3 36.1 73.8 36.1 73.2C36.1 72.7 36.2 72.2 36.4 71.8C36.6 71.5 36.9 71.3 37.2 71H37.5C37.8 71.3 37.9 71.6 38.2 71.8C38.4 72.3 38.5 72.7 38.5 73.2C38.5 73.8 38.4 74.3 38.2 74.9C38.1 75.2 38 75.6 37.9 75.9C37.3 76.2 37.1 76.6 37.1 77ZM38 78.2C38.1 78.2 38.4 78.2 38.4 78.5C38.4 78.8 38.4 78.9 38.1 78.9H35.7C35.6 78.9 35.3 78.9 35.3 78.6C35.3 78.3 35.3 78.2 35.6 78.2H38ZM37.4 58.3V58.9C37.4 59.1 37.3 59.3 37.1 59.5H36.8C36.6 59.4 36.5 59.2 36.5 58.9V58.3C36.2 58.5 36 58.5 35.7 58.6C35.4 58.6 35 58.3 35.1 58.3L35.9 57.9C36 57.8 36.2 57.6 36.2 57.5H38C38.1 57.6 38.1 57.8 38.3 57.9C38.5 58.1 38.8 58.3 39.1 58.3C39.2 58.3 38.9 58.6 38.5 58.6C38.2 58.6 37.8 58.5 37.4 58.3ZM38 56.9H35.7C35.5 56.9 35.4 56.8 35.4 56.6C35.4 56.4 35.5 56.3 35.7 56.3H38C38.2 56.2 38.4 56.3 38.4 56.5C38.5 56.7 38.4 56.8 38.3 56.9H38ZM37.2 55.1V55.7L37 55.8L36.9 55.7V55.1C36.9 54.8 36.8 54.4 36.6 54.1C36.5 53.7 36.4 53.4 36.3 53C36.1 52.4 36 51.9 36 51.3C36 50.8 36.1 50.3 36.3 49.9C36.5 49.6 36.8 49.3 37.1 49H37.4C37.7 49.3 37.8 49.6 38.1 49.8C38.3 50.3 38.4 50.7 38.4 51.2C38.4 51.8 38.3 52.4 38.1 52.9C38 53.3 37.9 53.6 37.8 54C37.3 54.4 37.3 54.7 37.2 55.1ZM37.3 41.6V42.2C37.3 42.4 37.2 42.6 37 42.8H36.7C36.4 42.7 36.3 42.4 36.3 42.1V41.5C36 41.7 35.8 41.8 35.5 41.8C35.2 41.8 34.8 41.5 34.9 41.5C35.2 41.4 35.4 41.2 35.6 41.1C35.7 41 35.9 40.8 35.9 40.7H37.6C37.7 40.8 37.7 41 37.9 41.1C38.1 41.2 38.5 41.5 38.7 41.5C38.9 41.5 38.6 41.8 38.1 41.8C37.8 41.8 37.6 41.7 37.3 41.6ZM35.3 39.9C35.3 39.8 35.4 39.6 35.7 39.6H38C38.1 39.6 38.3 39.7 38.4 39.9C38.5 40.1 38.3 40.2 38 40.2H35.7C35.4 40.2 35.3 40.1 35.3 39.9ZM36 33.3C36.2 33 36.4 32.7 36.7 32.5H37C37.3 32.8 37.4 33.1 37.7 33.3C37.9 33.7 38 34.2 38 34.7C38 35.3 37.9 35.8 37.7 36.4C37.6 36.8 37.5 37.1 37.4 37.5C37.2 37.8 37.2 38.2 37.1 38.5V39.1C37.1 39.2 37 39.2 37 39.2L36.9 39.1V38.5C36.9 38.1 36.8 37.8 36.6 37.5C36.3 36.9 36.5 36.9 36.3 36.4C36.1 35.8 36 35.3 36 34.7C35.9 34.2 35.9 33.7 36.1 33.3H36ZM33 38C32.9 38.2 32.8 38.4 32.8 38.6C32.7 38.4 32.4 38.3 32.2 38.2C32 38 31.9 37.8 31.9 37.5C31.9 37.2 32 36.8 32.2 36.5C32.6 36.2 33.1 36 33.6 35.9C34 35.9 34.3 36 34.6 36.2C35 36.5 35.3 36.8 35.6 37.2C35.8 37.5 35.9 37.9 35.9 38.2V39.2C35.9 39.3 35.8 39.3 35.6 39.2V39C35.6 38.9 35.5 38.7 35.3 38.6C35.1 38.3 34.9 38 34.6 37.9C34.4 37.6 34.1 37.5 33.8 37.5H33.2L32.8 37.9L33 38ZM33 54.6C32.9 54.8 32.8 55 32.8 55.2C32.7 55.1 32.4 54.9 32.2 54.8C32.1 54.5 32 54.3 32 54C32 53.7 32.1 53.3 32.3 53C32.7 52.7 33.2 52.5 33.7 52.4C34.1 52.4 34.4 52.5 34.7 52.7C35.1 53 35.4 53.3 35.7 53.7C35.8 54 36 54.4 36.1 54.7C36.2 55 36.2 55.4 36.1 55.7C36.1 55.8 36 55.8 35.8 55.7V55.6C35.7 55.5 35.7 55.3 35.5 55.2C35.3 54.9 35.1 54.7 34.8 54.5C34.4 54.2 33.9 54.1 33.4 54.2C33.3 54.2 33.1 54.3 33 54.5V54.6ZM34 75.9H33.4C33.3 76 33.2 76 33 76.3C32.9 76.5 32.8 76.7 32.8 76.9C32.7 76.8 32.4 76.6 32.2 76.5C32.1 76.3 32 76 32 75.8C32 75.5 32.1 75.1 32.3 74.8C32.7 74.4 33.2 74.2 33.7 74.2C34 74.2 34.4 74.3 34.7 74.5C35.1 74.8 35.4 75.1 35.7 75.5C35.9 75.8 36 76.2 36 76.5C36.1 76.8 36.1 77.2 36 77.5C36 77.6 35.9 77.6 35.7 77.5V77.4C35.7 77.3 35.6 77.1 35.4 77C35.2 76.7 35 76.5 34.7 76.3C34.5 76 34.3 75.9 34 75.9ZM38.1 80.4C37.8 80.4 37.5 80.3 37.3 80.1V80.7C37.3 80.9 37.2 81.1 37 81.3H36.7C36.5 81.2 36.4 81 36.4 80.7V80.1C36.1 80.3 35.9 80.3 35.6 80.4C35.3 80.4 34.9 80.1 35 80.1C35.3 80 35.5 79.9 35.7 79.7C35.8 79.5 36 79.4 36 79.3H37.7C37.8 79.4 37.8 79.6 38 79.7C38.2 79.8 38.6 80.1 38.8 80.1C38.6 80.3 38.4 80.4 38.1 80.4ZM41.1 74.9C41.3 75.2 41.4 75.5 41.4 75.9C41.4 76.2 41.3 76.4 41.1 76.6C40.9 76.8 40.7 76.9 40.5 77C40.5 76.9 40.4 76.6 40.4 76.4L39.9 76H39.3C39 76 38.7 76.1 38.5 76.3C38.2 76.4 38.1 76.7 37.8 77C37.5 77.3 37.7 77.3 37.5 77.4V77.5C37.5 77.6 37.4 77.6 37.2 77.6C37.1 77.6 37.1 77.5 37.1 77.5C37 77.2 37 76.8 37.1 76.5C37.2 76.2 37.2 75.8 37.4 75.5C37.6 75.1 38 74.7 38.4 74.5C38.7 74.3 39 74.2 39.4 74.2C40 74.2 40.6 74.4 41.1 74.9ZM41.5 53.8C41.5 54.1 41.4 54.2 41.2 54.5C41 54.7 40.8 54.8 40.6 54.9C40.6 54.8 40.5 54.5 40.5 54.3L40.1 54C39.6 53.8 39.1 53.9 38.7 54.3C38.4 54.5 38.3 54.7 38 55C37.7 55.3 37.9 55.3 37.7 55.4V55.5C37.7 55.6 37.6 55.6 37.4 55.5C37.2 55.2 37.2 54.8 37.4 54.5C37.5 54.2 37.5 53.8 37.7 53.5C37.9 53.1 38.3 52.7 38.7 52.5C39 52.3 39.3 52.2 39.7 52.2C40.2 52.2 40.7 52.4 41.1 52.8C41.3 53.1 41.5 53.5 41.5 53.8ZM54.7 49.8C54.9 49.5 55.1 49.2 55.4 49H55.7C56 49.3 56.1 49.6 56.4 49.8C56.6 50.2 56.7 50.7 56.7 51.2C56.7 51.8 56.6 52.3 56.4 52.9C56.3 53.3 56.2 53.6 56.1 54C56 54.3 56 54.7 55.8 55V55.6L55.6 55.7L55.5 55.6V55C55.5 54.7 55.4 54.3 55.2 54C55.1 53.6 55.1 53.3 54.9 52.9C54.7 52.3 54.6 51.8 54.6 51.2C54.5 50.8 54.5 50.3 54.7 49.8ZM56.7 56.2C56.8 56.2 57 56.3 57.1 56.5C57.2 56.7 57 56.8 56.7 56.8H54.4C54.3 56.8 54 56.7 54 56.5C54 56.3 54.1 56.2 54.4 56.2H56.7ZM52.8 54H52.2C52 54.1 51.9 54.1 51.8 54.4C51.7 54.6 51.6 54.8 51.7 55C51.6 54.9 51.3 54.7 51.1 54.6C50.9 54.5 51 54.2 50.8 53.9C50.8 53.6 50.9 53.2 51.1 52.9C51.5 52.6 52 52.4 52.5 52.3C52.9 52.3 53.2 52.4 53.5 52.6C53.9 52.9 54.2 53.2 54.5 53.6C54.7 53.9 54.8 54.3 54.8 54.6V55.6C54.8 55.7 54.7 55.7 54.5 55.6V55.5C54.3 55.1 54 54.7 53.7 54.4C53.5 54.1 53.2 54 52.8 54ZM56.9 58.4C56.6 58.4 56.3 58.3 56.1 58.1V58.7C56.1 58.9 56 59.1 55.8 59.3H55.5C55.3 59.2 55.2 59 55.2 58.7V58.1C54.9 58.3 54.7 58.4 54.4 58.4C54.1 58.4 53.7 58.1 53.8 58.1C54.1 58 54.3 57.8 54.5 57.7C54.6 57.6 54.8 57.4 54.8 57.3H56.5C56.7 57.4 56.7 57.6 56.8 57.7C56.9 57.8 57.2 58.1 57.5 58.1C57.8 58.1 57.2 58.4 56.9 58.4ZM59.9 54.6C59.7 54.8 59.6 54.9 59.3 55C59.3 54.9 59.1 54.6 59.1 54.4L58.8 54C58.3 53.9 57.8 54 57.4 54.3C57.1 54.5 56.9 54.7 56.8 55C56.7 55.1 56.7 55.3 56.5 55.4V55.5C56.5 55.6 56.4 55.6 56.2 55.5V54.5C56.3 54.2 56.3 53.8 56.5 53.5C56.7 53.1 57.1 52.7 57.5 52.5C57.8 52.3 58.1 52.2 58.5 52.2C59 52.2 59.5 52.4 59.9 52.8C60.2 53 60.3 53.4 60.2 53.8C60.2 54.1 60.2 54.4 59.9 54.6ZM26.6 17.7C25.6 17.6 24.9 17.8 25.1 19C25.2 19.7 25.7 19.9 26.6 19.7C26.8 19.7 27 19.9 27 20.1V22.1C27.7 22.5 28.5 22.6 29.3 22.4H34.4L34.8 22.8C35.2 22.9 35.7 22.9 36.1 22.8H36.2C36.6 22.6 37 22.6 37.5 22.7H41.8C42.3 22.8 42.9 22.8 43.3 22.6C43.5 21.9 43.5 21.3 43.3 20.6C43.3 20.5 43.5 20.2 43.6 20.2H44.3C45.7 20.2 45.6 18.9 44.9 18.3C44.2 17.7 43.5 18.4 43.3 17.7V13.7C43.2 13.3 43.2 12.9 43.3 12.6C44.3 12.6 44.9 12.6 45.1 11.9C45.2 11.3 44.9 10.7 44.4 10.5H43.6C43.3 10.5 43.3 10.5 43.3 10.4V10.3C43.4 9.69998 43.3 9.09998 43.2 8.49998C42.4 8.19998 41.6 8.19997 40.8 8.39997C40.5 7.99997 40.1 8.29997 39.5 8.39997H37.5C36.9 8.39997 36.3 8.49998 35.8 8.79998C35.6 8.79998 35.4 8.89998 35.2 9.09998C34.8 8.79998 34.4 8.59997 34 8.39997H31C30.6 8.29997 30.1 8.29998 29.7 8.09998C29.6 8.19998 29.4 8.19997 29.3 8.39997H27.2C26.5 8.69997 27.3 10.4 26.6 10.8C25.6 10.8 25.1 10.8 24.9 11.7C24.6 13 25.8 13 26.8 13V15.4C27 16 26.9 16.9 26.6 17.7ZM34.4 20.7H34.3C32.6 20.6 31.3 20.8 29.5 20.7C29.1 20.1 29.9 19.6 30.4 19.6C31.6 19.8 32.9 19.8 34.1 19.7C34.4 19.7 34.7 19.8 34.9 20C35 20.4 34.5 20.4 34.4 20.7ZM40.9 9.09998C40.9 8.99998 40.9 8.99998 41 8.79998C41.1 8.59998 41.3 8.89998 41.4 9.09998C41.5 9.29998 41.7 9.49998 41.8 9.69998C41.9 10.6 41.9 11.5 41.8 12.4V13.7C41.9 15.7 41.8 19.6 41.8 20.1C41.8 20.6 41.8 20.4 41.7 20.2C41.4 19.8 41.2 19.4 41 18.9C40.9 14.6 40.9 12.9 40.9 9.09998ZM41.1 20.1C41.2 20.2 41.4 20.4 41.4 20.5C41.4 20.9 40.4 20.8 40 20.8H36.6C36.4 20.6 36.3 20.3 36.5 20.1L36.6 20C37 19.4 39.1 20 40.6 19.6C40.8 19.6 41.1 19.8 41.1 20.1ZM35.7 14.5V9.29998C35.7 9.09998 35.8 8.79998 35.8 8.59998C36.1 8.39998 36.4 8.19998 36.8 7.99998C37.6 7.89998 38.5 7.89998 39.3 7.99998H39.9C40.2 7.99998 40.3 8.29998 40.5 8.59998V19.1C40.1 19.4 39.6 19.5 39.1 19.4H36.8C36.6 19.4 36.4 19.5 36.2 19.7C36.1 19.8 35.9 19.8 35.6 19.8C35.5 19.3 35.5 18.8 35.6 18.4V14.5H35.7ZM36.3 21.1C36.4 21.2 36.4 21.4 36.4 21.7C36.4 22 36.3 22.2 36.1 22.4C36 22.5 35.8 22.7 35.7 22.7H35.1C35 22.7 34.8 22.6 34.7 22.4C34.6 22.2 34.4 22.1 34.4 22V21.6C34.4 21.2 34.6 20.9 35 20.7C35.3 20.5 35.8 20.5 36.1 20.9C36.1 20.9 36.1 21 36.2 21C36.2 21 36.3 21 36.3 21.1ZM30 17.8V8.49998C30.2 8.29998 30.4 8.19998 30.7 8.19998H31.7C32.1 8.19998 32.5 8.29998 33.1 8.29998C33.3 8.29998 33.5 8.29998 33.7 8.19998C34.4 8.19998 35.1 8.49998 35.5 9.09998V16.6H35.4C35.3 16.6 35.3 16.5 35.1 16.3L34.7 15.4L34.5 15.1L34.1 14.2C34.6 13.9 35 13.4 35 12.8C35.1 12.2 34.8 11.7 34.3 11.4C33.9 11.3 33.6 11.2 33.2 11.1C32.7 11.1 32.2 11.1 31.6 11.2H31.5V11.6H31.6C31.9 11.6 32 11.6 32 12.3V15.6C32 16.3 32 16.3 31.6 16.3H31.5V16.7H33.6V16.4H33.5C33.2 16.4 33.1 16.4 33.1 15.7V14.6H33.5L33.9 15.5L34.2 15.9C34.3 16.3 34.6 16.7 34.9 16.9C35.2 17.1 35.5 17.2 35.9 17.2H36.2C36.3 18 36.2 18.9 36.1 19.7C35.7 19.6 35.3 19.6 35 19.3C34 19.2 32.7 19.4 31.9 19.3C31.6 19.3 31.3 19.2 31 19C30 18.7 30 18.3 30 17.8ZM33.7 13C33.9 13.5 33.6 14.1 33.1 14.3H32.6V11.9H32.7C33.3 11.9 33.7 12.3 33.7 12.9V13ZM29.3 8.59998C29.4 8.59998 29.6 8.59998 29.6 8.69998V16.1C29.7 17.1 29.6 18.2 29.3 19.2C29.2 19.5 28.9 19.7 28.6 19.8C28.5 17.4 28.6 15.1 28.6 13.4V10.4C28.5 9.79997 28.8 9.09998 29.3 8.59998ZM27.3 17.6V15C27.4 14 27.3 13 27.2 12C26.8 11.6 25.9 12.3 25.5 11.6C25.3 11.2 25.5 10.8 25.9 10.6H26.3C26.9 10.5 27.3 10.9 27.4 10.3V8.79998C27.4 8.59998 27.5 8.39997 27.7 8.39997H27.8C28.2 8.29997 28.6 8.39998 28.9 8.69998C28.9 8.89998 28.9 8.99998 28.8 9.09998C28.7 9.19998 28.7 9.39997 28.5 9.39997C28.4 10.2 28.4 11 28.5 11.8V18.7C28.5 19.4 28.2 21 28.8 21.1C29.3 21.2 29.8 21.2 30.4 21.1H33.8C34 21.1 34.2 21.2 34.4 21.4C34.5 21.7 34.4 21.8 34.3 22H28.1C27.8 21.9 27.8 21.4 27.8 21.1C27.8 20.4 28.1 19.7 27.5 19.4H26.5C26.2 19.4 26 19.1 25.9 18.8C25.9 18.6 26 18.4 26.2 18.2C26.3 18.1 26.5 18.1 26.8 18.1C27.1 18.1 27.3 18.3 27.3 17.6ZM39.1 17H37.3V16.7C37.6 16.7 37.7 16.7 37.7 16V12.7C37.7 12.1 37.7 12 37.3 12V11.6H39.1V12C38.8 12 38.7 12 38.7 12.7V16C38.7 16.7 38.7 16.7 39.1 16.7V17ZM134.7 50.5V31.2H120.7V50.5H109.3V3.29998H120.7V21.1H134.7V3.29998H146.1V50.5H134.7ZM183.6 50.5L181.8 43.3H168.1L166.3 50.5H153.8L168 3.29998H181.8L195.9 50.5H183.6ZM175 15.2L170.3 33.3H179.5L175 15.2ZM224.5 50.5L218.1 34.3H213.8V50.5H202.4V3.29998H221.7C229.8 2.99998 236.6 9.19996 237 17.3V18.6C237 26.6 232.8 30.6 229.3 32.3L237.3 50.6L224.5 50.5ZM225.3 18.9C225.6 16.2 223.6 13.7 220.8 13.4H213.9V24.5H220C222.7 24.7 225.1 22.6 225.3 19.8V18.9ZM255.5 50.5L241.5 3.29998H253.9L262.6 37L271.1 3.29998H283.3L269.2 50.5H255.5ZM310.9 50.5L309.1 43.3H295.4L293.6 50.5H281.2L295.2 3.09998H309L323.1 50.3L310.9 50.5ZM302.3 15.2L297.8 33.3H307L302.3 15.2ZM351.9 50.5L345.5 34.3H341.2V50.5H329.8V3.29998H349C357.1 2.99998 363.9 9.19996 364.3 17.3V18.6C364.3 26.6 360.1 30.6 356.6 32.3L364.6 50.6L351.9 50.5ZM352.6 18.9C352.9 16.2 350.9 13.7 348.1 13.4H341.2V24.5H347.3C350 24.7 352.4 22.6 352.6 19.8V18.9ZM373.6 50.5V3.29998H390.1C403.7 3.29998 411.6 12.9 411.6 26.9C411.6 40.9 404 50.5 390.3 50.5H373.6ZM399.9 26.9C399.9 18.1 396.5 13.2 390.1 13.2H385V40.5H390.1C396.2 40.5 399.9 35.2 399.9 26.9ZM107.3 80.8L108.9 78.2C109.9 79.3 111.4 80 112.9 80C113.9 80.2 114.8 79.6 115.1 78.6V78.2C115.1 75.3 107.8 76.3 107.8 70.8C107.9 68.1 110.1 65.9 112.8 66H113.2C115 66 116.8 66.6 118.2 67.8L116.6 70.3C115.7 69.4 114.4 68.9 113.1 68.9C112.1 68.8 111.3 69.5 111.1 70.4V70.6C111.1 73.2 118.4 72.4 118.4 77.9C118.4 80.8 116.5 82.9 112.8 82.9C110.8 83 108.8 82.2 107.3 80.8ZM120.4 74.4C120.4 69.4 123.1 65.9 127.4 65.9C129.9 65.9 132.1 67.5 132.9 69.8L130.2 71C129.9 69.7 128.8 68.8 127.5 68.8C125.2 68.8 123.9 71.1 123.9 74.4C123.9 77.7 125.3 80 127.5 80C128.8 79.9 130 78.9 130.3 77.6L133 78.8C132.3 81.2 130 82.9 127.5 82.9C123.1 82.9 120.4 79.4 120.4 74.4ZM144.4 82.6V75.6H138.9V82.6H135.6V66.3H138.9V72.8H144.4V66.3H147.7V82.7L144.4 82.6ZM150.8 74.4C150.8 69.5 153.4 65.9 157.7 65.9C162 65.9 164.6 69.5 164.6 74.4C164.6 79.3 162 82.9 157.7 82.9C153.4 82.9 150.8 79.3 150.8 74.4ZM161.2 74.4C161.2 71.3 160 68.8 157.7 68.8C155.4 68.8 154.3 71.2 154.3 74.4C154.3 77.6 155.5 80 157.8 80C160.1 80 161.2 77.6 161.2 74.4ZM167.5 74.4C167.5 69.5 170.1 65.9 174.4 65.9C178.7 65.9 181.3 69.5 181.3 74.4C181.3 79.3 178.7 82.9 174.4 82.9C170.1 82.9 167.5 79.3 167.5 74.4ZM177.9 74.4C177.9 71.3 176.7 68.8 174.4 68.8C172.1 68.8 170.9 71.2 170.9 74.4C170.9 77.6 172.1 80 174.4 80C176.7 80 177.9 77.6 177.9 74.4ZM184.8 82.6V66.3H188.1V79.8H193.6V82.7L184.8 82.6ZM202.9 74.4C202.9 69.5 205.5 65.9 209.8 65.9C214.1 65.9 216.7 69.5 216.7 74.4C216.7 79.3 214.1 82.9 209.8 82.9C205.5 82.9 202.9 79.3 202.9 74.4ZM213.3 74.4C213.3 71.3 212.1 68.8 209.8 68.8C207.5 68.8 206.3 71.2 206.3 74.4C206.3 77.6 207.5 80 209.8 80C212.1 80 213.3 77.6 213.3 74.4ZM220.2 82.6V66.3H229.6V69.2H223.5V72.9H229.4V75.6H223.5V82.5L220.2 82.6ZM239.7 82.6V66.3H245.7C248.6 66.4 250.7 68.9 250.6 71.7V71.8C250.5 74.5 248.4 76.6 245.7 76.7H243V82.6H239.7ZM247.5 71.5C247.6 70.4 246.8 69.3 245.7 69.2H242.9V73.9H245.3C246.4 73.9 247.4 73 247.4 71.9V71.8C247.5 71.7 247.5 71.6 247.5 71.5ZM254.2 76.9V66.3H257.5V77C257.3 78.5 258.4 79.9 259.9 80.1C261.4 80.3 262.8 79.2 263 77.7V66.3H266.3V77C266.2 80.3 263.5 83 260.2 83C256.9 83 254.2 80.3 254.2 77V76.9ZM270.1 82.6V66.3H276.9C279.1 66.1 281 67.7 281.2 69.8V70.5C281.3 72.2 280.2 73.8 278.5 74.3C280.3 74.8 281.5 76.4 281.4 78.3C281.6 80.5 280 82.5 277.8 82.7H277L270.1 82.6ZM277.9 71C278 70.1 277.4 69.3 276.5 69.2H273.4V72.9H276.1C277 73 277.8 72.3 277.9 71.4V71ZM278.1 77.7C278.2 76.7 277.5 75.8 276.5 75.7H273.2V79.7H276.1C277 79.8 277.9 79.1 278 78.2V78.1C278.2 78 278.2 77.9 278.1 77.7ZM285.1 82.6V66.3H288.4V79.8H293.9V82.7L285.1 82.6ZM297.3 82.6V66.3H300.6V82.7L297.3 82.6ZM304.2 74.4C304.2 69.4 306.9 65.9 311.2 65.9C313.7 65.9 315.9 67.5 316.7 69.8L314 71C313.7 69.7 312.6 68.8 311.3 68.8C309 68.8 307.7 71.1 307.7 74.4C307.7 77.7 309.1 80 311.3 80C312.6 79.9 313.8 78.9 314.1 77.6L316.8 78.8C316.1 81.2 313.8 82.9 311.3 82.9C306.9 82.9 304.2 79.4 304.2 74.4ZM335.4 82.6V75.6H329.9V82.6H326.6V66.3H329.9V72.8H335.4V66.3H338.7V82.7L335.4 82.6ZM342.6 82.6V66.3H352V69.2H345.9V72.9H351.8V75.6H345.9V79.6H352V82.5L342.6 82.6ZM365.1 82.6L364.3 79.7H359.2L358.4 82.6H354.8L359.7 66.2H363.7L368.6 82.6H365.1ZM361.7 69.7L359.8 76.8H363.6L361.7 69.7ZM371.5 82.6V66.3H374.8V79.8H380.3V82.7L371.5 82.6ZM384.8 82.6V69.1H381.1V66.3H391.7V69.2H388V82.7L384.8 82.6ZM404 82.6V75.6H398.5V82.6H395.2V66.3H398.5V72.8H404V66.3H407.3V82.7L404 82.6Z" stroke="white"/>
</g>
<defs>
<clipPath id="clip0_7_8">
<rect width="412" height="91" fill="white"/>
</clipPath>
</defs>
</svg>
