<svg width="509" height="167" viewBox="0 0 509 167" fill="none" xmlns="http://www.w3.org/2000/svg">
<path d="M169.8 166.1V0H0V166.1H169.8Z" fill="#DC2020"/>
<path d="M340.4 166.1V0H169.8V166.1H340.4Z" fill="black"/>
<path d="M508.2 166.1V0H340.4V166.1H508.2Z" fill="#2586C8"/>
<path d="M102.67 128.07V77.77C102.67 70.37 101.27 64.97 98.37 61.47C95.47 57.97 90.87 56.37 84.37 56.37C80.97 56.47 77.77 57.37 74.77 58.87C71.67 60.27 68.87 62.47 66.77 65.17V128.17H46.47V40.67H61.17L64.97 48.87C70.47 42.47 78.67 39.27 89.57 39.27C99.97 39.27 108.17 42.37 114.17 48.57C120.17 54.77 123.17 63.47 123.17 74.57V128.17L102.67 128.07ZM253.47 129.77C266.77 129.77 277.37 125.87 285.07 118.17C292.77 110.47 296.67 99.47 296.67 85.17C296.67 54.47 282.77 39.17 254.87 39.17C247.87 38.97 241.07 41.57 236.07 46.47V40.67H215.67V151.27H235.97V125.97C241.47 128.57 247.47 129.87 253.47 129.77ZM248.97 56.57C258.37 56.57 265.07 58.67 269.17 62.87C273.27 67.07 275.27 74.37 275.27 84.67C275.27 94.37 273.17 101.37 269.17 105.87C265.07 110.37 258.37 112.57 248.97 112.57C244.27 112.67 239.67 111.07 236.07 108.07V62.27C239.37 58.67 244.07 56.67 248.97 56.57ZM448.27 59.77C444.67 57.47 440.57 56.27 436.37 56.37C431.67 56.37 427.47 58.47 423.87 62.77C420.17 67.17 418.17 72.77 418.37 78.47V128.07H397.97V40.67H418.37V49.07C424.07 42.57 431.57 39.27 441.07 39.27C447.97 39.27 453.27 40.37 456.97 42.47L448.27 59.77Z" fill="white"/>
</svg>
