<svg width="893" height="113" viewBox="0 0 893 113" fill="none" xmlns="http://www.w3.org/2000/svg">
<path d="M796.561 78.479C793.108 81.5005 785.339 87.9748 781.885 90.9963C778.864 88.4065 772.389 83.6586 768.505 80.6372V80.2054C769.8 79.7738 770.231 78.9107 770.231 76.3208V46.9697C767.21 44.8115 762.03 41.3583 758.577 39.2001L755.124 42.6534V77.6157L760.304 81.5005C760.304 81.5005 752.966 87.5433 749.513 90.5647C746.491 87.9749 742.175 84.5219 738.29 81.932V81.5005C739.585 81.0689 740.017 80.2055 740.017 77.6157V46.9697C736.995 44.8115 731.816 41.79 728.794 39.6319L724.91 42.6534V77.6157L730.089 81.5005C730.089 81.5005 722.751 87.1117 719.298 90.5647C715.845 87.5433 712.392 84.9535 708.076 81.932V81.5005C709.371 81.0689 710.234 79.3421 710.234 78.0472V43.0849L706.349 39.6319L702.033 43.5164L699.875 41.3583C703.328 38.7684 710.234 32.7256 714.55 28.4092L724.478 37.0419V39.6319L737.859 28.4092C742.175 31.4306 754.692 39.2001 754.692 39.2001L767.641 28.4092C771.958 31.4306 781.022 37.042 786.202 40.0634V40.4952C784.475 40.9268 784.475 43.0848 784.475 44.3797V75.8891L789.655 79.3423L793.54 75.8891L796.561 78.479ZM701.17 17.6183C697.717 22.3663 694.695 24.5246 689.084 24.5246C685.199 24.5246 683.041 23.2296 680.02 19.7765L675.703 23.6613L673.977 21.5031L688.652 8.98563C692.537 16.3234 696.853 17.6184 700.738 17.1868L701.17 17.6183Z" fill="black"/>
<path d="M705.918 78.0473C702.033 81.0687 694.695 87.5432 691.242 90.9963C687.789 87.9749 682.609 84.0903 678.293 80.6372V80.2054C679.588 79.7738 680.02 78.4789 680.02 76.7524V43.0849L676.135 39.6319L671.387 43.5165L669.66 41.7901C673.113 39.2003 680.02 32.7256 684.768 28.4092L696.422 38.7686V39.2001C695.127 39.6317 694.695 40.495 694.695 43.5165V75.8891L699.875 79.3424L704.191 75.4576L705.918 78.0473ZM468.95 78.0473C465.065 81.0687 457.727 87.5432 454.274 90.9963C450.821 87.9749 445.642 84.0903 441.325 80.6372V80.2054C442.62 79.7738 443.052 78.4789 443.052 76.7524V22.3665L439.167 18.9135L434.851 22.798L433.124 21.0716C436.577 18.4818 442.62 12.8705 447.368 8.55414L459.886 18.9135V19.345C458.591 19.7766 457.728 20.6399 457.728 23.6614V77.1842L462.907 80.6372L467.223 76.7524L468.95 78.0473ZM334.712 78.479C331.258 81.5005 323.057 87.9749 320.036 90.9963C317.015 88.4065 310.972 83.6587 307.087 80.6372V80.2054C308.382 79.7738 309.245 78.9107 309.245 76.3209V46.9697C306.224 44.8116 301.044 41.7901 297.591 39.6319C296.728 40.0635 294.138 42.2218 293.706 42.6534V77.6157L298.886 81.5005C298.886 81.5005 291.548 87.1117 288.095 90.5648C284.642 87.5433 281.189 84.9535 276.873 81.9321V81.5005C278.167 81.0689 279.031 79.3422 279.031 78.0473V43.0849L275.146 39.6319L271.261 43.0849L269.535 41.3583C272.988 38.7685 279.462 33.1574 284.21 28.841L294.138 37.4737V40.0634L307.518 28.841C311.835 31.8625 320.899 37.4738 326.079 40.4952V40.9268C324.352 41.3584 323.921 43.5167 323.921 44.8116V76.3209L329.1 79.7739L333.417 76.3209L334.712 78.479ZM872.529 82.3636V65.53C870.371 64.6667 868.212 63.3719 866.054 62.077L849.652 78.9106H850.084C852.674 77.6157 853.537 75.8891 858.716 75.8891C864.759 75.8891 869.939 79.7738 872.529 82.3636ZM889.363 30.5674C889.363 36.1787 882.888 43.9482 873.824 43.9482C868.212 43.9482 864.759 40.9268 861.738 37.4737H861.306V51.7176L869.076 55.6024L872.529 52.1492C876.414 54.3073 884.183 58.6238 888.068 60.3503V60.7819C887.204 61.2135 886.341 62.0768 886.341 63.8034V73.7309C886.341 75.0258 887.204 75.8892 888.068 76.3209V76.7524C879.435 80.2055 867.349 86.68 861.738 91.8596C858.716 88.8382 854.832 86.2484 849.22 86.2484C844.472 86.2484 842.314 87.9749 842.314 89.7015C842.314 90.5647 844.473 90.5647 844.473 91.8596C844.473 92.7229 844.041 93.1545 842.746 93.1545C841.451 93.1545 839.293 91.428 839.293 89.7015C839.293 85.8167 841.883 82.7954 848.357 76.3209L859.148 65.53C854.832 63.3718 848.357 60.3504 844.473 59.0555V58.6237C845.336 58.192 846.199 57.3289 846.199 56.034V46.9697C846.199 46.1065 845.767 44.3799 844.473 43.9482V43.5165C853.537 40.495 865.191 34.0207 871.665 29.7043C872.96 31.4309 877.277 34.8838 881.162 34.8838C884.615 34.8838 885.478 33.1574 885.478 31.8625C885.478 30.9993 884.183 30.9993 884.183 29.7043C884.183 28.8411 884.615 28.4092 885.478 28.4092C887.636 27.546 889.363 28.4092 889.363 30.5674Z" fill="black"/>
<path d="M826.344 53.4445C823.322 49.5598 817.711 42.6534 814.69 37.9055H814.258V60.7821L826.344 53.4445ZM840.156 48.2648L814.69 63.8036V74.5944C818.143 75.8893 824.617 78.9108 828.07 81.069L833.682 75.4578C835.408 73.7312 834.977 71.1414 837.566 71.1414C838.43 71.1414 839.293 72.4363 839.293 73.2996C839.293 74.1628 838.43 74.5946 837.998 75.0262L821.164 91.4283C815.553 87.9752 803.899 82.7954 797.856 80.2056V79.7741C798.719 79.3425 800.014 78.9109 800.014 76.3211V46.9699C800.014 44.3801 799.151 43.9483 797.856 43.5167V43.0851C806.489 40.4953 819.869 33.5891 825.912 29.2728C830.229 35.3156 835.84 43.0852 840.156 48.2648ZM656.28 79.3426V25.8197H653.69C649.805 25.8197 643.331 24.5249 639.014 23.23C626.497 25.3882 611.821 35.7473 611.821 55.1709C611.821 71.573 623.907 82.3638 641.172 82.3638C647.215 82.3638 652.395 81.5007 656.28 79.3426ZM670.955 11.5758C670.955 20.2085 665.344 24.5249 658.438 25.3882V78.0475C667.071 73.2995 668.365 68.5515 668.365 65.9617C668.365 65.5301 667.071 64.6668 667.071 63.8036C667.071 62.9403 667.934 62.5087 668.797 62.5087C669.66 62.5087 670.092 63.3719 670.092 65.0984C670.092 77.1842 658.006 94.018 632.108 94.018C612.685 94.018 596.282 79.3425 596.282 60.3505C596.282 33.1575 619.591 23.6615 635.993 22.7982C629.95 21.5033 620.454 19.3452 612.685 19.3452C603.62 19.3452 595.851 24.5248 595.851 29.2728C595.851 30.9993 597.577 31.4309 597.577 32.7258C597.577 33.5891 597.146 34.4524 596.282 34.4524C594.556 34.4524 593.693 32.726 593.693 31.8627C593.693 21.5035 601.462 6.82766 617.433 6.82766C633.835 6.82766 645.489 12.4391 658.438 12.4391C666.639 12.4391 669.229 9.41747 668.797 4.66949L670.524 5.10128C670.524 5.96455 670.955 8.55436 670.955 11.5758ZM545.781 82.3638V65.5302C543.623 64.6669 541.465 63.3721 539.307 62.0772L522.905 78.9108H523.336C525.926 77.6159 526.789 75.8893 531.969 75.8893C537.58 75.8893 543.191 79.774 545.781 82.3638ZM562.615 30.5676C562.615 36.1789 556.14 43.9485 547.076 43.9485C541.465 43.9485 538.012 40.927 534.99 37.4739H534.559V51.7178L542.328 55.6026L545.781 52.1494C549.666 54.3075 557.435 58.624 561.32 60.3505V60.7821C560.457 61.2137 559.593 62.077 559.593 63.8036V73.7311C559.593 75.026 560.457 75.8894 561.32 76.3211V76.7526C552.687 80.2057 540.601 86.6802 534.99 91.8598C531.969 88.8384 528.084 86.2486 522.473 86.2486C517.725 86.2486 515.567 87.9751 515.567 89.7017C515.567 90.5649 517.725 90.5649 517.725 91.8598C517.725 92.7231 517.293 93.1547 515.998 93.1547C514.703 93.1547 512.545 91.4282 512.545 89.7017C512.545 85.8169 515.135 82.7956 521.61 76.3211L532.4 65.5302C528.084 63.372 521.61 60.3506 517.725 59.0557V58.6239C518.588 58.1922 519.451 57.3291 519.451 56.0342V46.9699C519.451 46.1067 519.02 44.3801 517.725 43.9485V43.5167C526.789 40.4952 538.443 34.0209 544.918 29.7045C546.213 31.4311 550.529 34.884 554.414 34.884C557.867 34.884 558.73 33.1576 558.73 31.8627C558.73 30.9995 557.435 30.9995 557.435 29.7045C557.435 28.8413 557.867 28.4094 558.73 28.4094C560.888 27.5462 562.615 28.4094 562.615 30.5676Z" fill="black"/>
<path d="M500.028 53.4438C497.006 49.5591 491.395 42.6528 488.374 37.9048H487.942V60.7814L500.028 53.4438ZM513.408 48.2642L487.942 63.8029V74.5938C491.395 75.8887 497.87 78.9101 501.323 81.0683L506.934 75.4571C508.66 73.7306 508.229 71.1408 510.819 71.1408C511.682 71.1408 512.545 72.4357 512.545 73.2989C512.545 74.1622 511.682 74.5939 511.25 75.0256L494.417 91.4277C488.805 87.9746 477.151 82.7948 471.108 80.205V79.7735C471.972 79.3418 473.266 78.9102 473.266 76.3204V46.9693C473.266 44.3795 472.403 43.9476 471.108 43.516V43.0845C479.741 40.4947 493.122 33.5885 499.165 29.2721C503.913 35.315 509.524 43.0845 513.408 48.2642ZM423.628 53.4438C420.607 49.5591 414.996 42.6528 411.974 37.9048H411.543V60.7814L423.628 53.4438ZM437.441 48.2642L411.974 63.8029V74.5938C415.427 75.8887 421.902 78.9101 425.355 81.0683L430.966 75.4571C432.693 73.7306 432.261 71.1408 434.851 71.1408C435.714 71.1408 436.577 72.4357 436.577 73.2989C436.577 74.1622 435.714 74.5939 435.282 75.0256L418.449 91.4277C412.837 87.9746 401.183 82.7948 395.14 80.205V79.7735C396.004 79.3418 397.299 78.9102 397.299 76.3204V46.9693C397.299 44.3795 396.435 43.9476 395.14 43.516V43.0845C403.773 40.4947 417.154 33.5885 423.197 29.2721C427.513 35.315 433.124 43.0845 437.441 48.2642ZM369.674 80.6368V47.4008C365.358 45.2427 358.451 40.4947 353.703 36.61H353.272V73.2989C357.588 75.0255 364.494 79.3419 367.516 81.5001L369.674 80.6368ZM389.961 86.248C389.529 99.6287 382.623 108.693 370.106 108.693C360.178 108.693 352.84 103.513 343.776 103.513C338.596 103.513 335.575 105.24 334.28 106.966L333.417 106.535C333.848 97.0389 341.186 91.4277 349.819 91.4277C359.746 91.4277 367.084 97.4704 377.443 97.4704C384.35 97.4704 387.803 94.0174 388.234 90.5643V90.1328C386.939 90.9961 384.781 91.8592 382.191 91.8592C376.58 91.8592 370.969 88.4062 370.106 81.9316C367.516 83.6582 361.905 87.9746 359.315 90.1328C352.84 86.2481 342.913 81.0683 337.733 78.9101V78.4786C338.596 78.047 339.46 76.7519 339.46 75.8886V45.6742C339.46 43.9476 339.028 42.6528 337.733 42.2212V41.7896C346.797 38.3365 358.452 32.2937 364.926 27.5457C370.537 31.8621 380.465 37.9049 386.508 40.9263V41.3578C385.213 41.7895 384.35 42.6527 384.35 45.6742V78.0468C384.35 82.3632 384.781 84.9531 387.803 84.9531C388.234 84.9531 389.098 84.5214 389.529 84.0898L389.961 86.248ZM241.478 56.4651L230.256 23.2294L218.17 56.4651H241.478ZM274.714 77.6153L260.039 90.9959C255.722 87.9744 252.269 85.8164 247.09 82.795V82.3632C248.384 81.9315 248.816 80.6368 248.816 79.3419C248.816 78.9103 248.816 78.0469 248.385 77.6153L244.068 64.6662H215.149L211.264 75.4571C217.307 75.4571 220.328 76.3205 223.35 77.1838L226.371 72.0041L228.529 73.2989L218.602 91.4277C214.717 89.2695 210.401 87.5428 205.221 87.5428C199.178 87.5428 194.862 88.8377 192.704 90.9959C192.272 91.4275 191.84 91.4276 191.84 90.5643C194.43 82.3633 199.61 76.3203 208.674 75.8886L228.961 21.0712C226.803 15.4599 224.645 13.3016 219.897 13.3016C215.149 13.3016 210.401 15.4599 210.401 21.0712C210.401 23.661 212.99 23.661 212.99 25.3876C212.99 26.2508 212.559 26.6824 211.264 26.6824C209.537 26.6824 207.811 24.5242 207.811 20.2079C207.811 10.2803 216.012 4.23732 224.645 4.23732C232.414 4.23732 235.436 7.25887 238.025 10.2803C238.889 7.25887 241.478 5.53228 244.068 5.10064L244.931 6.3955C243.637 8.12204 242.773 9.84852 242.773 12.0067C242.773 13.3016 243.205 15.4598 243.637 16.3231L265.65 77.6153L269.535 79.7735L273.419 76.3204L274.714 77.6153ZM152.562 82.3632V65.5296C150.403 64.6663 148.245 63.3714 146.087 62.0765L129.685 78.9101H130.117C132.706 77.6152 133.57 75.8886 138.749 75.8886C144.361 75.8886 149.54 79.7734 152.562 82.3632ZM168.964 30.567C168.964 36.1782 162.489 43.9478 153.425 43.9478C147.814 43.9478 144.36 40.9264 141.339 37.4733H140.907V51.7172L148.677 55.602L152.13 52.1487C156.015 54.3069 163.784 58.6233 167.669 60.3499V60.7814C166.806 61.213 165.942 62.0764 165.942 63.8029V73.7305C165.942 75.0254 166.806 75.8888 167.669 76.3204V76.752C159.036 80.205 146.95 86.6796 141.339 91.8592C138.318 88.8377 134.433 86.248 128.822 86.248C124.074 86.248 121.915 87.9745 121.915 89.701C121.915 90.5643 124.074 90.5643 124.074 91.8592C124.074 92.7225 123.642 93.154 122.347 93.154C121.052 93.154 118.894 91.4275 118.894 89.701C118.894 85.8163 121.484 82.795 127.958 76.3204L138.749 65.5296C134.433 63.3714 127.958 60.3499 124.074 59.055V58.6232C124.937 58.1916 125.8 57.3284 125.8 56.0335V46.9693C125.8 46.106 125.369 44.3794 124.074 43.9478V43.516C133.138 40.4946 144.792 34.0203 151.267 29.7039C152.562 31.4304 156.878 34.8833 160.763 34.8833C164.216 34.8833 165.079 33.157 165.079 31.8621C165.079 30.9988 163.784 30.9988 163.784 29.7039C163.784 28.8406 164.216 28.4088 165.079 28.4088C167.237 27.5455 168.964 28.4088 168.964 30.567ZM101.629 82.3632V47.8324C96.4491 45.2426 89.5429 40.0629 86.0898 37.0415H85.6581V72.4356C90.4061 75.0254 97.3123 79.3417 101.629 82.3632ZM118.031 75.8886C110.693 78.9101 96.8807 85.8162 90.8378 90.9959C84.3633 86.6795 75.2989 80.6368 69.2561 77.1838V76.752C70.9826 76.3203 70.9826 75.0255 70.9826 73.2989V46.9693C70.9826 44.3795 70.551 43.5161 69.2561 43.0845V42.653C79.1837 39.1999 88.6796 34.0202 96.449 28.8406C102.06 32.7253 111.556 38.7681 118.031 42.2212V42.653C116.736 43.0846 115.873 44.3794 115.873 46.106V72.4356C115.873 74.1621 116.736 75.0255 118.031 75.4571V75.8886ZM40.7681 72.0041V22.7976C33.862 21.9343 30.4089 17.6181 28.2507 14.5967L21.3445 19.7761C21.3445 27.1139 23.5027 33.1568 26.0926 39.1997C28.6824 44.8109 31.2721 51.7171 31.2721 56.4651C31.2721 64.6661 26.5242 69.4142 15.7333 79.7735L16.1649 80.205C22.2078 75.8886 32.1354 72.4357 40.7681 72.0041ZM67.5295 72.0041L56.7387 91.4277C51.1274 87.5429 42.063 85.3847 34.7253 85.3847C19.618 85.3847 9.6904 87.9746 4.07914 91.4277L3.21582 90.5643C7.96381 86.6796 15.7333 80.2051 15.7333 65.5296C15.7333 59.4867 13.1435 52.1487 11.417 47.8324C9.25882 42.6527 7.53217 39.6314 7.53217 32.2936C7.53217 19.3446 14.87 12.0068 26.0926 6.3955L26.9557 7.25882C23.071 10.2803 21.3445 14.5965 20.4812 18.4812L38.6099 3.80579C43.3579 10.2803 47.6743 12.4385 53.2855 12.4385C58.0335 12.4385 59.3284 10.2801 59.3284 8.9852C59.3284 7.6903 57.6019 7.6904 57.6019 6.3955C57.6019 5.53223 58.4652 5.10064 58.8968 5.10064C60.1917 5.10064 61.4865 6.82724 61.4865 8.12214C61.4865 17.1865 53.2855 23.6609 45.0845 23.6609H41.6314V72.4356C48.5376 72.4356 55.4437 74.1623 60.6234 77.1838L64.0764 71.5723L67.5295 72.0041ZM651.532 30.567C651.532 31.4302 650.668 31.8621 650.237 31.8621C649.374 31.8621 648.51 30.1354 645.92 30.1354C642.036 30.1354 639.014 33.1568 639.014 37.0415C639.014 46.9691 648.942 50.854 648.942 62.0765C648.942 71.5725 639.446 76.7519 629.95 78.0468L628.223 76.752C633.403 75.8887 635.993 74.1621 635.993 68.1193C635.993 59.4866 626.928 52.5806 626.928 42.653C626.928 34.4519 634.698 28.4088 645.489 28.4088C647.647 28.4088 649.805 28.8406 650.668 29.7039C650.668 29.2723 651.532 29.7037 651.532 30.567Z" fill="black"/>
</svg>
