<svg width="796" height="198" viewBox="0 0 796 198" fill="none" xmlns="http://www.w3.org/2000/svg">
<path d="M30.4933 195.774H0V1.96088L30.4933 3.9342V195.774Z" fill="#93BE22"/>
<path d="M80.4265 195.774H49.9199V57.5474L80.4131 59.2674V195.774H80.4265ZM65.1732 15.4941C74.7598 15.4941 82.6398 23.3608 82.6398 32.9608C82.6398 42.5474 74.7731 50.4274 65.1732 50.4274C55.5865 50.4274 47.7065 42.5607 47.7065 32.9608C47.7065 23.3608 55.5865 15.4941 65.1732 15.4941Z" fill="#93BE22"/>
<path d="M153.226 85.3339V115.841H130.346V195.64H99.853V44.0274C99.853 20.9074 119.04 0.000793457 141.666 0.000793457C149.293 0.000793457 155.44 2.21412 156.92 3.20079L155.693 32.4674H141.68C135.533 32.4674 130.36 37.6274 130.36 44.0274V85.3339H153.226Z" fill="#93BE22"/>
<path d="M196.066 111.907H218.933V97.6406C218.933 91.2406 213.773 86.0806 207.613 86.0806C201.213 86.0806 196.053 91.2406 196.053 97.6406V111.907H196.066ZM165.56 97.6406C165.56 74.5207 184.253 55.5874 207.613 55.5874C230.733 55.5874 249.426 74.5207 249.426 97.6406V127.147C249.426 135.761 242.533 142.4 234.173 142.4H196.053V155.68C196.053 162.067 201.213 167.24 207.613 167.24H236.879L237.866 193.067L210.319 197.254C183.76 201.68 165.56 178.8 165.56 155.694V97.6406Z" fill="#93BE22"/>
<path d="M275.506 195.774V3.1875H295.186V61.7207C300.599 60.0007 309.199 59.2674 315.106 59.2674C336.012 59.2674 352.239 78.2006 352.239 99.6006V195.774H333.066V99.6006C333.066 89.0273 324.453 80.6673 313.879 80.6673H295.186V195.774H275.506Z" fill="#93BE22"/>
<path d="M424.226 158.64V125.441H405.292C394.719 125.441 386.359 133.8 386.359 144.374V158.64C386.359 169.214 394.719 177.827 405.292 177.827C415.866 177.814 424.226 169.214 424.226 158.64ZM424.226 96.4139C424.226 85.3473 419.066 76.494 405.039 77.974H405.279C397.412 78.214 387.319 79.2006 378.959 79.694C378.719 72.5606 378.466 69.854 378.226 64.4407C384.866 61.974 394.452 59.5207 402.572 59.2807C427.172 58.7873 443.399 78.7073 443.399 100.107V158.64C443.399 179.787 426.426 197.254 405.279 197.254C384.132 197.254 366.666 179.787 366.666 158.64V146.587C366.666 125.441 381.172 109.454 405.279 109.454C414.386 109.454 419.052 110.441 424.212 111.907V96.4139" fill="#93BE22"/>
<path d="M498.519 59.2673C519.665 59.2673 537.132 76.4806 537.132 97.8806V100.334C529.505 100.574 523.359 100.574 517.705 100.827V97.8806C517.705 87.5473 509.092 78.9473 498.519 78.9473C488.185 78.9473 479.825 87.5606 479.825 97.8806V159.374C479.825 170.2 488.185 178.307 498.519 178.307C508.852 178.307 517.452 170.44 517.705 160.107C527.292 160.84 536.399 161.334 537.132 161.334C536.145 181.747 518.932 197.987 498.519 197.987C477.372 197.987 460.146 180.774 460.146 159.374V97.8806C460.146 76.4806 477.372 59.2673 498.519 59.2673Z" fill="#93BE22"/>
<path d="M614.652 195.774L577.265 130.601C573.572 124.201 573.572 123.467 577.999 115.841L610.958 61.2407H633.345L596.212 124.201L636.305 195.774H614.652ZM572.345 3.68085V195.774H552.665V3.68085H572.345Z" fill="#93BE22"/>
<path d="M660.118 118.787H697.998V98.1206C697.998 87.5473 689.385 78.9339 679.065 78.9339C668.492 78.9339 660.132 87.5473 660.132 98.1206V118.787H660.118ZM640.438 98.1339C640.438 76.7339 657.652 59.2807 679.052 59.2807C700.198 59.2807 717.425 76.7473 717.425 98.1339V128.387C717.425 134.04 712.998 138.227 707.585 138.227H660.118V159.12C660.118 169.694 668.478 178.307 679.052 178.307H703.892C704.132 184.694 704.385 189.134 704.878 193.56L681.265 197.254C657.158 201.44 640.438 180.534 640.438 159.134V98.1339Z" fill="#93BE22"/>
<path d="M754.358 195.774H734.678V99.8539C734.678 78.454 751.398 58.534 775.998 59.0273C784.358 59.2673 789.531 61.2407 795.185 63.9473C794.931 69.854 794.691 74.774 794.451 79.2006L773.051 78.7073C762.718 78.7073 754.358 89.7739 754.358 99.8539V195.774Z" fill="#93BE22"/>
</svg>
