<svg width="203" height="274" viewBox="0 0 203 274" fill="none" xmlns="http://www.w3.org/2000/svg">
<g clip-path="url(#clip0_6_46)">
<path d="M145 107C145 145.5 138.3 188.6 100.3 188.6C64.7001 188.6 57.4001 145.5 57.7001 108.3C58.0001 67.8 63.6001 23.8 100.6 23.8C137.2 23.8 145 66.2 145 107ZM100.3 191.7C146 191.7 180.4 151.9 180.4 106.2C180.4 60.7 146.6 20.7 100.8 20.7C56.9 20.7 22.3 61.8 22.3 107.5C22.3 152.2 55.6 191.7 100.3 191.7" fill="#707070"/>
<path d="M97.6 216.3C97.6 220.1 94.6 222.3 91.8 222.3C88.9 222.3 86 220.1 86 216.3C86 212.5 89 210.3 91.8 210.3C94.6 210.3 97.6 212.5 97.6 216.3ZM100 216.3C100 211.3 95.9 208.3 91.8 208.3C87.7 208.3 83.6 211.4 83.6 216.3C83.6 221.3 87.7 224.3 91.8 224.3C95.9 224.3 100 221.3 100 216.3Z" fill="#707070"/>
<path d="M118.2 212.9C118.2 214.5 116.8 215.2 115.5 215.2H113.6V210.5H115.5C116.8 210.6 118.2 211.3 118.2 212.9V212.9ZM120.5 212.9C120.5 210 118 208.6 115.9 208.6H111.3V224H113.6V217.2H115.9C118 217.3 120.5 215.9 120.5 212.9V212.9Z" fill="#707070"/>
<path d="M138.4 212.9C138.4 214.5 137 215.2 135.7 215.2H133.5V210.5H135.7C137.1 210.6 138.4 211.3 138.4 212.9V212.9ZM143.3 224L138 216.9C139.5 216.3 140.7 215 140.7 212.9C140.7 210 138.2 208.6 136.1 208.6H131.2V224H133.5V217.2H135.7L140.6 224H143.3V224Z" fill="#707070"/>
<path d="M161.4 218.2H157L158.2 215.3C158.5 214.5 158.8 213.8 159.2 212.6C159.6 213.8 159.9 214.5 160.2 215.4L161.4 218.2V218.2ZM166.3 224L159.7 208.4H158.9L152.3 224H154.6L156.3 220H162.3L164 224H166.3Z" fill="#707070"/>
<path d="M187.3 224V217.3H179.3V224H177V208.6H179.3V215.3H187.3V208.6H189.6V224H187.3Z" fill="#707070"/>
<path d="M20.3 210.6V224.1H18V210.6H13V208.6H25.3V210.6H20.3Z" fill="#D8C2D2"/>
<path d="M20.3 210.6V224.1H18V210.6H13V208.6H25.3V210.6H20.3Z" fill="#707070" stroke="#707070"/>
<path d="M45.9 224.1V217.3H37.9V224.1H35.6V208.6H38V215.3H46V208.6H48.3V224.1H45.9Z" fill="#D8C2D2"/>
<path d="M45.9 224.1V217.3H37.9V224.1H35.6V208.6H38V215.3H46V208.6H48.3V224.1H45.9Z" fill="#707070" stroke="#707070"/>
<path d="M60.1 224.1V208.6H68.4V210.6H62.4V215.3H67.4V217.3H62.4V222.1H69.2V224.1H60.1Z" fill="#D8C2D2"/>
<path d="M60.1 224.1V208.6H68.4V210.6H62.4V215.3H67.4V217.3H62.4V222.1H69.2V224.1H60.1Z" fill="#707070" stroke="#707070"/>
<path d="M28.2 256.8L27.7 251.7C27.5 249.8 27.4 248.1 27.3 246.3H27.2C26.5 247.8 25.7 249.5 24.8 251.1L21.8 256.9H20.9L17.9 251.1C17 249.3 16.1 247.6 15.5 246.3H15.4C15.3 248.1 15.1 250 15 251.7L14.6 256.8H12.5L13.8 241.3H15.3L19 248.4C19.9 250.2 20.7 251.8 21.4 253.3H21.5C22.1 251.8 22.9 250.2 23.8 248.4L27.4 241.3H29L30.4 256.8H28.2Z" fill="#D8C2D2"/>
<path d="M28.2 256.8L27.7 251.7C27.5 249.8 27.4 248.1 27.3 246.3H27.2C26.5 247.8 25.7 249.5 24.8 251.1L21.8 256.9H20.9L17.9 251.1C17 249.3 16.1 247.6 15.5 246.3H15.4C15.3 248.1 15.1 250 15 251.7L14.6 256.8H12.5L13.8 241.3H15.3L19 248.4C19.9 250.2 20.7 251.8 21.4 253.3H21.5C22.1 251.8 22.9 250.2 23.8 248.4L27.4 241.3H29L30.4 256.8H28.2Z" fill="#707070" stroke="#707070"/>
<path d="M50.7 250.9H46.3L47.5 248C47.8 247.2 48.1 246.5 48.5 245.2C48.9 246.4 49.2 247.1 49.5 248L50.7 250.9V250.9ZM55.5 256.8L48.9 241H48L41.4 256.8H43.7L45.4 252.8H51.4L53.1 256.8H55.5Z" fill="#D8C2D2"/>
<path d="M50.7 250.9H46.3L47.5 248C47.8 247.2 48.1 246.5 48.5 245.2C48.9 246.4 49.2 247.1 49.5 248L50.7 250.9V250.9ZM55.5 256.8L48.9 241H48L41.4 256.8H43.7L45.4 252.8H51.4L53.1 256.8H55.5Z" fill="#707070" stroke="#707070"/>
<path d="M74.1 257.1C69.9 257.1 65.6 254.3 65.6 249C65.6 243.6 70.1 240.9 73.9 240.9C76 240.9 77.7 241.4 78.9 242.1L78.5 244.1C77.4 243.4 75.8 242.9 74.2 242.9C71.2 242.9 68 244.9 68 249C68 253 71.1 255 74.2 255C75.6 255 76.7 254.7 77.5 254.2V251H74V249.1H79.8V255.4C78.3 256.6 76.4 257.1 74.1 257.1Z" fill="#D8C2D2"/>
<path d="M74.1 257.1C69.9 257.1 65.6 254.3 65.6 249C65.6 243.6 70.1 240.9 73.9 240.9C76 240.9 77.7 241.4 78.9 242.1L78.5 244.1C77.4 243.4 75.8 242.9 74.2 242.9C71.2 242.9 68 244.9 68 249C68 253 71.1 255 74.2 255C75.6 255 76.7 254.7 77.5 254.2V251H74V249.1H79.8V255.4C78.3 256.6 76.4 257.1 74.1 257.1Z" fill="#707070" stroke="#707070"/>
<path d="M100.4 250.9H96L97.2 248C97.5 247.2 97.8 246.5 98.2 245.2C98.6 246.4 98.9 247.1 99.2 248L100.4 250.9ZM105.2 256.8L98.6 241H97.8L91.2 256.8H93.5L95.2 252.8H101.2L102.9 256.8H105.2Z" fill="#D8C2D2"/>
<path d="M100.4 250.9H96L97.2 248C97.5 247.2 97.8 246.5 98.2 245.2C98.6 246.4 98.9 247.1 99.2 248L100.4 250.9ZM105.2 256.8L98.6 241H97.8L91.2 256.8H93.5L95.2 252.8H101.2L102.9 256.8H105.2Z" fill="#707070" stroke="#707070"/>
<path d="M115.9 256.8V256.2L121 247.2C121.8 245.8 122.6 244.4 123.3 243.2H116.3V241.2H126.5V241.8L121.4 250.8C120.7 252.1 119.8 253.6 119 254.8H126.8V256.8H115.9" fill="#D8C2D2"/>
<path d="M115.9 256.8V256.2L121 247.2C121.8 245.8 122.6 244.4 123.3 243.2H116.3V241.2H126.5V241.8L121.4 250.8C120.7 252.1 119.8 253.6 119 254.8H126.8V256.8H115.9V256.8Z" fill="#707070" stroke="#707070"/>
<path d="M138.9 256.8H141.2V241.3H138.9V256.8Z" fill="#707070"/>
<path d="M138.9 241.2H141.2V256.7H138.9V241.2Z" stroke="#707070"/>
<path d="M167.4 257.1L160.7 249.8C159.3 248.3 157.8 246.6 156.6 245.2H156.5C156.6 246.6 156.6 247.7 156.6 248.9V256.8H154.2V241.3H155.8L161.7 247.8C163 249.3 164.5 250.9 165.7 252.4V241.4H168V257.3H167.4" fill="#707070"/>
<path d="M167.4 257.1L160.7 249.8C159.3 248.3 157.8 246.6 156.6 245.2H156.5C156.6 246.6 156.6 247.7 156.6 248.9V256.8H154.2V241.3H155.8L161.7 247.8C163 249.3 164.5 250.9 165.7 252.4V241.4H168V257.3H167.4V257.1Z" stroke="#707070"/>
<path d="M180.7 256.8V241.3H189V243.3H183V248H188V250H183V254.8H189.8V256.8H180.7" fill="#D8C2D2"/>
<path d="M180.7 256.8V241.3H189V243.3H183V248H188V250H183V254.8H189.8V256.8H180.7V256.8Z" fill="#707070" stroke="#707070"/>
</g>
<defs>
<clipPath id="clip0_6_46">
<rect width="202.6" height="274" fill="white"/>
</clipPath>
</defs>
</svg>
