<svg xmlns="http://www.w3.org/2000/svg" xmlns:xlink="http://www.w3.org/1999/xlink" width="45.297" height="47.97" viewBox="0 0 45.297 47.97">
  <defs>
    <clipPath id="clip-path">
      <rect id="Rectangle_215" data-name="Rectangle 215" width="45.297" height="47.97" transform="translate(0 0)" fill="none"/>
    </clipPath>
  </defs>
  <g id="Group_550" data-name="Group 550" transform="translate(0 0)">
    <g id="Group_549" data-name="Group 549" clip-path="url(#clip-path)">
      <path id="Path_847" data-name="Path 847" d="M5.909,4.593H30.534a1.642,1.642,0,0,1,1.642,1.642l-3.9,1.277s-2.353,6.412-1.687,7.305c.42.564,2.52,6.685,4.264,6.808s1.322,3.9,1.322,3.9a1.642,1.642,0,0,1-1.642,1.642H5.909a1.641,1.641,0,0,1-1.642-1.641V6.235A1.642,1.642,0,0,1,5.909,4.593" fill="#fcdcdd"/>
      <path id="Path_848" data-name="Path 848" d="M15.7,15.765l-.8.291a3.782,3.782,0,0,0-2.412,2.829l-.273,1.428a2.406,2.406,0,0,0,2.365,2.861h6.959a2.408,2.408,0,0,0,2.411-2.4,2.346,2.346,0,0,0-.038-.427l-.254-1.42a3.775,3.775,0,0,0-2.42-2.875l-.851-.308V14.487a.729.729,0,0,0-.008-.1,3.413,3.413,0,0,0,.977-2.373V10.141a3.309,3.309,0,0,0-6.618,0v1.927a3.3,3.3,0,0,0,.975,2.336.611.611,0,0,0-.006.086Zm6.587,3.4.253,1.42a1.016,1.016,0,0,1-.823,1.18.977.977,0,0,1-.179.016H14.575a1.016,1.016,0,0,1-1.017-1.016,1.042,1.042,0,0,1,.018-.193l.272-1.428a2.385,2.385,0,0,1,1.521-1.783l.526-.191a.514.514,0,0,0,.041.04,3.207,3.207,0,0,0,4.205,0,.657.657,0,0,0,.059-.059l.555.2a2.379,2.379,0,0,1,1.527,1.813Zm-6.163-9.03A1.917,1.917,0,0,1,19.9,9.662c-.089.044-.181.085-.275.122a2.313,2.313,0,0,1-1.742.159.7.7,0,1,0-.8,1.135l0,0a2.3,2.3,0,0,0,1.327.356,4.63,4.63,0,0,0,1.552-.3v.865a2.014,2.014,0,0,1-.6,1.428,1.946,1.946,0,0,1-.6.4l-.045.019a1.787,1.787,0,0,1-.708.127,1.927,1.927,0,0,1-1.881-1.917Zm1.854,5.235h.063a3.222,3.222,0,0,0,.95-.143v1.113a1.817,1.817,0,0,1-1.9,0v-1.11a3.269,3.269,0,0,0,.883.14Z" fill="#e54253"/>
      <path id="Path_849" data-name="Path 849" d="M7.883,33.031H29.07a.943.943,0,0,0,0-1.886H7.883a.943.943,0,0,0,0,1.886" fill="#404145"/>
      <path id="Path_850" data-name="Path 850" d="M7.881,36.78H29.07a.918.918,0,0,0,.657-.276.947.947,0,0,0-.659-1.609H7.882a.912.912,0,0,0-.656.277.946.946,0,0,0,.655,1.608" fill="#404145"/>
      <path id="Path_851" data-name="Path 851" d="M29.068,38.644H7.882a.943.943,0,0,0,0,1.886H29.07a.912.912,0,0,0,.656-.277.946.946,0,0,0-.658-1.609" fill="#404145"/>
      <path id="Path_852" data-name="Path 852" d="M29.068,42.393H7.882a.943.943,0,0,0,0,1.886H29.069a.943.943,0,0,0,0-1.886" fill="#404145"/>
      <path id="Path_853" data-name="Path 853" d="M4.675,33.037a.947.947,0,1,0-.948-.948.948.948,0,0,0,.948.948" fill="#404145"/>
      <path id="Path_854" data-name="Path 854" d="M4.675,36.8a.948.948,0,1,0-.948-.948.948.948,0,0,0,.948.948" fill="#404145"/>
      <path id="Path_855" data-name="Path 855" d="M4.675,40.553a.948.948,0,1,0-.948-.948.948.948,0,0,0,.948.948" fill="#404145"/>
      <path id="Path_856" data-name="Path 856" d="M4.675,44.279a.948.948,0,1,0-.948-.948.948.948,0,0,0,.948.948" fill="#404145"/>
      <path id="Path_857" data-name="Path 857" d="M39.626,11.348l-2.367-.669L35.891,8.636a.881.881,0,0,0-1.46,0L33.063,10.68l-2.365.669a.879.879,0,0,0-.608,1.084.869.869,0,0,0,.157.305l1.52,1.932-.094,2.457a.879.879,0,0,0,1.181.859l2.307-.849,2.308.849a.879.879,0,0,0,1.128-.521.863.863,0,0,0,.053-.337l-.094-2.458,1.521-1.932a.879.879,0,0,0-.146-1.233.892.892,0,0,0-.305-.156Zm-2.279,2.611a.867.867,0,0,0-.187.577l.071,1.88-1.766-.653a.889.889,0,0,0-.606,0l-1.767.653.072-1.881a.871.871,0,0,0-.187-.576L31.813,12.48l1.812-.513a.875.875,0,0,0,.489-.356l1.048-1.564,1.047,1.564a.883.883,0,0,0,.491.356l1.811.512Z" fill="#16a0b7"/>
      <path id="Path_858" data-name="Path 858" d="M44.123,11.031a4.587,4.587,0,0,1-.62-.91,4.8,4.8,0,0,1-.239-1.164,4.146,4.146,0,0,0-.955-2.584,4.123,4.123,0,0,0-2.53-.916,4.99,4.99,0,0,1-1.149-.226,4.582,4.582,0,0,1-.945-.637,5.476,5.476,0,0,0-1.578-.987V3.568A3.579,3.579,0,0,0,32.538,0H3.569A3.576,3.576,0,0,0,0,3.568V5.677c0,.014,0,.028,0,.041V44.4a3.579,3.579,0,0,0,3.569,3.568H32.538A3.579,3.579,0,0,0,36.107,44.4V32.217l1.073.84a1.329,1.329,0,0,0,.972.273,1.311,1.311,0,0,0,.88-.5,1.33,1.33,0,0,0,.28-.815v-10.3a4.407,4.407,0,0,1,.451-.056,4.15,4.15,0,0,0,2.583-.956,4.125,4.125,0,0,0,.917-2.53,4.982,4.982,0,0,1,.226-1.148,4.512,4.512,0,0,1,.628-.935A4.169,4.169,0,0,0,45.3,13.534a4.17,4.17,0,0,0-1.173-2.5M34.216,3.608a5.489,5.489,0,0,0-1.576.984,4.612,4.612,0,0,1-.914.625,4.848,4.848,0,0,1-1.166.239,4.14,4.14,0,0,0-2.583.955,4.133,4.133,0,0,0-.918,2.53,4.94,4.94,0,0,1-.224,1.148,4.6,4.6,0,0,1-.628.936,4.172,4.172,0,0,0-1.18,2.557,4.16,4.16,0,0,0,1.169,2.5,4.606,4.606,0,0,1,.625.913,4.852,4.852,0,0,1,.237,1.166,4.15,4.15,0,0,0,.956,2.583,4.117,4.117,0,0,0,2.518.916c.164.02.325.04.479.063v10.3a1.318,1.318,0,0,0,2.13,1.038l1.074-.842V44.4a1.683,1.683,0,0,1-1.678,1.678H3.569A1.683,1.683,0,0,1,1.891,44.4V3.568A1.684,1.684,0,0,1,3.57,1.89H32.538a1.682,1.682,0,0,1,1.678,1.678ZM32.9,30.847V22.758a4.2,4.2,0,0,0,2.284.932,4.17,4.17,0,0,0,2.235-.932v8.087l-1.444-1.129a1.317,1.317,0,0,0-1.629,0Zm6.665-11.068a6.362,6.362,0,0,0-1.688.369,6.071,6.071,0,0,0-1.4.918,2.609,2.609,0,0,1-1.316.729,2.642,2.642,0,0,1-1.331-.743,6.1,6.1,0,0,0-1.4-.91c-.039-.016-.179-.069-.2-.074a7.2,7.2,0,0,0-1.5-.29H30.72a2.627,2.627,0,0,1-1.389-.4,2.652,2.652,0,0,1-.4-1.417,6.409,6.409,0,0,0-.369-1.691,6.061,6.061,0,0,0-.918-1.4,2.616,2.616,0,0,1-.728-1.316,2.623,2.623,0,0,1,.748-1.33,6.054,6.054,0,0,0,.914-1.408,6.337,6.337,0,0,0,.36-1.686,2.622,2.622,0,0,1,.4-1.4,2.648,2.648,0,0,1,1.413-.4h0a6.316,6.316,0,0,0,1.689-.37,6.081,6.081,0,0,0,1.4-.918,2.61,2.61,0,0,1,1.316-.729,2.637,2.637,0,0,1,1.331.74,6.08,6.08,0,0,0,1.408.915,6.387,6.387,0,0,0,1.687.361H39.6a2.623,2.623,0,0,1,1.389.4,2.655,2.655,0,0,1,.4,1.418,6.341,6.341,0,0,0,.37,1.689,6.09,6.09,0,0,0,.918,1.4,2.609,2.609,0,0,1,.728,1.315,2.608,2.608,0,0,1-.728,1.316l-.014.014a6.039,6.039,0,0,0-.914,1.409,6.4,6.4,0,0,0-.361,1.688,2.621,2.621,0,0,1-.4,1.4,2.659,2.659,0,0,1-1.413.4Z" fill="#404145"/>
    </g>
  </g>
</svg>
