<svg id="Hearing" xmlns="http://www.w3.org/2000/svg" width="50" height="50" viewBox="0 0 50 50">
  <rect id="Placeholder" width="50" height="50" fill="none"/>
  <g id="XMLID_116_" transform="translate(-33.643 2.288)">
    <path id="XMLID_117_" d="M198.829,54.225a10.613,10.613,0,0,0-16.118-.691,11.708,11.708,0,0,0-1.952,13.4q.2.384.379.774a3.584,3.584,0,0,0,1.481,1.614,3.577,3.577,0,0,1,1.2,5.132,2.413,2.413,0,0,0-.405,1.579,25.81,25.81,0,0,1,.068,3.3,7.09,7.09,0,0,0,14.16.721,29.51,29.51,0,0,1,.566-3.665l2.805-12.5a11.471,11.471,0,0,0-2.18-9.669Z" transform="translate(-130.168 -45.71)" fill="#fcdcdd"/>
    <g id="XMLID_118_" transform="translate(36.643 0)">
      <path id="XMLID_119_" d="M156.737,5.721a15.039,15.039,0,0,0-22.759-.99,16.172,16.172,0,0,0-2.71,18.522,20.015,20.015,0,0,1,2.239,9.88,11.53,11.53,0,0,0,23,1.639,25.091,25.091,0,0,1,.479-3.114l2.8-12.5a15.906,15.906,0,0,0-3.055-13.44Zm1.324,13.052-2.8,12.5a26.84,26.84,0,0,0-.514,3.333,9.756,9.756,0,0,1-19.463-1.4,21.794,21.794,0,0,0-2.432-10.759,14.448,14.448,0,0,1-1.569-6.553A13.988,13.988,0,0,1,145.031,1.775h.1C153.629,1.841,160.013,10.079,158.061,18.773Z" transform="translate(-121.266 0)" fill="#404145"/>
      <path id="XMLID_122_" d="M235.928,107.111a6.836,6.836,0,0,0-8.157,6.792.887.887,0,0,0,1.774,0,5.093,5.093,0,0,1,5.012-5.159,5.016,5.016,0,0,1,4.768,6.189L238.1,120.6a1.846,1.846,0,0,1-1.8,1.49,1.878,1.878,0,0,1-1.84-1.909,2.215,2.215,0,0,1,1.475-2.112.887.887,0,0,0-.574-1.679,3.989,3.989,0,0,0-2.676,3.791,3.654,3.654,0,0,0,3.615,3.683,3.608,3.608,0,0,0,3.53-2.889l1.228-5.662a7.072,7.072,0,0,0-.964-5.312,6.552,6.552,0,0,0-4.166-2.886Z" transform="translate(-210.814 -97.477)" fill="#404145"/>
      <path id="XMLID_123_" d="M81.169,292.316a3.571,3.571,0,0,1-2.654-4.282.887.887,0,0,0-1.729-.4,5.348,5.348,0,0,0,3.98,6.41.887.887,0,0,0,.4-1.728Z" transform="translate(-73.098 -261.489)" fill="#404145"/>
      <path id="XMLID_124_" d="M43.91,287.508a7.139,7.139,0,0,1-5.308-8.559.887.887,0,0,0-1.729-.4,8.916,8.916,0,0,0,6.634,10.687.887.887,0,1,0,.4-1.728Z" transform="translate(-36.643 -253.21)" fill="#d0f4fa"/>
    </g>
  </g>
</svg>
