<svg id="Supplements" xmlns="http://www.w3.org/2000/svg" width="50" height="50" viewBox="0 0 50 50">
  <rect id="Placeholder" width="50" height="50" fill="none"/>
  <g id="pills" transform="translate(9.058 1.952)">
    <g id="Group_216" data-name="Group 216" transform="translate(0.942 18.843)">
      <path id="XMLID_1007_" d="M96.38,220.727V200H70v21.669H93.888A3.753,3.753,0,0,1,96.38,220.727Z" transform="translate(-70 -200)" fill="#d0f4fa"/>
    </g>
    <g id="Group_217" data-name="Group 217" transform="translate(0 0)">
      <path id="Path_3994" data-name="Path 3994" d="M9.078,28.156v3.551a20.219,20.219,0,0,1,3,0,22.1,22.1,0,0,1,0,3.132h3.868V31.708h3.317V27.765h-3.51V24.585H12.073v3.37Z" fill="#fff"/>
      <path id="Path_150" data-name="Path 150" d="M156.306,253.3H153.95v-2.355a.942.942,0,0,0-.942-.942H149.24a.942.942,0,0,0-.942.942V253.3h-2.355a.942.942,0,0,0-.942.942v3.768a.942.942,0,0,0,.942.942H148.3v2.355a.942.942,0,0,0,.942.942h3.769a.942.942,0,0,0,.942-.942V258.95h2.355a.942.942,0,0,0,.942-.942V254.24A.942.942,0,0,0,156.306,253.3Zm-.942,3.768h-2.355a.942.942,0,0,0-.942.942v2.355h-1.884v-2.355a.942.942,0,0,0-.942-.942h-2.355v-1.884h2.355a.942.942,0,0,0,.942-.942v-2.355h1.884v2.355a.942.942,0,0,0,.942.942h2.355Z" transform="translate(-136.992 -226.447)" fill="#e54253"/>
      <path id="Path_151" data-name="Path 151" d="M93.445,34.859a3.3,3.3,0,0,0-3.3,3.3v1.416a4.69,4.69,0,0,0-1.884-.85V18.843a.942.942,0,0,0-.276-.666l-4.435-4.435V11.306h1.884a.942.942,0,0,0,.942-.942V.942A.942.942,0,0,0,85.437,0H62.826a.942.942,0,0,0-.942.942v9.421a.942.942,0,0,0,.942.942h1.884v2.436l-4.435,4.435a.943.943,0,0,0-.276.666V42.4a3.773,3.773,0,0,0,3.769,3.768H83.556a4.7,4.7,0,0,0,7.16.435,3.3,3.3,0,0,0,6.027-1.848V38.156A3.3,3.3,0,0,0,93.445,34.859Zm0,1.884a1.415,1.415,0,0,1,1.413,1.413v2.355H92.032V38.156A1.415,1.415,0,0,1,93.445,36.743ZM89.986,42.4H84.657a2.826,2.826,0,0,1,5.329,0ZM63.769,1.884h1.884V4.711a.942.942,0,0,0,1.884,0V1.884h1.884V4.711a.942.942,0,0,0,1.884,0V1.884H73.19V4.711a.942.942,0,1,0,1.884,0V1.884h1.884V4.711a.942.942,0,0,0,1.884,0V1.884h1.884V4.711a.942.942,0,0,0,1.884,0V1.884H84.5V9.421H63.769Zm0,42.4A1.886,1.886,0,0,1,61.884,42.4V19.233L66.319,14.8a.942.942,0,0,0,.276-.666V11.306H81.669v2.826a.942.942,0,0,0,.276.666l4.435,4.435V38.722a4.713,4.713,0,0,0-3.674,5.558Zm23.553,1.884a2.831,2.831,0,0,1-2.664-1.884h5.329A2.831,2.831,0,0,1,87.322,46.164Zm6.124,0a1.415,1.415,0,0,1-1.413-1.413V42.4h2.826v2.355A1.415,1.415,0,0,1,93.445,46.164Z" transform="translate(-60 0)" fill="#404145"/>
    </g>
  </g>
</svg>
