<svg id="women-health" xmlns="http://www.w3.org/2000/svg" width="50" height="50" viewBox="0 0 50 50">
  <g id="XMLID_1_" transform="translate(6.359)">
    <g id="XMLID_2_" transform="translate(6.67 34.065)">
      <path id="XMLID_3_" d="M235.919,354.377c0-1.1,1.992-2.989,1.992-2.989s1.992,1.888,1.992,2.989a1.992,1.992,0,1,1-3.985,0Z" transform="translate(-226.206 -351.388)" fill="#d0f4fa"/>
      <path id="XMLID_7_" d="M159.186,411.63a7.7,7.7,0,0,1,1.376,8.966H138.844a7.79,7.79,0,0,1,1.414-8.966l9.464,3.985Z" transform="translate(-138.016 -405.653)" fill="#d0f4fa"/>
    </g>
    <g id="XMLID_4_" transform="translate(0 0)">
      <path id="XMLID_5_" d="M211.949,130.531a.992.992,0,0,0-.992.992v1a.992.992,0,1,0,1.984,0v-1A.992.992,0,0,0,211.949,130.531Z" transform="translate(-197.05 -117.797)" fill="#404145"/>
      <path id="XMLID_6_" d="M282.034,130.531a.992.992,0,0,0-.992.992v1a.992.992,0,1,0,1.984,0v-1A.992.992,0,0,0,282.034,130.531Z" transform="translate(-260.182 -117.797)" fill="#404145"/>
      <path id="XMLID_8_" d="M234.909,195.225a1,1,0,0,1-1.415,0,.992.992,0,1,0-1.4,1.4,2.983,2.983,0,0,0,4.221,0,.992.992,0,0,0-1.4-1.4Z" transform="translate(-215.826 -175.915)" fill="#404145"/>
      <path id="XMLID_9_" d="M103.606,30.873V14.214a14.443,14.443,0,0,0-28.881,0V30.873a9.368,9.368,0,0,0-3.935,7.365V49.023a.985.985,0,0,0,.992.977h34.767a.985.985,0,0,0,.992-.977V38.237A9.368,9.368,0,0,0,103.606,30.873Zm-26.9-16.659a12.458,12.458,0,0,1,24.913,0V29.638a11.393,11.393,0,0,0-5.006-1.2H94.441l-.672-3.154A9.3,9.3,0,0,0,98.6,17.156V12.731a3.942,3.942,0,0,0-3.969-3.906,1.971,1.971,0,0,1-1.984-1.953V6.86a.992.992,0,0,0-1.984,0v.012a1.971,1.971,0,0,1-1.984,1.953H83.7a3.942,3.942,0,0,0-3.969,3.906v4.425a9.3,9.3,0,0,0,4.833,8.126l-.672,3.154H81.715a11.393,11.393,0,0,0-5.006,1.2V14.214Zm12.456,10.3a7.414,7.414,0,0,1-7.451-7.358V12.731A1.971,1.971,0,0,1,83.7,10.778h4.981a3.988,3.988,0,0,0,2.977-1.325,3.988,3.988,0,0,0,2.976,1.325,1.971,1.971,0,0,1,1.984,1.953v4.425a7.413,7.413,0,0,1-7.451,7.358Zm-3.491,5.062.748-3.511a9.563,9.563,0,0,0,5.485,0l.748,3.511v1.237a1.4,1.4,0,0,1-.842,1.275l-2.649,1.159-2.649-1.159a1.4,1.4,0,0,1-.841-1.275V29.576Zm19.882,18.471H72.774v-9.81c0-4.416,4.638-7.849,8.941-7.849H83.69v.424a3.349,3.349,0,0,0,2.02,3.059l3.052,1.335a1.006,1.006,0,0,0,.806,0l3.052-1.335a3.349,3.349,0,0,0,2.02-3.059v-.424h1.975c4.264,0,8.941,3.391,8.941,7.849v9.81Z" transform="translate(-70.79 0)" fill="#404145"/>
    </g>
  </g>
  <rect id="Placeholder" width="50" height="50" fill="none"/>
  <g id="Group_9267" data-name="Group 9267" transform="translate(30.805 31.601)">
    <path id="Path_3964" data-name="Path 3964" d="M307.368,323.6a4.2,4.2,0,0,0-3.1,1.392.25.25,0,0,1-.368,0,4.2,4.2,0,0,0-3.1-1.392,4.5,4.5,0,0,0-4.346,4.638c0,3.832,2.045,5.847,6.575,8.175.276.141,1.058.58,1.058.58s.783-.439,1.058-.58c4.53-2.329,6.575-4.343,6.575-8.175A4.5,4.5,0,0,0,307.368,323.6Z" transform="translate(-296.447 -323.596)" fill="#fcdcdd"/>
  </g>
  <path id="Path_3991" data-name="Path 3991" d="M37.358,9.055l3.858,3.861,4.224-4.223L40.853,5.181Z" fill="#fff"/>
  <path id="Path_3987" data-name="Path 3987" d="M2.793,5.538a2.793,2.793,0,0,0-.516,5.537v.844H1.546a.468.468,0,0,0,0,.936h.732v.526a.469.469,0,0,0,.937,0v-.526h.769a.468.468,0,1,0,0-.936H3.215v-.829a2.792,2.792,0,0,0-.422-5.553Zm0,4.648A1.856,1.856,0,1,1,4.649,8.329,1.858,1.858,0,0,1,2.793,10.186Z" transform="translate(35.645 28.688)" fill="#e54253" stroke="#e54253" stroke-width="0.4"/>
  <g id="Group_9268" data-name="Group 9268" transform="translate(35.102 3)">
    <path id="Path_3979" data-name="Path 3979" d="M301.629,12.11a.977.977,0,0,1-.944-.726A6.148,6.148,0,0,0,296.859,7a.979.979,0,0,1,0-1.885A6.148,6.148,0,0,0,300.685.726a.977.977,0,0,1,1.888,0A6.147,6.147,0,0,0,306.4,5.112.979.979,0,0,1,306.4,7a6.147,6.147,0,0,0-3.825,4.386.977.977,0,0,1-.944.727Zm-2.3-6.055a8.326,8.326,0,0,1,2.3,2.579,8.326,8.326,0,0,1,2.3-2.579,8.323,8.323,0,0,1-2.3-2.579A8.324,8.324,0,0,1,299.331,6.055Z" transform="translate(-296.144 0)" fill="#404145"/>
  </g>
  <path id="Path_3990" data-name="Path 3990" d="M3.956,25.959l3.033,3.4,3.559-3.4L6.989,22.93Z" fill="#fff"/>
  <g id="Group_9269" data-name="Group 9269" transform="translate(2.375 20.859)">
    <path id="Path_3980" data-name="Path 3980" d="M85.909,117.856a.977.977,0,0,1-.944-.726,5.185,5.185,0,0,0-3.218-3.7.979.979,0,0,1,0-1.885,5.185,5.185,0,0,0,3.218-3.7.977.977,0,0,1,1.888,0,5.185,5.185,0,0,0,3.218,3.7.979.979,0,0,1,0,1.885,5.184,5.184,0,0,0-3.218,3.7A.977.977,0,0,1,85.909,117.856Zm-1.768-5.371a7.345,7.345,0,0,1,1.768,1.978,7.346,7.346,0,0,1,1.768-1.978,7.349,7.349,0,0,1-1.768-1.978A7.348,7.348,0,0,1,84.141,112.485Z" transform="translate(-81.032 -107.114)" fill="#404145"/>
  </g>
</svg>
