<svg
    xmlns="http://www.w3.org/2000/svg"
    x="0"
    y="0"
    enableBackground="new 0 0 795.2 198"
    version="1.1"
    viewBox="0 0 795.2 198"
    xmlSpace="preserve"
>
    <g transform="matrix(1.33333 0 0 -1.33333 0 197.987)">
    <g fill="#707070" transform="scale(.1)">
        <path d="M228.7 16.6H0v1453.6l228.7-14.8V16.6"></path>
        <path d="M603.2 16.6H374.4v1036.7l228.7-12.9V16.6zM488.8 1368.7c71.9 0 131-59 131-131 0-71.9-59-131-131-131-71.9 0-131 59-131 131s59.1 131 131 131"></path>
        <path d="M1149.2 844.9V616.1H977.6V17.6H748.9v1137.1c0 173.4 143.9 330.2 313.6 330.2 57.2 0 103.3-16.6 114.4-24l-9.2-219.5h-105.1c-46.1 0-84.9-38.7-84.9-86.7V844.9h171.5"></path>
        <path d="M1470.5 645.6H1642v107c0 48-38.7 86.7-84.9 86.7-48 0-86.7-38.7-86.7-86.7v-107zm-228.8 107c0 173.4 140.2 315.4 315.4 315.4 173.4 0 313.6-142 313.6-315.4V531.3c0-64.6-51.7-114.4-114.4-114.4h-285.9v-99.6c0-47.9 38.7-86.7 86.7-86.7h219.5l7.4-193.7-206.6-31.4c-199.2-33.2-335.7 138.4-335.7 311.7v435.4"></path>
        <path d="M2066.3 16.6V1461h147.6v-439c40.6 12.9 105.1 18.4 149.4 18.4 156.8 0 278.5-142 278.5-302.5V16.6H2498v721.3c0 79.3-64.6 142-143.9 142h-140.2V16.6h-147.6"></path>
        <path d="M3181.7 295.1v249h-142c-79.3 0-142-62.7-142-142v-107c0-79.3 62.7-143.9 142-143.9 79.3.1 142 64.6 142 143.9zm0 466.7c0 83-38.7 149.4-143.9 138.3h1.8c-59-1.8-134.7-9.2-197.4-12.9-1.8 53.5-3.7 73.8-5.5 114.4 49.8 18.5 121.7 36.9 182.6 38.7 184.5 3.7 306.2-145.7 306.2-306.2v-439c0-158.6-127.3-289.6-285.9-289.6-158.6 0-289.6 131-289.6 289.6v90.4c0 158.6 108.8 278.5 289.6 278.5 68.3 0 103.3-7.4 142-18.4v116.2"></path>
        <path d="M3738.9 1040.4c158.6 0 289.6-129.1 289.6-289.6v-18.4c-57.2-1.8-103.3-1.8-145.7-3.7v22.1c0 77.5-64.6 142-143.9 142-77.5 0-140.2-64.6-140.2-142V289.6c0-81.2 62.7-142 140.2-142 77.5 0 142 59 143.9 136.5 71.9-5.5 140.2-9.2 145.7-9.2C4021.1 121.8 3892 0 3738.9 0c-158.6 0-287.8 129.1-287.8 289.6v461.2c0 160.5 129.2 289.6 287.8 289.6"></path>
        <path d="M4609.9 16.6l-280.4 488.8c-27.7 48-27.7 53.5 5.5 110.7l247.2 409.5h167.9l-278.5-472.2 300.7-536.8h-162.4zm-317.3 1440.7V16.6H4145v1440.7h147.6"></path>
        <path d="M4950.9 594H5235v155c0 79.3-64.6 143.9-142 143.9-79.3 0-142-64.6-142-143.9V594zm-147.6 154.9c0 160.5 129.1 291.4 289.6 291.4 158.6 0 287.8-131 287.8-291.4V522c0-42.4-33.2-73.8-73.8-73.8h-356V291.5c0-79.3 62.7-143.9 142-143.9h186.3c1.8-47.9 3.7-81.2 7.4-114.4L5109.5 5.5c-180.8-31.4-306.2 125.4-306.2 285.9v457.5"></path>
        <path d="M5657.7 16.6h-147.6V736c0 160.5 125.4 309.9 309.9 306.2 62.7-1.8 101.5-16.6 143.9-36.9-1.9-44.3-3.7-81.2-5.5-114.4l-160.5 3.7c-77.5 0-140.2-83-140.2-158.6V16.6"></path>
    </g>
    </g>
</svg>