<svg
    xmlns="http://www.w3.org/2000/svg"
    xmlnsXlink="http://www.w3.org/1999/xlink"
    x="0"
    y="0"
    enableBackground="new 0 0 892.9 112.3"
    version="1.1"
    viewBox="0 0 892.9 112.3"
    xmlSpace="preserve"
>
    <g transform="translate(-46.02 -272.45)">
    <g transform="matrix(4.31635 0 0 -4.31635 -1197.326 7114.058)">
        <defs>
        <path
            id="SVGID_1_"
            d="M-51.4 1519.3H834.3000000000001V1624.6H-51.4z"
        ></path>
        </defs>
        <clipPath id="SVGID_2_">
        <use overflow="visible" xlinkHref="#SVGID_1_"></use>
        </clipPath>
        <g clipPath="url(#SVGID_2_)">
        <g transform="translate(0 869.563)">
            <g>
            <defs>
                <path
                id="SVGID_3_"
                d="M-1298.4 -3624.6H2081.2999999999997V3547.0000000000005H-1298.4z"
                ></path>
            </defs>
            <clipPath id="SVGID_4_">
                <use overflow="visible" xlinkHref="#SVGID_3_"></use>
            </clipPath>
            <g clipPath="url(#SVGID_4_)">
                <g>
                <defs>
                    <path
                    id="SVGID_5_"
                    d="M-51.4 649.8H834.3000000000001V755.0999999999999H-51.4z"
                    ></path>
                </defs>
                <clipPath id="SVGID_6_">
                    <use overflow="visible" xlinkHref="#SVGID_5_"></use>
                </clipPath>
                <g fill="#707070" clipPath="url(#SVGID_6_)">
                    <path d="M472.6 697.3c-.8-.7-2.6-2.2-3.4-2.9-.7.6-2.2 1.7-3.1 2.4v.1c.3.1.4.3.4.9v6.8c-.7.5-1.9 1.3-2.7 1.8l-.8-.8v-8.1l1.2-.9s-1.7-1.4-2.5-2.1c-.7.6-1.7 1.4-2.6 2v.1c.3.1.4.3.4.9v7.1c-.7.5-1.9 1.2-2.6 1.7l-.9-.7v-8.1l1.2-.9s-1.7-1.3-2.5-2.1c-.8.7-1.6 1.3-2.6 2v.1c.3.1.5.5.5.8v8.1l-.9.8-1-.9-.5.5c.8.6 2.4 2 3.4 3l2.3-2v-.6l3.1 2.6c1-.7 3.9-2.5 3.9-2.5l3 2.5c1-.7 3.1-2 4.3-2.7v-.1c-.4-.1-.4-.6-.4-.9v-7.3l1.2-.8.9.8.7-.6zm-22.1 14.1c-.8-1.1-1.5-1.6-2.8-1.6-.9 0-1.4.3-2.1 1.1l-1-.9-.4.5 3.4 2.9c.9-1.7 1.9-2 2.8-1.9l.1-.1"></path>
                    <path d="M451.6 697.4c-.9-.7-2.6-2.2-3.4-3-.8.7-2 1.6-3 2.4v.1c.3.1.4.4.4.8v7.8l-.9.8-1.1-.9-.4.4c.8.6 2.4 2.1 3.5 3.1l2.7-2.4v-.1c-.3-.1-.4-.3-.4-1v-7.5l1.2-.8 1 .9.4-.6zm-54.9 0c-.9-.7-2.6-2.2-3.4-3-.8.7-2 1.6-3 2.4v.1c.3.1.4.4.4.8v12.6l-.9.8-1-.9-.4.4c.8.6 2.2 1.9 3.3 2.9l2.9-2.4v-.1c-.3-.1-.5-.3-.5-1v-12.4l1.2-.8 1 .9.4-.3zm-31.1-.1c-.8-.7-2.7-2.2-3.4-2.9-.7.6-2.1 1.7-3 2.4v.1c.3.1.5.3.5.9v6.8c-.7.5-1.9 1.2-2.7 1.7-.2-.1-.8-.6-.9-.7v-8.1l1.2-.9s-1.7-1.3-2.5-2.1c-.8.7-1.6 1.3-2.6 2v.1c.3.1.5.5.5.8v8.1l-.9.8-.9-.8-.4.4c.8.6 2.3 1.9 3.4 2.9l2.3-2v-.6l3.1 2.6c1-.7 3.1-2 4.3-2.7v-.1c-.4-.1-.5-.6-.5-.9v-7.3l1.2-.8 1 .8.3-.5zm124.6-.9v3.9c-.5.2-1 .5-1.5.8l-3.8-3.9h.1c.6.3.8.7 2 .7 1.4 0 2.6-.9 3.2-1.5zm3.9 12c0-1.3-1.5-3.1-3.6-3.1-1.3 0-2.1.7-2.8 1.5h-.1v-3.3l1.8-.9.8.8c.9-.5 2.7-1.5 3.6-1.9v-.1c-.2-.1-.4-.3-.4-.7v-2.3c0-.3.2-.5.4-.6v-.1c-2-.8-4.8-2.3-6.1-3.5-.7.7-1.6 1.3-2.9 1.3-1.1 0-1.6-.4-1.6-.8 0-.2.5-.2.5-.5 0-.2-.1-.3-.4-.3s-.8.4-.8.8c0 .9.6 1.6 2.1 3.1l2.5 2.5c-1 .5-2.5 1.2-3.4 1.5v.1c.2.1.4.3.4.6v2.1c0 .2-.1.6-.4.7v.1c2.1.7 4.8 2.2 6.3 3.2.3-.4 1.3-1.2 2.2-1.2.8 0 1 .4 1 .7 0 .2-.3.2-.3.5 0 .2.1.3.3.3.5.2.9 0 .9-.5"></path>
                </g>
                </g>
                <path
                fill="#707070"
                d="M479.5 703.1c-.7.9-2 2.5-2.7 3.6h-.1v-5.3l2.8 1.7zm3.2 1.2l-5.9-3.6v-2.5c.8-.3 2.3-1 3.1-1.5l1.3 1.3c.4.4.3 1 .9 1 .2 0 .4-.3.4-.5s-.2-.3-.3-.4l-3.9-3.8c-1.3.8-4 2-5.4 2.6v.1c.2.1.5.2.5.8v6.8c0 .6-.2.7-.5.8v.1c2 .6 5.1 2.2 6.5 3.2 1-1.4 2.3-3.2 3.3-4.4zm-42.6-7.2v12.4h-.6c-.9 0-2.4.3-3.4.6-2.9-.5-6.3-2.9-6.3-7.4 0-3.8 2.8-6.3 6.8-6.3 1.4 0 2.6.2 3.5.7zm3.4 15.7c0-2-1.3-3-2.9-3.2v-12.2c2 1.1 2.3 2.2 2.3 2.8 0 .1-.3.3-.3.5s.2.3.4.3.3-.2.3-.6c0-2.8-2.8-6.7-8.8-6.7-4.5 0-8.3 3.4-8.3 7.8 0 6.3 5.4 8.5 9.2 8.7-1.4.3-3.6.8-5.4.8-2.1 0-3.9-1.2-3.9-2.3 0-.4.4-.5.4-.8 0-.2-.1-.4-.3-.4-.4 0-.6.4-.6.6 0 2.4 1.8 5.8 5.5 5.8 3.8 0 6.5-1.3 9.5-1.3 1.9 0 2.5.7 2.4 1.8l.4-.1c0-.2.1-.8.1-1.5zm-29-16.4v3.9c-.5.2-1 .5-1.5.8l-3.8-3.9h.1c.6.3.8.7 2 .7 1.3 0 2.6-.9 3.2-1.5zm3.9 12c0-1.3-1.5-3.1-3.6-3.1-1.3 0-2.1.7-2.8 1.5h-.1v-3.3l1.8-.9.8.8c.9-.5 2.7-1.5 3.6-1.9v-.1c-.2-.1-.4-.3-.4-.7v-2.3c0-.3.2-.5.4-.6v-.1c-2-.8-4.8-2.3-6.1-3.5-.7.7-1.6 1.3-2.9 1.3-1.1 0-1.6-.4-1.6-.8 0-.2.5-.2.5-.5 0-.2-.1-.3-.4-.3s-.8.4-.8.8c0 .9.6 1.6 2.1 3.1l2.5 2.5c-1 .5-2.5 1.2-3.4 1.5v.1c.2.1.4.3.4.6v2.1c0 .2-.1.6-.4.7v.1c2.1.7 4.8 2.2 6.3 3.2.3-.4 1.3-1.2 2.2-1.2.8 0 1 .4 1 .7 0 .2-.3.2-.3.5 0 .2.1.3.3.3.5.2.9 0 .9-.5"
                ></path>
                <path
                fill="#707070"
                d="M403.9 703.1c-.7.9-2 2.5-2.7 3.6h-.1v-5.3l2.8 1.7zm3.1 1.2l-5.9-3.6v-2.5c.8-.3 2.3-1 3.1-1.5l1.3 1.3c.4.4.3 1 .9 1 .2 0 .4-.3.4-.5s-.2-.3-.3-.4l-3.9-3.8c-1.3.8-4 2-5.4 2.6v.1c.2.1.5.2.5.8v6.8c0 .6-.2.7-.5.8v.1c2 .6 5.1 2.2 6.5 3.2 1.1-1.4 2.4-3.2 3.3-4.4zm-20.8-1.2c-.7.9-2 2.5-2.7 3.6h-.1v-5.3l2.8 1.7zm3.2 1.2l-5.9-3.6v-2.5c.8-.3 2.3-1 3.1-1.5l1.3 1.3c.4.4.3 1 .9 1 .2 0 .4-.3.4-.5s-.2-.3-.3-.4l-3.9-3.8c-1.3.8-4 2-5.4 2.6v.1c.2.1.5.2.5.8v6.8c0 .6-.2.7-.5.8v.1c2 .6 5.1 2.2 6.5 3.2 1-1.4 2.3-3.2 3.3-4.4zm-15.7-7.5v7.7c-1 .5-2.6 1.6-3.7 2.5h-.1v-8.5c1-.4 2.6-1.4 3.3-1.9l.5.2zm4.7-1.3c-.1-3.1-1.7-5.2-4.6-5.2-2.3 0-4 1.2-6.1 1.2-1.2 0-1.9-.4-2.2-.8l-.2.1c.1 2.2 1.8 3.5 3.8 3.5 2.3 0 4-1.4 6.4-1.4 1.6 0 2.4.8 2.5 1.6v.1c-.3-.2-.8-.4-1.4-.4-1.3 0-2.6.8-2.8 2.3-.6-.4-1.9-1.4-2.5-1.9-1.5.9-3.8 2.1-5 2.6v.1c.2.1.4.4.4.6v7c0 .4-.1.7-.4.8v.1c2.1.8 4.8 2.2 6.3 3.3 1.3-1 3.6-2.4 5-3.1v-.1c-.3-.1-.5-.3-.5-1v-7.5c0-1 .1-1.6.8-1.6.1 0 .3.1.4.2l.1-.5zm-34.4 6.9l-2.6 7.7-2.8-7.7h5.4zm7.7-4.9l-3.4-3.1c-1 .7-1.8 1.2-3 1.9v.1c.3.1.4.4.4.7 0 .1 0 .3-.1.4l-1 3h-6.7l-.9-2.5c1.4 0 2.1-.2 2.8-.4l.7 1.2.5-.3-2.3-4.2c-.9.5-1.9.9-3.1.9-1.4 0-2.4-.3-2.9-.8-.1-.1-.2-.1-.2.1.6 1.9 1.8 3.3 3.9 3.4l4.7 12.7c-.5 1.3-1 1.8-2.1 1.8s-2.2-.5-2.2-1.8c0-.6.6-.6.6-1 0-.2-.1-.3-.4-.3-.4 0-.8.5-.8 1.5 0 2.3 1.9 3.7 3.9 3.7 1.8 0 2.5-.7 3.1-1.4.2.7.8 1.1 1.4 1.2l.2-.3c-.3-.4-.5-.8-.5-1.3 0-.3.1-.8.2-1l5.1-14.2.9-.5.9.8.3-.3zm-28.3-1.1v3.9c-.5.2-1 .5-1.5.8l-3.8-3.9h.1c.6.3.8.7 2 .7 1.3 0 2.5-.9 3.2-1.5zm3.8 12c0-1.3-1.5-3.1-3.6-3.1-1.3 0-2.1.7-2.8 1.5h-.1v-3.3l1.8-.9.8.8c.9-.5 2.7-1.5 3.6-1.9v-.1c-.2-.1-.4-.3-.4-.7v-2.3c0-.3.2-.5.4-.6v-.1c-2-.8-4.8-2.3-6.1-3.5-.7.7-1.6 1.3-2.9 1.3-1.1 0-1.6-.4-1.6-.8 0-.2.5-.2.5-.5 0-.2-.1-.3-.4-.3s-.8.4-.8.8c0 .9.6 1.6 2.1 3.1l2.5 2.5c-1 .5-2.5 1.2-3.4 1.5v.1c.2.1.4.3.4.6v2.1c0 .2-.1.6-.4.7v.1c2.1.7 4.8 2.2 6.3 3.2.3-.4 1.3-1.2 2.2-1.2.8 0 1 .4 1 .7 0 .2-.3.2-.3.5 0 .2.1.3.3.3.5.2.9 0 .9-.5zm-15.6-12v8c-1.2.6-2.8 1.8-3.6 2.5h-.1v-8.2c1.1-.6 2.7-1.6 3.7-2.3zm3.8 1.5c-1.7-.7-4.9-2.3-6.3-3.5-1.5 1-3.6 2.4-5 3.2v.1c.4.1.4.4.4.8v6.1c0 .6-.1.8-.4.9v.1c2.3.8 4.5 2 6.3 3.2 1.3-.9 3.5-2.3 5-3.1v-.1c-.3-.1-.5-.4-.5-.8v-6.1c0-.4.2-.6.5-.7v-.1zm-17.9.9v11.4c-1.6.2-2.4 1.2-2.9 1.9l-1.6-1.2c0-1.7.5-3.1 1.1-4.5.6-1.3 1.2-2.9 1.2-4 0-1.9-1.1-3-3.6-5.4l.1-.1c1.4 1 3.7 1.8 5.7 1.9zm6.2 0l-2.5-4.5c-1.3.9-3.4 1.4-5.1 1.4-3.5 0-5.8-.6-7.1-1.4l-.2.2c1.1.9 2.9 2.4 2.9 5.8 0 1.4-.6 3.1-1 4.1-.5 1.2-.9 1.9-.9 3.6 0 3 1.7 4.7 4.3 6l.2-.2c-.9-.7-1.3-1.7-1.5-2.6l4.2 3.4c1.1-1.5 2.1-2 3.4-2 1.1 0 1.4.5 1.4.8s-.4.3-.4.6c0 .2.2.3.3.3.3 0 .6-.4.6-.7 0-2.1-1.9-3.6-3.8-3.6h-.8v-11.3c1.6 0 3.2-.4 4.4-1.1l.8 1.3.8-.1zm135.3 9.6c0-.2-.2-.3-.3-.3-.2 0-.4.4-1 .4-.9 0-1.6-.7-1.6-1.6 0-2.3 2.3-3.2 2.3-5.8 0-2.2-2.2-3.4-4.4-3.7l-.4.3c1.2.2 1.8.6 1.8 2 0 2-2.1 3.6-2.1 5.9 0 1.9 1.8 3.3 4.3 3.3.5 0 1-.1 1.2-.3 0 .1.2 0 .2-.2"
                ></path>
            </g>
            </g>
        </g>
        </g>
    </g>
    </g>
</svg>