<svg
    xmlns="http://www.w3.org/2000/svg"
    x="0"
    y="0"
    enableBackground="new 0 0 411.7 90.6"
    version="1.1"
    viewBox="0 0 411.7 90.6"
    xmlSpace="preserve"
>
    <g>
    <g fill="#707070" stroke="#FFF" strokeMiterlimit="10">
        <path d="M89.4 85.7L88.3 85.7 88.3 52.5 88.3 0 89.4 0 89.4 41.1z"></path>
        <path d="M1.6 4.7H72.1V26.4H1.6z"></path>
        <path d="M72.1 27.9H1.7C2.3 52.7 14.6 74.1 37 88.5c22-14.3 34.5-35.8 35.1-60.6zM72.1 4.7H1.6v21.7h70.5V4.7zm-49.2 15h-.7c-.1 0-.3.3-.3.4.1.7.1 1.3 0 2-.5.3-1 .3-1.6.1h-4.7c-.4-.1-.9 0-1.3.1 0 .2-.1.3-.3.3-.4.1-.9.1-1.3 0l-.4-.4h-5c-.7.2-1.5.1-2.2-.2v-2c0-.2-.2-.4-.4-.4-1 0-1.4 0-1.5-.7-.3-1.1.4-1.4 1.5-1.3H5c.4-.9.5-2 .3-3v-2.4c-1.1 0-2.3 0-1.8-1.3.1-.7.5-.8 1.5-.8.7-.4-.2-2.1.6-2.4h2.1c.1-.1.3-.1.4-.3.4 0 .9.1 1.3.3h3c.5.2.9.4 1.3.7.1-.1.3-.3.4-.3.5-.3 1.1-.4 1.7-.4h2.4c.6-.1.9-.3 1.3 0 .8-.2 1.6-.1 2.4.2.1.5.2 1.1.1 1.7v.1c0 .1 0 .1.3.1h.7c.6 0 1 .5 1 1.1v.1c-.3.7-.9.7-1.8.7-.1.4-.1.8 0 1.1v3.8c.1.7.7.3 1.6.6s.6 2.6-.9 2.5h0zm21.6 0h-.7c-.1 0-.3.3-.3.4.1.7.1 1.3 0 2-.5.3-1 .3-1.6.1h-4.3c-.4-.1-.9 0-1.3.1 0 .2-.1.3-.3.3-.4.1-.9.1-1.3 0l-.4-.4h-5.1c-.8.2-1.6.1-2.3-.2v-2c0-.2-.2-.4-.4-.4-1 0-1.4 0-1.5-.7-.3-1.1.4-1.4 1.5-1.3h.1c.4-1 .5-2 .3-3v-2.4c-1.1 0-2.3 0-1.8-1.3.1-.7.7-.9 1.7-.9.7-.4-.1-2.1.6-2.4h2.1c.1-.1.3-.1.4-.3.4 0 .9.1 1.3.3h3c.5.2.9.4 1.3.7.1-.2.3-.3.6-.3.5-.3 1.1-.4 1.7-.4h2c.6-.1 1-.3 1.3 0 .8-.2 1.6-.1 2.4.2.2.6.2 1.2.1 1.8v.1c0 .1 0 .1.3.1h.7c.6 0 1 .5 1 1.1v.1c-.3.7-.8.7-1.8.7-.1.4-.1.8 0 1.1v3.8c.1.7.7.3 1.6.6.4 1.1.5 2.6-.9 2.5h0zm24.2 0H68c-.2 0-.3.3-.3.4.1.7.1 1.3 0 2-.5.3-1 .3-1.6.1h-6.3c-.4-.1-.9 0-1.3.1 0 .2-.1.3-.3.3-.4.1-.9.1-1.3 0l-.4-.4h-6c-.8.2-1.6.1-2.3-.2v-2c0-.2-.2-.4-.4-.4-1 0-1.4 0-1.6-.7-.3-1.1.4-1.4 1.6-1.3h.1c.4-1 .5-2 .3-3v-2.4c-1.1 0-2.3 0-1.8-1.3.1-.7.6-.9 1.6-.9.9-.3 0-2 .7-2.3h2.1c.1-.1.3-.1.4-.3.4 0 .9.1 1.3.3 1.3-.1 2.7-.1 4 0 .5.2.9.4 1.3.7l.4-.4c.5-.3 1.1-.4 1.7-.4 1.3.1 2.7.1 4 0 .8-.1.8-.3 1.3 0 .8-.2 1.6-.1 2.4.1.2.6.2 1.2.1 1.8v.1c0 .1 0 .1.3.1h.7c.6 0 1 .5 1 1.1v.2c-.3.7-.8.7-1.8.7-.1.4-.1.8 0 1.1v3.8c.2.7.7.3 1.6.6.7 1 .8 2.6-.8 2.5h0z"></path>
        <path d="M0 3.1v24.5c.3 25.8 13.3 48 36.4 62.7l.4.3.4-.3c23.1-14.7 36.1-37 36.4-62.7V3.1H0zm36.8 85.4C14.6 74.2 2.1 52.7 1.6 27.9H72c-.5 24.8-13 46.3-35.2 60.6zm35.4-62.2H1.7V4.7h70.5v21.6zM4.8 17.7c-1-.1-1.7.1-1.5 1.3.1.7.6.9 1.5.7.2 0 .4.2.4.4v2c.7.4 1.5.5 2.3.3h5l.4.4c.4.1.9.1 1.3 0h.3c.4-.2.8-.2 1.3-.1h4.5c.5.1 1.1.1 1.6-.1.1-.7.1-1.3 0-2 0-.1 0-.4.3-.4h.7c1.4 0 1.3-1.3.6-1.9s-1.4.1-1.6-.6v-4c-.1-.4-.1-.8 0-1.1 1 0 1.6 0 1.8-.7.1-.6-.2-1.2-.7-1.4h-.7c-.4 0-.3 0-.3-.1v-.1c.1-.6 0-1.2-.1-1.8-.8-.3-1.6-.3-2.4-.1-.3-.4-.7-.1-1.3 0h-2.5c-.6 0-1.2.1-1.7.4-.2 0-.4.1-.6.3-.4-.3-.8-.6-1.3-.7h-3c-.3-.4-.8-.4-1.2-.5-.1.1-.3.1-.4.3H5.4c-.7.3.1 2-.6 2.4-1 0-1.4 0-1.5.9-.3 1.1.9 1.1 2 1.3v2.4c.2.8.1 1.7-.5 2.5h0zm7.8 3h-.1c-1.7-.1-3 .1-4.8 0-.4-.6.4-1.1 1-1.1 1.2.2 2.4.2 3.5.1.3 0 .6.1.8.3.2.4-.2.4-.4.7h0zm7.7-12c.3-.4.9-.5 1.3-.1 0 0 0 0 0 0l.1.1c.3.4-.3 1.7.3 2h1c.2 0 .3 0 .4.1.3.1.3.6.1.9s-.3.3-.4.3h-.9c-.3 0-.6.9-.6 1.6-.1 1.4-.1 2.7 0 4.1 0 .7.9.3 1.4.4.1.1.4.3.4.4.3 1.4-1.7.3-2 1.1s.1 1.3 0 1.8c-.1.3-.4.6-.7.4H15c-.3-.1-.3-.3-.3-.6 0-.2.1-.3.3-.3h4c.6.1 1.2 0 1.7-.3V9.5c0-.3-.2-.7-.4-.8h0zm-.9.4c0-.1 0-.1.1-.3s.3.2.5.3.3.4.4.6c.1.9.1 1.8 0 2.7v1.3c.1 2 0 5.9 0 6.4s0 .3-.1.1c-.3-.4-.5-.8-.7-1.3-.2-4.3-.1-6-.2-9.8h0zm.3 11c.1.1.3.3.3.4 0 .4-1 .3-1.4.3h-3.8c-.2-.2-.3-.5-.1-.7l.1-.1c.4-.6 3 0 4.3-.4.2 0 .5.2.6.5zm-5.8-5.6V9.3c0-.3.1-.5.3-.7.3-.2.6-.4 1-.6.9 0 1.9 0 2.8.1h.6c.3 0 .4.3.6.6v10.5c-.4.2-.9.3-1.4.3h-2.6c-.2 0-.4.1-.6.3-.1.1-.3.1-.6.1-.1-.5-.1-1 0-1.4-.1-1.5-.1-3.2-.1-4h0zm.5 6.6c.1.1.1.3.1.6s-.1.5-.3.7c-.1.1-.3.3-.4.3h-.6c-.1 0-.3-.1-.4-.3s-.3-.3-.3-.4v-.4c0-.4.2-.7.6-.9h0c.3-.2.8-.2 1.1.2l.1.1c.1 0 .1.1.1.1h0zm-6.2-3.3V8.5h0c.2-.2.4-.3.7-.3h1.4c.3 0 .6.1.9.1.2 0 .4 0 .6-.1.7 0 1.4.3 1.9.9v7.5c.1 1 0 2.1-.1 3.1-.4 0-.8-.1-1.1-.3-1-.1-2.1.1-3.1 0-.3 0-.6-.1-.8-.3-.4-.4-.4-.8-.4-1.3zm-.7-9c.1 0 .3 0 .3.1h0v7.4c.1 1 0 2.1-.3 3.1-.1.3-.4.5-.7.6-.1-2.4 0-4.7 0-6.4v-3c-.1-.7.2-1.4.7-1.8zm-2 8.8V15c.1-1 0-2-.1-3-.4-.4-1.3.3-1.7-.4-.2-.4 0-.8.4-1h.2c.6-.1 1 .3 1.1-.3V8.8c0-.2.1-.4.3-.4h.1c.4-.1.8 0 1.1.3 0 .1-.1.3-.1.4s-.1.2-.3.2c-.1.8-.1 1.6 0 2.4v6.9c0 .7-.3 2.3.3 2.4.5.1 1 .1 1.6 0h3.4c.2 0 .4.1.6.3.1.3 0 .4-.1.6H6c-.3-.2-.4-.6-.3-1 0-.7.3-1.4-.3-1.7h-1c-.3 0-.5-.3-.6-.6 0-.2.1-.4.3-.6h.6c.3 0 .9.3.8-.4h0zm3.3-5.7h0v-.3h2.1v.4h-.1c-.3 0-.4 0-.4.3v.4l.9 2.7.9-3v-.3c0-.3-.1-.3-.4-.3h0v-.3h1.6v.5h0c-.1 0-.4.1-.4.3-.1.3-.1.4-.3.7l-1.1 4.3h-.4l-1.4-4.4c-.6-.9-.6-.9-1-1h0zM52.5 13h-.3v-1.7h.3c0 .1.1.1.3.1h3c.1 0 .1 0 .1-.1h.3V13h0c-.1-1-.1-1-.6-1H55v3.8c0 .6 0 .7.4.7h.1v.5h-2.3v-.3h.1c.4 0 .4 0 .4-.7v-4H53c-.3 0-.3 0-.5 1zM18 17h-3.4v-.3h.3c.3 0 .4 0 .4-.7v-3.3c0-.7 0-.7-.4-.7h0v-.4h3.3v1.3h-.3c0-.7-.1-.7-.4-.7h-1.1v2h.9c.4 0 .4 0 .4-.6h.3v1.8h-.3v-.3c0-.4 0-.6-.4-.6h-.9v1.1c-.2.2-.2.5 0 .7h1c.4 0 .6-.1.7-.9h.3L18 17zm45.2-1.1c0-.4-.2-.8-.6-1l-.3-.3c-.3-.2-.5-.4-.6-.7-.2-.3-.3-.7-.3-1-.1-.7.3-1.3 1-1.4h.4c.3 0 .6.1.8.1h.1l.1 1.4h-.1c0-.6-.4-1-1-1.1-.3 0-.6.3-.6.6 0 .4.3.7.6.9h.1l.3.1.4.3c.4.4.7 1 .7 1.6.1.8-.5 1.6-1.3 1.7-.2 0-.5 0-.7-.1H62v0h-.3l-.1-1.7h.3c0 .6.4 1.1 1 1.3.2-.2.3-.5.3-.7h0zm-15 1.8c-1-.1-1.7.1-1.6 1.3.1.7.6.9 1.6.7.2 0 .4.2.4.4v2c.7.4 1.5.5 2.3.3h6l.4.4c.4.1.9.1 1.3 0h.3c.4-.2.8-.2 1.2-.2h6.1c.5.1 1.1.1 1.6-.1.1-.7.1-1.3 0-2 0-.1 0-.4.3-.4h.7c1.4 0 1.3-1.3.6-1.9s-1.4.1-1.6-.6v-4c-.1-.4-.1-.8 0-1.1 1 0 1.6 0 1.8-.7.1-.6-.2-1.2-.7-1.4H68c-.4 0-.3 0-.3-.1v-.1c.1-.6 0-1.2-.1-1.8-.8-.4-1.6-.4-2.4-.2-.3-.4-.7-.1-1.3 0-1.3.1-2.7.1-4 0-.6 0-1.2.2-1.7.4-.2 0-.4.1-.6.3-.4-.3-.8-.6-1.3-.7-.8-.3-2.8 0-4 0-.4-.2-.8-.2-1.2-.3-.2.1-.3.1-.5.3h-2.1c-.7.3.2 2-.6 2.4-1 0-1.6 0-1.6.9-.3 1.3.8 1.3 1.8 1.3v2.4c.4.7.4 1.6.1 2.5h0zm8.7 3h-.3c-1.7-.1-4 .1-5.8 0-.4-.6.6-1.1 1-1.1 1.5.2 3 .2 4.5.1.3 0 .6.1.8.3.3.4-.1.4-.2.7h0zm1.7 1.6c-.1.1-.3.3-.4.3h-.6c-.2 0-.3-.1-.3-.3-.1-.1-.3-.3-.3-.4v-.4c0-.4.2-.7.6-.9h0c.4-.2.8-.2 1.1.1l.1.1c.1.1.1.3.1.6.1.3-.1.6-.3.9zm7.5-13.8c.3-.4.9-.5 1.3-.1 0 0 0 0 0 0l.1.1c.3.4-.3 1.7.3 2h1c.2 0 .3 0 .4.1.3.1.3.6.1.9-.1.1-.3.3-.4.3h-.8c-.3 0-.6.9-.6 1.6-.1 1.4-.1 2.7 0 4.1 0 .7.8.3 1.4.4.1.1.4.3.4.4.3 1.4-1.7.3-2 1.1s.1 1.3 0 1.8c-.1.3-.4.6-.7.4h-7.2c-.3-.1-.3-.3-.3-.6 0-.2.1-.3.3-.3h5.2c.6.1 1.2 0 1.7-.3v-11c-.1-.1-.2-.5-.2-.9-.1.2-.1.1 0 0h0zm-.8.5c0-.1 0-.3.2-.3h0c.1 0 .3.1.4.3s.3.4.4.6c.1.9.1 1.8 0 2.7v1.3c.1 2 0 5.9 0 6.4s0 .3-.2.1c-.3-.4-.5-.8-.7-1.3-.2-4.2-.1-5.9-.1-9.8zm.1 11c.1.1.3.3.3.4 0 .4-1 .3-1.4.3h-5.4c-.2-.2-.3-.5-.1-.8l.1-.1c.4-.6 4.4 0 5.8-.4.3.1.6.3.7.6h0zm-13.9-2.2V8.5h0c.2-.2.4-.3.7-.3h1.3c.4 0 1.6.1 2 .1s.3 0 .6-.1c.7 0 1.4.3 1.8.9v1.1h.3v-.7c0-.2.1-.4.3-.6.3-.2.6-.4 1-.6.8-.1 3.4 0 4.4 0h.6c.3 0 .4.3.6.6v10.5c-.4.2-.9.3-1.4.3h-4.1c-.2 0-.4.1-.6.3-.1.1-.3.1-.6.1-.1-.5-.1-1 0-1.4H58c0 .4 0 .9-.1 1.3-.4 0-.8-.1-1.1-.3-1-.1-3.1.1-4.1 0-.3 0-.6-.1-.8-.3-.5-.4-.5-1-.4-1.6h0zm-.7-9c.1 0 .3 0 .3.1h0v7.4c.1 1 0 2.1-.3 3.1-.1.3-.4.5-.7.6-.1-2.4 0-4.7 0-6.4v-3c-.1-.7.2-1.4.7-1.8zm-2 8.8V15c.1-1 0-2-.1-3-.4-.4-1.3.3-1.7-.4-.2-.4 0-.8.3-1h.4c.6-.1 1 .3 1.1-.3V8.8c0-.2.1-.4.3-.4h.1c.4-.1.8 0 1.1.3 0 .1-.1.3-.1.4s-.1.2-.2.2c-.1.8-.1 1.6 0 2.4v6.9c0 .7-.3 2.3.3 2.4.5.1 1 .1 1.6 0h4.3c.2 0 .4.1.6.3.1.3 0 .4-.2.6h-7.2c-.4-.2-.5-.6-.4-.9 0-.7.3-1.4-.3-1.7h-1c-.3 0-.5-.3-.6-.6 0-.2.1-.4.3-.6.2-.1.3-.1.6-.1s.7.3.8-.4h0zm9.2-1h0c-.6 0-.6-.1-.6-.3V16l.3-1H59l.3 1v.4c0 .1 0 .3-.2.3h-.4v.4h2v-.4h0c-.3-.1-.5-.4-.6-.7L59 11.6h-1v.3L57 16c-.1.6-.3.9-.6.9h0v.4h1.7v-.7H58zm.3-4l.6 1.8h-1l.4-1.8zm3 39.7c-.7-.6-1.7-1-2-1.3-.3-.5-.4-1.1-.6-1.7-.3-.5-.5-.9-.8-1.4-.6-.8-2-1.7-2.4-1-.4.9-1 1.7-1.7 2.4-.8.6-1.6 1.1-2.5 1.4-3.4.3-6.9.3-10.3.2-.4-.1-.6-.5-.6-.8-.1-2.9 0-5.9.3-8.8.5-.9 1.2-1.7 2-2.3 1-1 2.5-1.3 2.5-2-.5-1-1.3-1.8-2.3-2.3-1.1-.6-2.4-.6-2.8-.8-.6-.7-1.1-1.4-1.6-2.3-.5-.7-1.2-1.3-1.8-1.8-.7.5-1.3 1.2-1.8 1.8-.5.8-1 1.6-1.6 2.3-.4.3-1.7.3-2.8.8-1 .5-1.8 1.3-2.3 2.3 0 .7 1.7.8 2.7 1.7.9.5 1.6 1.3 2 2.3.3 3 .3 6 .3 8.8.1.4-.2.8-.6.8-3.4.2-6.9.1-10.3-.1-.9-.3-1.8-.8-2.5-1.4-.7-.7-1.3-1.5-1.7-2.4-.3-.7-1.7.3-2.4 1-.3.4-.6 1-.9 1.4-.1.6-.3 1.2-.6 1.7-.3.3-1.3.7-2 1.3-.9.6-1.5 1.5-2 2.4.5.7 1.1 1.4 1.8 1.8.8.4 1.5.8 2.3 1.3.2.8.5 1.6.9 2.4.6.9 1.3 1.7 2.3 2.3.7.3 1.1.3 1.3 0s.9-1.6 1.1-2.3c.6-.9 1.4-1.7 2.4-2.3 1-.4 2.1-.6 3.1-.6h6.8c.6 0 1 .4 1 1V70c0 1.3-.5 2.6-1.4 3.5-1 1-2.3 1.8-3.7 2.2-.6.1 0 .7.3 1.1.5.6 1.2 1.1 1.8 1.6.9.4 1.8.8 2.7 1 .7.4 1.2 1.1 1.3 1.8.6 1.2 1.4 2.2 2.4 3 1-.8 1.8-1.8 2.4-3 .2-.7.7-1.4 1.3-1.8.9-.2 1.8-.5 2.7-1 .7-.4 1.3-1 1.8-1.6.3-.4.8-1 .3-1.1-1.4-.4-2.7-1.2-3.7-2.3-.8-1-1.3-2.2-1.4-3.5V58.2c0-.5.5-1 1-1h6.8c1.1 0 2.1.2 3.1.6 1 .6 1.8 1.3 2.4 2.2.4.7 1 2 1.1 2.3s.6.1 1.3 0c.9-.6 1.7-1.3 2.3-2.3.3-.8.6-1.6.8-2.4.8-.4 1.5-.8 2.2-1.2.7-.5 1.4-1.1 1.8-1.8-.4-.8-.9-1.6-1.5-2.3h0zm-44.2-2.5c.2-.3.4-.6.7-.8h.3c.3.3.4.6.7.8.2.5.3.9.3 1.4 0 .6-.1 1.1-.3 1.7-.1.4-.2.7-.3 1.1-.1.3-.1.7-.3 1v.6l-.1.1H18v-.6c0-.3-.1-.7-.3-1-.1-.4-.2-.7-.3-1.1-.2-.6-.3-1.1-.3-1.7-.2-.4-.2-1 0-1.5h0zm2 6.4c.2 0 .3.1.3.3 0 .2-.1.3-.3.3h-2.3c-.2 0-.3-.1-.3-.3 0-.2.1-.3.3-.3h2.3zm-3.8-2.1h-.6c-.1.1-.3.1-.4.4-.1.2-.2.4-.1.6-.1-.1-.4-.3-.6-.4-.2-.2-.3-.4-.3-.7 0-.4.1-.7.3-1 .4-.4.9-.6 1.4-.6.4 0 .7.1 1 .3.4.3.7.6 1 1 .2.3.3.6.3 1 .1.3.1.7 0 1 0 .1-.1.1-.3 0h0v-.1c0-.1-.1-.3-.3-.4-.2-.3-.4-.5-.7-.7-.1-.4-.4-.5-.7-.4 0 0 0 0 0 0h0zm4 4.4c-.3 0-.6-.1-.9-.3v.6c0 .2-.1.4-.3.6h-.3c-.2-.1-.3-.3-.3-.6v-.6c-.3.2-.5.3-.9.3-.3 0-.7-.3-.6-.3l.9-.4c.1-.2.3-.3.3-.4h1.4c.1.1.1.3.3.4s.4.4.7.4.1.1-.3.3zm3.4-4.7c0 .3-.1.4-.3.7-.2.2-.4.3-.6.4 0-.1-.1-.4-.1-.6l-.5-.3h-.6c-.3 0-.6.1-.9.3-.3.2-.4.4-.7.7s-.1.3-.3.4v.1c0 .1-.1.1-.3 0h0v-1c.1-.3.3-.7.4-1 .2-.4.6-.8 1-1 .3-.2.6-.3 1-.3.5 0 1 .2 1.4.6.3.4.4.7.5 1h0zM38.8 36c.3-.2.6-.3 1-.3.5 0 1 .2 1.4.6.2.3.3.6.3 1 0 .3-.1.5-.3.7-.2.2-.4.3-.6.4 0-.1-.1-.4-.1-.6l-.4-.4h-.6c-.3 0-.6.1-.8.3-.3.1-.4.4-.7.7s-.1.3-.3.4v.2c0 .1-.1.1-.3 0h0v-1c.1-.3.1-.7.3-1 .3-.4.7-.7 1.1-1zm-1.7 41v.6c0 .1-.1.1-.1.1-.1 0-.1-.1-.1-.1V77c0-.3-.1-.7-.1-1-.1-.4-.2-.8-.4-1.1-.2-.6-.3-1.1-.3-1.7 0-.5.1-1 .3-1.4.2-.3.5-.5.8-.8h.3c.3.3.4.6.7.8.2.5.3.9.3 1.4 0 .6-.1 1.1-.3 1.7-.1.3-.2.7-.3 1-.6.3-.8.7-.8 1.1zm.9 1.2c.1 0 .4 0 .4.3s0 .4-.3.4h-2.4c-.1 0-.4 0-.4-.3s0-.4.3-.4H38zm-.6-19.9v.6c0 .2-.1.4-.3.6h-.3c-.2-.1-.3-.3-.3-.6v-.6c-.3.2-.5.2-.8.3-.3 0-.7-.3-.6-.3l.8-.4c.1-.1.3-.3.3-.4H38c.1.1.1.3.3.4.2.2.5.4.8.4.1 0-.2.3-.6.3-.3 0-.7-.1-1.1-.3zm.6-1.4h-2.3c-.2 0-.3-.1-.3-.3 0-.2.1-.3.3-.3H38c.2-.1.4 0 .4.2.1.2 0 .3-.1.4H38zm-.8-1.8v.6l-.2.1-.1-.1v-.6c0-.3-.1-.7-.3-1-.1-.4-.2-.7-.3-1.1-.2-.6-.3-1.1-.3-1.7 0-.5.1-1 .3-1.4.2-.3.5-.6.8-.9h.3c.3.3.4.6.7.8.2.5.3.9.3 1.4 0 .6-.1 1.2-.3 1.7-.1.4-.2.7-.3 1.1-.5.4-.5.7-.6 1.1h0zm.1-13.5v.6c0 .2-.1.4-.3.6h-.3c-.3-.1-.4-.4-.4-.7v-.6c-.3.2-.5.3-.8.3-.3 0-.7-.3-.6-.3.3-.1.5-.3.7-.4.1-.1.3-.3.3-.4h1.7c.1.1.1.3.3.4s.6.4.8.4-.1.3-.6.3c-.3 0-.5-.1-.8-.2zm-2-1.7c0-.1.1-.3.4-.3H38c.1 0 .3.1.4.3s-.1.3-.4.3h-2.3c-.3 0-.4-.1-.4-.3h0zm.7-6.6c.2-.3.4-.6.7-.8h.3c.3.3.4.6.7.8.2.4.3.9.3 1.4 0 .6-.1 1.1-.3 1.7-.1.4-.2.7-.3 1.1-.2.3-.2.7-.3 1v.6c0 .1-.1.1-.1.1l-.1-.1v-.6c0-.4-.1-.7-.3-1-.3-.6-.1-.6-.3-1.1-.2-.6-.3-1.1-.3-1.7-.1-.5-.1-1 .1-1.4H36zM33 38c-.1.2-.2.4-.2.6-.1-.2-.4-.3-.6-.4-.2-.2-.3-.4-.3-.7 0-.3.1-.7.3-1 .4-.3.9-.5 1.4-.6.4 0 .7.1 1 .3.4.3.7.6 1 1 .2.3.3.7.3 1v1c0 .1-.1.1-.3 0h0V39c0-.1-.1-.3-.3-.4-.2-.3-.4-.6-.7-.7-.2-.3-.5-.4-.8-.4h-.6l-.4.4.2.1zm0 16.6c-.1.2-.2.4-.2.6-.1-.1-.4-.3-.6-.4-.1-.3-.2-.5-.2-.8 0-.3.1-.7.3-1 .4-.3.9-.5 1.4-.6.4 0 .7.1 1 .3.4.3.7.6 1 1 .1.3.3.7.4 1 .1.3.1.7 0 1 0 .1-.1.1-.3 0h0v-.1c-.1-.1-.1-.3-.3-.4-.2-.3-.4-.5-.7-.7-.4-.3-.9-.4-1.4-.3-.1 0-.3.1-.4.3v.1zm1 21.3h-.6c-.1.1-.2.1-.4.4-.1.2-.2.4-.2.6-.1-.1-.4-.3-.6-.4-.1-.2-.2-.5-.2-.7 0-.3.1-.7.3-1 .4-.4.9-.6 1.4-.6.3 0 .7.1 1 .3.4.3.7.6 1 1 .2.3.3.7.3 1 .1.3.1.7 0 1 0 .1-.1.1-.3 0h0v-.1c0-.1-.1-.3-.3-.4-.2-.3-.4-.5-.7-.7-.2-.3-.4-.4-.7-.4zm4.1 4.5c-.3 0-.6-.1-.8-.3v.6c0 .2-.1.4-.3.6h-.3c-.2-.1-.3-.3-.3-.6v-.6c-.3.2-.5.2-.8.3-.3 0-.7-.3-.6-.3.3-.1.5-.2.7-.4.1-.2.3-.3.3-.4h1.7c.1.1.1.3.3.4s.6.4.8.4c-.2.2-.4.3-.7.3zm3-5.5c.2.3.3.6.3 1 0 .3-.1.5-.3.7-.2.2-.4.3-.6.4 0-.1-.1-.4-.1-.6l-.5-.4h-.6c-.3 0-.6.1-.8.3-.3.1-.4.4-.7.7s-.1.3-.3.4v.1c0 .1-.1.1-.3.1-.1 0-.1-.1-.1-.1-.1-.3-.1-.7 0-1 .1-.3.1-.7.3-1 .2-.4.6-.8 1-1 .3-.2.6-.3 1-.3.6 0 1.2.2 1.7.7h0zm.4-21.1c0 .3-.1.4-.3.7-.2.2-.4.3-.6.4 0-.1-.1-.4-.1-.6l-.4-.3c-.5-.2-1-.1-1.4.3-.3.2-.4.4-.7.7s-.1.3-.3.4v.1c0 .1-.1.1-.3 0h0c-.2-.3-.2-.7 0-1 .1-.3.1-.7.3-1 .2-.4.6-.8 1-1 .3-.2.6-.3 1-.3.5 0 1 .2 1.4.6.2.3.4.7.4 1h0zm13.2-4c.2-.3.4-.6.7-.8h.3c.3.3.4.6.7.8.2.4.3.9.3 1.4 0 .6-.1 1.1-.3 1.7-.1.4-.2.7-.3 1.1-.1.3-.1.7-.3 1v.6l-.2.1-.1-.1V55c0-.3-.1-.7-.3-1-.1-.4-.1-.7-.3-1.1-.2-.6-.3-1.1-.3-1.7-.1-.4-.1-.9.1-1.4h0zm2 6.4c.1 0 .3.1.4.3s-.1.3-.4.3h-2.3c-.1 0-.4-.1-.4-.3s.1-.3.4-.3h2.3zM52.8 54h-.6c-.2.1-.3.1-.4.4-.1.2-.2.4-.1.6-.1-.1-.4-.3-.6-.4s-.1-.4-.3-.7c0-.3.1-.7.3-1 .4-.3.9-.5 1.4-.6.4 0 .7.1 1 .3.4.3.7.6 1 1 .2.3.3.7.3 1v1c0 .1-.1.1-.3 0h0v-.1c-.2-.4-.5-.8-.8-1.1-.2-.3-.5-.4-.9-.4h0zm4.1 4.4c-.3 0-.6-.1-.8-.3v.6c0 .2-.1.4-.3.6h-.3c-.2-.1-.3-.3-.3-.6v-.6c-.3.2-.5.3-.8.3-.3 0-.7-.3-.6-.3.3-.1.5-.3.7-.4.1-.1.3-.3.3-.4h1.7c.2.1.2.3.3.4s.4.4.7.4-.3.3-.6.3zm3-3.8c-.2.2-.3.3-.6.4 0-.1-.2-.4-.2-.6l-.3-.4c-.5-.1-1 0-1.4.3-.3.2-.5.4-.6.7-.1.1-.1.3-.3.4v.1c0 .1-.1.1-.3 0h0v-1c.1-.3.1-.7.3-1 .2-.4.6-.8 1-1 .3-.2.6-.3 1-.3.5 0 1 .2 1.4.6.3.2.4.6.3 1 0 .3 0 .6-.3.8h0zM26.6 17.7c-1-.1-1.7.1-1.5 1.3.1.7.6.9 1.5.7.2 0 .4.2.4.4v2c.7.4 1.5.5 2.3.3h5.1l.4.4c.4.1.9.1 1.3 0h.1c.4-.2.8-.2 1.3-.1h4.3c.5.1 1.1.1 1.5-.1.2-.7.2-1.3 0-2 0-.1.2-.4.3-.4h.7c1.4 0 1.3-1.3.6-1.9s-1.4.1-1.6-.6v-4c-.1-.4-.1-.8 0-1.1 1 0 1.6 0 1.8-.7.1-.6-.2-1.2-.7-1.4h-.8c-.3 0-.3 0-.3-.1v-.1c.1-.6 0-1.2-.1-1.8-.8-.3-1.6-.3-2.4-.1-.3-.4-.7-.1-1.3 0h-2c-.6 0-1.2.1-1.7.4-.2 0-.4.1-.6.3-.4-.3-.8-.5-1.2-.7h-3c-.4-.1-.9-.1-1.3-.3-.1.1-.3.1-.4.3h-2.1c-.7.3.1 2-.6 2.4-1 0-1.5 0-1.7.9-.3 1.3.9 1.3 1.9 1.3v2.4c.2.6.1 1.5-.2 2.3zm7.8 3h-.1c-1.7-.1-3 .1-4.8 0-.4-.6.4-1.1.9-1.1 1.2.2 2.5.2 3.7.1.3 0 .6.1.8.3.1.4-.4.4-.5.7h0zm7.4-12c.3-.4.9-.5 1.3-.1 0 0 0 0 0 0l.1.1c.3.4-.3 1.7.3 2h1c.2 0 .3 0 .4.1.3.1.3.6.1.9s-.2.3-.4.3h-.8c-.3 0-.6.9-.6 1.6-.1 1.4-.1 2.7 0 4.1 0 .7.8.3 1.4.4.3.1.4.3.4.4.3 1.4-1.7.3-2 1.1s.1 1.3 0 1.8c-.1.3-.4.6-.7.4h-5.2c-.2-.1-.3-.3-.3-.6 0-.2.1-.3.3-.3 0 0 0 0 0 0h3.3c.6.1 1.2 0 1.7-.3V9.5c-.1-.3-.2-.6-.3-.8-.2-.1-.2-.2 0 0h0zm-.9.4c0-.1 0-.1.1-.3s.3.1.4.3.3.4.4.6c.1.9.1 1.8 0 2.7v1.3c.1 2 0 5.9 0 6.4s0 .3-.1.1c-.3-.4-.5-.8-.7-1.3-.1-4.3-.1-6-.1-9.8h0zm.2 11c.1.1.3.3.3.4 0 .4-1 .3-1.4.3h-3.4c-.2-.2-.3-.5-.1-.7l.1-.1c.4-.6 2.5 0 4-.4.2 0 .5.2.5.5h0zm-5.4-5.6V9.3c0-.2.1-.5.1-.7.3-.2.6-.4 1-.6.8-.1 1.7-.1 2.5 0h.6c.3 0 .4.3.6.6v10.5c-.4.3-.9.4-1.4.3h-2.3c-.2 0-.4.1-.6.3-.1.1-.3.1-.6.1-.1-.5-.1-1 0-1.4v-3.9h.1zm.6 6.6c.1.1.1.3.1.6s-.1.5-.3.7c-.1.1-.3.3-.4.3h-.6c-.1 0-.3-.1-.4-.3s-.3-.3-.3-.4v-.4c0-.4.2-.7.6-.9h0c.3-.2.8-.2 1.1.2 0 0 0 .1.1.1 0 0 .1 0 .1.1zM30 17.8V8.5h0c.2-.2.4-.3.7-.3h1c.4 0 .8.1 1.4.1.2 0 .4 0 .6-.1.7 0 1.4.3 1.8.9v7.5h-.1c-.1 0-.1-.1-.3-.3l-.4-.9-.2-.3-.4-.9c.5-.3.9-.8.9-1.4.1-.6-.2-1.1-.7-1.4-.4-.1-.7-.2-1.1-.3-.5 0-1 0-1.6.1h-.1v.4h.1c.3 0 .4 0 .4.7v3.3c0 .7 0 .7-.4.7h-.1v.4h2.1v-.3h-.1c-.3 0-.4 0-.4-.7v-1.1h.4l.4.9.3.4c.1.4.4.8.7 1 .3.2.6.3 1 .3h.3c.1.8 0 1.7-.1 2.5-.4-.1-.8-.1-1.1-.4-1-.1-2.3.1-3.1 0-.3 0-.6-.1-.9-.3-1-.3-1-.7-1-1.2h0zm3.7-4.8c.2.5-.1 1.1-.6 1.3h-.5v-2.4h.1c.6 0 1 .4 1 1v.1h0zm-4.4-4.4c.1 0 .3 0 .3.1h0v7.4c.1 1 0 2.1-.3 3.1-.1.3-.4.5-.7.6-.1-2.4 0-4.7 0-6.4v-3c-.1-.6.2-1.3.7-1.8h0zm-2 9V15c.1-1 0-2-.1-3-.4-.4-1.3.3-1.7-.4-.2-.4 0-.8.4-1h.4c.6-.1 1 .3 1.1-.3V8.8c0-.2.1-.4.3-.4h.1c.4-.1.8 0 1.1.3 0 .2 0 .3-.1.4-.1.1-.1.3-.3.3-.1.8-.1 1.6 0 2.4v6.9c0 .7-.3 2.3.3 2.4.5.1 1 .1 1.6 0h3.4c.2 0 .4.1.6.3.1.3 0 .4-.1.6h-6.2c-.3-.1-.3-.6-.3-.9 0-.7.3-1.4-.3-1.7h-1c-.3 0-.5-.3-.6-.6 0-.2.1-.4.3-.6.1-.1.3-.1.6-.1s.5.2.5-.5h0zm11.8-.6h-1.8v-.3h0c.3 0 .4 0 .4-.7v-3.3c0-.6 0-.7-.4-.7h0v-.4h1.8v.4h0c-.3 0-.4 0-.4.7V16c0 .7 0 .7.4.7h0v.3zM134.7 50.5V31.2h-14v19.3h-11.4V3.3h11.4v17.8h14V3.3h11.4v47.2h-11.4zm48.9 0l-1.8-7.2h-13.7l-1.8 7.2h-12.5L168 3.3h13.8l14.1 47.2h-12.3zM175 15.2l-4.7 18.1h9.2L175 15.2zm49.5 35.3l-6.4-16.2h-4.3v16.2h-11.4V3.3h19.3c8.1-.3 14.9 5.9 15.3 14v1.3c0 8-4.2 12-7.7 13.7l8 18.3-12.8-.1zm.8-31.6c.3-2.7-1.7-5.2-4.5-5.5 0 0 0 0 0 0h-6.9v11.1h6.1c2.7.2 5.1-1.9 5.3-4.7v-.9zm30.2 31.6l-14-47.2h12.4l8.7 33.7 8.5-33.7h12.2l-14.1 47.2h-13.7zm55.4 0l-1.8-7.2h-13.7l-1.8 7.2h-12.4l14-47.4H309l14.1 47.2-12.2.2h0zm-8.6-35.3l-4.5 18.1h9.2l-4.7-18.1zm49.6 35.3l-6.4-16.2h-4.3v16.2h-11.4V3.3H349c8.1-.3 14.9 5.9 15.3 14v1.3c0 8-4.2 12-7.7 13.7l8 18.3-12.7-.1zm.7-31.6c.3-2.7-1.7-5.2-4.5-5.5 0 0 0 0 0 0h-6.9v11.1h6.1c2.7.2 5.1-1.9 5.3-4.7v-.9zm21 31.6V3.3h16.5c13.6 0 21.5 9.6 21.5 23.6s-7.6 23.6-21.3 23.6h-16.7zm26.3-23.6c0-8.8-3.4-13.7-9.8-13.7H385v27.3h5.1c6.1 0 9.8-5.3 9.8-13.6h0zM107.3 80.8l1.6-2.6c1 1.1 2.5 1.8 4 1.8 1 .2 1.9-.4 2.2-1.4v-.4c0-2.9-7.3-1.9-7.3-7.4.1-2.7 2.3-4.9 5-4.8h.4c1.8 0 3.6.6 5 1.8l-1.6 2.5c-.9-.9-2.2-1.4-3.5-1.4-1-.1-1.8.6-2 1.5v.2c0 2.6 7.3 1.8 7.3 7.3 0 2.9-1.9 5-5.6 5-2 .1-4-.7-5.5-2.1zm13.1-6.4c0-5 2.7-8.5 7-8.5 2.5 0 4.7 1.6 5.5 3.9l-2.7 1.2c-.3-1.3-1.4-2.2-2.7-2.2-2.3 0-3.6 2.3-3.6 5.6s1.4 5.6 3.6 5.6c1.3-.1 2.5-1.1 2.8-2.4l2.7 1.2c-.7 2.4-3 4.1-5.5 4.1-4.4 0-7.1-3.5-7.1-8.5zm24 8.2v-7h-5.5v7h-3.3V66.3h3.3v6.5h5.5v-6.5h3.3v16.4l-3.3-.1zm6.4-8.2c0-4.9 2.6-8.5 6.9-8.5s6.9 3.6 6.9 8.5-2.6 8.5-6.9 8.5-6.9-3.6-6.9-8.5zm10.4 0c0-3.1-1.2-5.6-3.5-5.6s-3.4 2.4-3.4 5.6 1.2 5.6 3.5 5.6 3.4-2.4 3.4-5.6h0zm6.3 0c0-4.9 2.6-8.5 6.9-8.5s6.9 3.6 6.9 8.5-2.6 8.5-6.9 8.5-6.9-3.6-6.9-8.5zm10.4 0c0-3.1-1.2-5.6-3.5-5.6s-3.5 2.4-3.5 5.6 1.2 5.6 3.5 5.6 3.5-2.4 3.5-5.6zm6.9 8.2V66.3h3.3v13.5h5.5v2.9l-8.8-.1zm18.1-8.2c0-4.9 2.6-8.5 6.9-8.5s6.9 3.6 6.9 8.5-2.6 8.5-6.9 8.5-6.9-3.6-6.9-8.5h0zm10.4 0c0-3.1-1.2-5.6-3.5-5.6s-3.5 2.4-3.5 5.6 1.2 5.6 3.5 5.6 3.5-2.4 3.5-5.6h0zm6.9 8.2V66.3h9.4v2.9h-6.1v3.7h5.9v2.7h-5.9v6.9l-3.3.1h0zm19.5 0V66.3h6c2.9.1 5 2.6 4.9 5.4v.1c-.1 2.7-2.2 4.8-4.9 4.9H243v5.9h-3.3zm7.8-11.1c.1-1.1-.7-2.2-1.8-2.3H242.9v4.7h2.4c1.1 0 2.1-.9 2.1-2v-.1c.1-.1.1-.2.1-.3h0zm6.7 5.4V66.3h3.3V77c-.2 1.5.9 2.9 2.4 3.1 1.5.2 2.9-.9 3.1-2.4h0V66.3h3.3V77c-.1 3.3-2.8 6-6.1 6s-6-2.7-6-6v-.1h0zm15.9 5.7V66.3h6.8c2.2-.2 4.1 1.4 4.3 3.5v.7c.1 1.7-1 3.3-2.7 3.8 1.8.5 3 2.1 2.9 4 .2 2.2-1.4 4.2-3.6 4.4H277l-6.9-.1h0zm7.8-11.6c.1-.9-.5-1.7-1.4-1.8h-3.1v3.7h2.7c.9.1 1.7-.6 1.8-1.5V71zm.2 6.7c.1-1-.6-1.9-1.6-2H273.2v4h2.9c.9.1 1.8-.6 1.9-1.5v-.1c.2-.1.2-.2.1-.4h0zm7 4.9V66.3h3.3v13.5h5.5v2.9l-8.8-.1zm12.2 0V66.3h3.3v16.4l-3.3-.1zm6.9-8.2c0-5 2.7-8.5 7-8.5 2.5 0 4.7 1.6 5.5 3.9L314 71c-.3-1.3-1.4-2.2-2.7-2.2-2.3 0-3.6 2.3-3.6 5.6s1.4 5.6 3.6 5.6c1.3-.1 2.5-1.1 2.8-2.4l2.7 1.2c-.7 2.4-3 4.1-5.5 4.1-4.4 0-7.1-3.5-7.1-8.5zm31.2 8.2v-7h-5.5v7h-3.3V66.3h3.3v6.5h5.5v-6.5h3.3v16.4l-3.3-.1zm7.2 0V66.3h9.4v2.9h-6.1v3.7h5.9v2.7h-5.9v4h6.1v2.9l-9.4.1h0zm22.5 0l-.8-2.9h-5.1l-.8 2.9h-3.6l4.9-16.4h4l4.9 16.4h-3.5zm-3.4-12.9l-1.9 7.1h3.8l-1.9-7.1zm9.8 12.9V66.3h3.3v13.5h5.5v2.9l-8.8-.1zm13.3 0V69.1h-3.7v-2.8h10.6v2.9H388v13.5l-3.2-.1h0zm19.2 0v-7h-5.5v7h-3.3V66.3h3.3v6.5h5.5v-6.5h3.3v16.4l-3.3-.1h0z"></path>
    </g>
    </g>
</svg>