<svg
    xmlns="http://www.w3.org/2000/svg"
    x="0"
    y="0"
    enableBackground="new 0 0 178.2 38"
    version="1.1"
    viewBox="0 0 178.2 38"
    xmlSpace="preserve"
>
    <g fill="#707070">
    <path d="M18.8 38h-5.4V16h-.1c-1.1 3.1-2.3 6.2-3.5 9.4h-1c-1.2-3.1-2.3-6.2-3.5-9.5v22.2H-.1C0 25.3 0 12.7 0 .1H4.4c1.7 4.4 3.3 8.7 5 13.1 1.7-4.4 3.4-8.8 5-13.1h4.4V38zM42.9 16.6V0H48v37.9h-4.1c-.1-.2-.3-.5-.3-.8 0-.5-.3-1-.3-1.5-.1-.5-.2-1-.4-1.5s-.1-1-.4-1.4c0-.7-.4-1.3-.5-2s-.3-1.4-.5-2c-.3-1.1-.4-2.2-.9-3.3-.1-1-.4-2-.7-2.9-.3-1.1-.4-2.2-.9-3.3-.2-.4-.2-.8-.2-1.2h-.1v19.8h-5.2V-.1h4.9c.1.2.3.5.3.7.1.7.3 1.5.5 2.2s.3 1.4.6 2.1c.2.6.3 1.1.5 1.7.1.6.2 1.1.4 1.7.4 1 .5 2.1.9 3.1.2.5.3 1 .4 1.4.1.7.4 1.4.6 2.2 0 .2.1.3.1.5 0 .1.2.3.1.4-.3.4 0 .5.1.7zM139.9 17.9V38h-5V.1h4.9c1.5 5.5 2.9 11 4.4 16.5h.1V.1h5.2V38h-4.2c-1.7-6.7-3.4-13.4-5.2-20.2-.1 0-.2 0-.2.1zM130.4 20.7c1.2 5.8 2.4 11.5 3.6 17.2h-5.5c-1.1-5.6-2.3-11.1-3.4-16.8h-.6v16.8h-5.4V0h10c.6 0 1.3.1 1.9.3 1.2.4 1.8 1.2 2.1 2.4.1.3.2.6.2.9s.1.6.1 1v11.2c0 .9-.2 1.8-.3 2.6-.1.3-.2.6-.4.9-.5.6-1 1.2-1.9 1.3-.1-.1-.3 0-.4.1zm-5.9-15.8v11.3h2.8l.6-.9V6.7c0-.5 0-1-.3-1.6-.2-.1-.4-.2-.7-.2h-2.4zM101.9 18.9v14.7c0 1.4-.5 2.7-1.7 3.6-.4.3-.9.5-1.4.6-.3.1-.5.1-.8.2h-6c-.7 0-1.3-.2-1.9-.5-1.1-.4-1.9-1.6-2.1-2.7-.1-.4-.1-.7-.1-1-.3-1.8-.1-3.7-.1-5.5v-5.6-5.6-5.6-5.6c0-.9 0-1.8.2-2.6.1-.6.3-1.2.6-1.6.3-.4.6-.8.9-1 .3-.3.8-.4 1.2-.6.3 0 .8-.1 1.2-.1h5.9c.5 0 1 .2 1.5.3 1.2.3 1.9 1.1 2.3 2.2.2.6.4 1.3.3 2v14.4zm-5.5 13.9c0-.3.1-.6.1-.9V5.5l-.6-.6h-1.6c-.4 0-.7 0-1 .2 0 .5-.3.9-.3 1.4v19.6c0 2.2-.2 4.4.2 6.5.1.2.3.3.4.4h2.3c.2 0 .3-.1.5-.2zM103.5 0h5.4v32.6l.4.4h2.4l.6-.6V0l.1-.1H117.8v33.5c0 .9-.3 1.9-.8 2.8-.4.6-1 1-1.6 1.3-.6.2-1.3.3-1.9.3h-5.6c-.5 0-1-.2-1.5-.3-1.2-.3-2.2-1.5-2.5-2.8-.1-.5-.1-1-.1-1.4-.3-11-.3-22.1-.3-33.3zM154.6 0h6.6c.2 0 .4 0 .6.3v1c0 .3.1.6.1 1 0 .3-.1.7.2 1v.1c.1.8.1 1.5.2 2.3 0 .4.1.7.2 1 0 .3-.1.7.2 1v.2c.1.7.1 1.5.2 2.2 0 .3.1.6.2 1 0 .3-.1.7.2 1v.1c-.1.7.2 1.4.2 2.2 0 .4.1.7.1 1.1 0 .3-.1.7.2 1v.2c.1.7.1 1.5.2 2.2 0 .3.1.6.2 1 0 .3-.1.7.2 1v.1c-.1.7.2 1.4.2 2.2 0 .3.1.7.1 1s-.1.7.2 1v.1c.1.7.1 1.5.2 2.2 0 .4.1.7.2 1 .1.3-.2.7.2 1.1v.2c.1.7.1 1.5.2 2.2 0 .3.1.6.2 1 0 .3-.1.7.2 1v.2c.1.7 0 1.5.2 2.2.1.6.1 1.3.1 1.9h-5.1c.1-.9-.2-1.8-.2-2.7 0-.3-.1-.7-.1-1s.1-.7 0-1c-.2-.7-.1-1.4-.2-2.2h-4.4c-.2.6-.2 1.3-.2 2 0 .3-.2.7-.2 1 0 .4.1.7-.1 1v.1c-.1.9-.1 1.8-.2 2.7h-5c0-.3-.1-.5.1-.8v-.1c.1-.7.1-1.3.2-2 0-.4.1-.7.2-1 .1-.3-.2-.7.2-1v-.1c.1-.7.1-1.3.2-2 0-.3.1-.6.2-1 .1-.3-.1-.6.1-.9.1-.1 0-.2 0-.3.1-.7 0-1.4.2-2.1.2-.6 0-1.3.3-1.9.2-.6.1-1.3.2-2 0-.4.1-.7.2-1 0-.4-.1-.7.2-1v-.1c.1-.7.1-1.3.2-2 0-.3.1-.6.2-1 .1-.3-.1-.6.2-.9v-.2c.1-.7.1-1.4.2-2.1 0-.3.1-.6.2-1 0-.3-.1-.7.2-1v-.1c.1-.7.1-1.3.2-2 0-.4.1-.7.2-1 .1-.3-.1-.7.2-1v-.1c.1-.7.1-1.3.2-2 0-.3.1-.6.2-1 .1-.3-.1-.6.1-.9v-.1c-.1-.7.2-1.3.2-2 0-.3.1-.6.1-.9V.7c-1.2-.2-1.1-.4-1-.7zm5.1 26c-.1-.5-.2-.9-.2-1.3-.1-.5.1-1-.1-1.4-.1-.3 0-.7 0-1.1s-.1-.7-.1-1.1c0-.5 0-1-.1-1.4-.1-.3 0-.7 0-1s-.1-.6-.1-1c0-.5 0-1-.1-1.5-.1-.3 0-.7 0-1.1 0-.4-.1-.7-.2-1.1 0-.5 0-.9-.1-1.4-.1-.4 0-.8 0-1.2s-.2-.8-.2-1.2c0-.7-.1-1.4-.2-2-.2.6-.4 1.1-.3 1.7 0 .2.1.4 0 .5-.3.4-.1.8-.1 1.1-.1.4-.1.8-.2 1.2-.1.4 0 .9-.1 1.3-.1.3 0 .8 0 1.2s-.2.7-.2 1.1c.1.9-.3 1.7-.1 2.5v.1c-.3.3-.2.8-.1 1.1 0 .4-.2.8-.2 1.2 0 .5 0 1-.1 1.5-.2.9-.1 1.7-.2 2.6 0 .2-.1.4-.1.6.7.1 1.8.1 3.1.1zM51.9 27.3h5.4v4.6c0 .3.1.6.1.8.4.3.7.3 1.1.3h1.8c.1-.1.2-.3.4-.5v-.2-5.8c0-.6-.3-1.2-.6-1.7-.3-.4-.5-.7-.8-1-.5-.6-1.1-1.2-1.6-1.8-.8-.9-1.6-1.8-2.3-2.7-.7-.7-1.3-1.5-2-2.3-.6-.6-1-1.4-1.3-2.2 0-.1-.1-.3-.1-.5 0-3.5-.1-7 0-10.5 0-1.7.9-3 2.7-3.7.6 0 1.2-.1 1.9-.1h5.3c.7 0 1.4.2 2 .5 1.1.5 1.7 1.4 2 2.5.1.6.1 1.1.1 1.7v6.1h-5.4V5.5l-.6-.6h-2.3l-.5.5v6.9c.2.4.5.9.8 1.4 0 .1.1.1.1.2.6.6 1.1 1.2 1.7 1.8.3.3.5.6.8.9s.7.5.8.9l.1.1c.6.6 1.2 1.2 1.7 1.9.7.9 1.5 1.6 2.1 2.5.4.6.6 1.2.6 1.9v9.9c0 1-.4 1.9-1.1 2.7-.6.6-1.3 1-2.2 1.2-.2.2-.6.3-1 .3h-5.2c-1.1 0-2.2-.3-3.1-1-.5-.4-.8-1-1-1.6s-.3-1.3-.3-1.9v-5.8c-.1-.1-.1-.2-.1-.4zM25.7 33h6.1v4.9H20.2V0h11.5V4.9h-6.2v11.3h4.7v4.9h-4.7c.2 4 .2 7.9.2 11.9zM80.8 0h5.4V33.6c0 .8-.3 1.6-.6 2.4-.4.9-1.1 1.4-2 1.7-.6.2-1.2.3-1.9.3h-5.6c-.7 0-1.3-.2-1.9-.5-1-.4-1.6-1.2-2-2.2-.2-.7-.4-1.4-.3-2.1v-5.4-.5h5.4v4.4c0 .5.2.9.6 1.3h2.4c.5-.4.6-.9.6-1.4V14.9.9c-.1-.3-.1-.6-.1-.9zM172 33h6c.3.2.3.4.3.6v4.3h-11.6V0H172.1c-.1 11-.1 22-.1 33zM50.2 8.6H49V.1h2.8c0 .3.1.6-.1 1s-.1.8-.2 1.3c-.1.4-.1.8-.3 1.2-.1.3-.1.7-.2 1-.1.3 0 .5-.2.8-.1.2 0 .5-.1.7-.2.2.1.6-.2.8.1.4-.1.9-.2 1.3 0 .1-.1.3-.1.4z"></path>
    </g>
</svg>