<svg id="diet" xmlns="http://www.w3.org/2000/svg" xmlns:xlink="http://www.w3.org/1999/xlink" width="52.056" height="48.062" viewBox="0 0 52.056 48.062">
  <defs>
    <clipPath id="clipPath">
      <rect id="Rectangle_210" data-name="Rectangle 210" width="52.056" height="48.062" transform="translate(0 0)" fill="none"/>
    </clipPath>
  </defs>
  <g id="Group_541" data-name="Group 541" transform="translate(0 0)">
    <g id="Group_540" data-name="Group 540" clipPath="url(#clipPath)">
      <path id="Path_820" data-name="Path 820" d="M9.421,39.57V18.843H35.8V40.512H11.913a3.756,3.756,0,0,0-2.492-.942" fill="#d0f4fa"/>
      <path id="Path_821" data-name="Path 821" d="M17.429,26.853a.942.942,0,0,0-.944.94v3.768a.942.942,0,0,0,.942.942h2.355V34.86a.942.942,0,0,0,.942.942h3.769a.942.942,0,0,0,.942-.942V32.505h2.357a.942.942,0,0,0,.942-.942V27.8a.942.942,0,0,0-.942-.942H25.437V24.5a.942.942,0,0,0-.942-.942H20.727a.942.942,0,0,0-.942.942v2.355Zm.942,1.884h2.355a.942.942,0,0,0,.942-.942V25.44h1.884V27.8a.942.942,0,0,0,.942.942h2.355v1.884H24.494a.942.942,0,0,0-.942.942v2.355H21.668V31.563a.942.942,0,0,0-.942-.942H18.371Z" fill="#e54253"/>
      <path id="Path_822" data-name="Path 822" d="M0,38.156v6.6A3.3,3.3,0,0,0,6.027,46.6a4.7,4.7,0,0,0,7.16-.435H32.975A3.773,3.773,0,0,0,36.744,42.4V18.842a.941.941,0,0,0-.276-.666l-4.435-4.435V11.305h1.884a.942.942,0,0,0,.942-.942V.942A.942.942,0,0,0,33.917,0H11.306a.942.942,0,0,0-.939.942v9.422a.942.942,0,0,0,.942.942h1.884v2.436L8.758,18.177a.941.941,0,0,0-.276.666V38.725a4.7,4.7,0,0,0-1.884.85V38.159a3.3,3.3,0,0,0-6.6,0m4.711,0v2.355H1.885V38.156a1.413,1.413,0,0,1,2.826,0M8.48,40.677A2.826,2.826,0,0,1,12.086,42.4H6.757A2.829,2.829,0,0,1,8.48,40.677M32.974,9.421H12.243V1.884h1.89V4.711a.942.942,0,1,0,1.884,0V1.884H17.9V4.711a.942.942,0,0,0,1.884,0V1.884h1.884V4.711a.942.942,0,1,0,1.884,0V1.884h1.885V4.711a.942.942,0,0,0,1.884,0V1.884h1.884V4.711a.942.942,0,0,0,1.884,0V1.884h1.884ZM14.037,44.28a4.713,4.713,0,0,0-3.674-5.558V19.233L14.8,14.8a.941.941,0,0,0,.276-.666V11.306H30.148v2.828a.941.941,0,0,0,.276.666l4.435,4.433V42.4a1.887,1.887,0,0,1-1.885,1.884ZM9.421,46.164a2.832,2.832,0,0,1-2.665-1.88h5.329a2.831,2.831,0,0,1-2.664,1.884Zm-6.123,0a1.415,1.415,0,0,1-1.414-1.409V42.4H4.71v2.355A1.415,1.415,0,0,1,3.3,46.168Z" fill="#404145"/>
      <path id="Path_823" data-name="Path 823" d="M18.371,30.621h2.355a.942.942,0,0,1,.942.942v2.355h1.884V31.563a.942.942,0,0,1,.942-.942h2.355V28.737H24.494a.942.942,0,0,1-.942-.942V25.44H21.668V27.8a.942.942,0,0,1-.942.942H18.371Z" fill="#fff"/>
      <path id="Path_824" data-name="Path 824" d="M48.474,43.907a4.679,4.679,0,0,1-3.743,2.274,3.846,3.846,0,0,1-2.079-.633,4.422,4.422,0,0,0-4.779,0,3.846,3.846,0,0,1-2.079.633,4.679,4.679,0,0,1-3.743-2.274,10.4,10.4,0,0,1-1.7-5.92c0-5.782,3.965-9.818,7.523-7.56a4.477,4.477,0,0,0,2.057.687.907.907,0,0,0,.645,0,4.469,4.469,0,0,0,2.076-.689,3.846,3.846,0,0,1,2.079-.633,4.679,4.679,0,0,1,3.743,2.274,11.146,11.146,0,0,1,0,11.841" fill="#fcdcdd"/>
      <path id="Path_825" data-name="Path 825" d="M43.424,33.932a2.192,2.192,0,0,1,1.038-2.126c1.237-.693,3.017,1.137,3.61,2.67s.89,5.093.346,5.44-4.3-2.918-4.994-5.984" fill="#e54253"/>
      <path id="Path_826" data-name="Path 826" d="M50.014,30.991c-2.306-3.3-5.731-3.825-8.37-2.151a2.635,2.635,0,0,1-.3.163,7.612,7.612,0,0,1,2.082-3.912.94.94,0,1,0-1.3-1.36c-.011.01-.021.02-.031.031a9.478,9.478,0,0,0-1.876,2.68,5.539,5.539,0,0,0-1.378-1.4,11.328,11.328,0,0,0-1.88-.859,5.7,5.7,0,0,0-3.6.28.94.94,0,0,0-.564.753,5.682,5.682,0,0,0,.581,3.249,7.445,7.445,0,0,0-2.867,2.525,11.576,11.576,0,0,0-1.866,4.81l-.168,1.911,0,0a11.706,11.706,0,0,0,3.036,8.466s.791,1.217,3.876,1.866a5.653,5.653,0,0,0,3.492-.91,2.558,2.558,0,0,1,2.765,0c2.639,1.674,6.065,1.147,8.37-2.151a13.015,13.015,0,0,0,0-13.994M39.236,28.716c.029.113.053.228.072.343h0a2.635,2.635,0,0,1-.43-.219,5.638,5.638,0,0,0-3.643-.9,3.794,3.794,0,0,1-.6-1.933,3.774,3.774,0,0,1,4.6,2.707m9.238,15.191a4.679,4.679,0,0,1-3.743,2.274,3.846,3.846,0,0,1-2.079-.633,4.422,4.422,0,0,0-4.779,0,3.837,3.837,0,0,1-2.079.633,4.679,4.679,0,0,1-3.743-2.274,10.4,10.4,0,0,1-1.7-5.92c0-5.782,3.965-9.818,7.523-7.56a4.477,4.477,0,0,0,2.057.687.907.907,0,0,0,.645,0,4.469,4.469,0,0,0,2.076-.689,3.846,3.846,0,0,1,2.079-.633,4.679,4.679,0,0,1,3.743,2.274,11.146,11.146,0,0,1,0,11.841" fill="#404145"/>
      <path id="Path_827" data-name="Path 827" d="M39.236,28.716c.029.113.053.228.072.343h0a2.635,2.635,0,0,1-.43-.219,5.644,5.644,0,0,0-3.643-.9,3.794,3.794,0,0,1-.6-1.933,3.774,3.774,0,0,1,4.6,2.707" fill="#fff"/>
    </g>
  </g>
</svg>
