<?xml version="1.0" encoding="utf-8"?>
<!-- Generator: Adobe Illustrator 25.4.1, SVG Export Plug-In . SVG Version: 6.00 Build 0)  -->
<svg version="1.1" id="Layer_1" xmlns="http://www.w3.org/2000/svg" xmlns:xlink="http://www.w3.org/1999/xlink" x="0px" y="0px"
	 viewBox="0 0 50.1 50.1" style="enable-background:new 0 0 50.1 50.1;" xml:space="preserve">
<style type="text/css">
	.st0{clipPath:url(#SVGID_00000054953833735655457990000016707823095426004920_);}
	.st1{fill:#404145;}
	.st2{fill:#D0F4FA;}
</style>
<g id="Group_562" transform="translate(0 0)">
	<g>
		<defs>
			<rect id="SVGID_1_" width="50.1" height="50.1"/>
		</defs>
		<clipPath id="SVGID_00000035520504155715052840000011790325070786075561_">
			<use xlink:href="#SVGID_1_"  style="overflow:visible;"/>
		</clipPath>
		<g id="Group_543" style="clipPath:url(#SVGID_00000035520504155715052840000011790325070786075561_);">
			<path id="Path_837" class="st1" d="M46.6,12.3V8.7c0-1-0.8-1.7-1.7-1.7h-2.5c-7-6.6-17.1-8.7-26.1-5.3c0,0,0,0,0,0
				C15.1,2,14,2.5,13,3.1c-0.1,0.1-0.2,0.1-0.4,0.2c-1.8,1-3.4,2.2-4.9,3.6H5.2c-1,0-1.7,0.8-1.7,1.7v3.7c-4.6,7.9-4.6,17.6,0,25.5
				v10.6c0,1,0.8,1.7,1.7,1.7h39.7c1,0,1.7-0.8,1.7-1.7V37.8C51.3,29.9,51.3,20.2,46.6,12.3 M3.5,34.6c-2.7-6.1-2.7-13,0-19V34.6z
				 M45.2,16C45,16,44.8,16,44.6,16h-6.7l5.9-3.8c0.2-0.1,0.4-0.3,0.6-0.6c0.3,0.4,0.5,0.8,0.8,1.2L45.2,16z M44.9,8.4
				c0.2,0,0.3,0.1,0.3,0.3v1.4c-0.4-0.6-0.9-1.2-1.4-1.7H44.9z M42.5,10c0.3-0.1,0.6,0,0.7,0.2c0.1,0.2,0,0.5-0.2,0.7l-7.8,5
				c0,0,0,0,0,0H31L42.5,10z M42,8.6c0,0-0.1,0-0.1,0.1l-14,7.2c0,0-0.1,0-0.1,0.1h-0.2c-0.3,0-0.5-0.2-0.5-0.5
				c0-0.2,0.1-0.3,0.3-0.4c2.1-1.2,2.7-3.9,1.5-5.9c-0.1-0.2-0.3-0.5-0.5-0.7h13.5L42,8.6 M13.7,4.4C13.8,4.3,13.8,4.3,13.7,4.4
				c1-0.5,2-1,3-1.4l0,0c7.9-3,16.9-1.5,23.4,4H10C11.1,6,12.4,5.1,13.7,4.4 M8.3,8.4h13.5c-1.6,1.8-1.4,4.5,0.4,6.1
				c0.2,0.2,0.4,0.3,0.7,0.5c0.1,0.1,0.2,0.3,0.2,0.4c0,0.3-0.2,0.5-0.5,0.5h-0.2c0,0-0.1,0-0.1-0.1l-14-7.2c0,0-0.1,0-0.1-0.1
				C8.2,8.6,8.3,8.5,8.3,8.4 M6.9,10.2C7,10,7.3,9.9,7.6,10c0,0,0,0,0,0l11.6,6h-4.3c0,0,0,0-0.1,0l-7.8-5
				C6.8,10.8,6.8,10.5,6.9,10.2 M4.9,8.7c0-0.2,0.1-0.3,0.3-0.3h1.1c-0.5,0.6-1,1.1-1.4,1.7L4.9,8.7z M4.9,12.7
				c0.2-0.4,0.5-0.8,0.8-1.2C5.9,11.8,6,12,6.3,12.1l5.9,3.8H5.5c-0.2,0-0.4,0-0.6,0.1L4.9,12.7z M5.2,48.6c-0.2,0-0.3-0.1-0.3-0.3
				V40c0.7,1,1.5,1.9,2.4,2.8c2.6,2.6,5.8,4.6,9.2,5.9L5.2,48.6z M14.6,45.4c0.9-2,2.8-6.7,4.8-11.4c0,1.6,0,3.1,0,4.6
				c0,0,0,0,0,0.1L16,46c-0.2,0.4-0.6,0.5-1,0.3C14.6,46.1,14.5,45.7,14.6,45.4 M16.9,47.2c0.2-0.2,0.3-0.4,0.4-0.6l2.1-4.5
				c0,2.4,0,4.4,0,5.5c0,0.1,0,0.3,0,0.4C18.6,47.8,17.7,47.5,16.9,47.2 M13.2,44.8c-0.1,0.2-0.1,0.4-0.2,0.6c-3.3-2-6.1-4.7-8.2-8
				V19.9c0.1,0,0.2,0.1,0.3,0.1l14.2,1.4l0,0c0,1.2,0,7.4,0,8.8C17,35.9,14.3,42.3,13.2,44.8 M25.1,48.6c-0.5,0-1,0-1.5,0
				c0.1-0.3,0.2-0.6,0.2-0.9l0.5-13.4h1.5l0.5,13.4c0,0.3,0.1,0.6,0.2,0.9C26,48.6,25.6,48.6,25.1,48.6 M29.3,20.2
				c-0.1,0.1-0.2,0.3-0.1,0.5c0,0.8,0.1,14.9,0.1,26.9c0,0.2-0.1,0.4-0.2,0.5c-0.3,0.3-0.8,0.3-1.1,0c-0.1-0.1-0.2-0.3-0.2-0.5
				l-0.5-14.1c0-0.4-0.3-0.7-0.7-0.7h-2.9c-0.4,0-0.7,0.3-0.7,0.7l-0.5,14.1c0,0.4-0.3,0.7-0.8,0.7s-0.7-0.3-0.7-0.8
				c0-3,0-17.1,0.1-24.6c0-1.8,0-2.2,0-2.3c0-0.4-0.2-0.8-0.6-0.8c0,0,0,0,0,0L5.4,18.5c-0.3,0-0.5-0.3-0.5-0.6
				c0-0.3,0.3-0.5,0.6-0.5h17.1c1.1,0,2-0.9,2-2c0-0.7-0.4-1.3-1-1.7c-0.9-0.5-1.4-1.5-1.4-2.5c0-1.6,1.3-2.9,2.9-2.9
				c0.1,0,0.1,0,0.2,0c1.6,0.1,2.8,1.5,2.7,3.1c-0.1,0.9-0.6,1.8-1.4,2.3c-0.6,0.4-1,1-1,1.7c0,0.6,0.3,1.2,0.9,1.6
				c0.3,0.2,0.7,0.4,1.1,0.3h17.1c0.3,0,0.5,0.2,0.6,0.5c0,0.3-0.2,0.5-0.5,0.6l-14.9,1.4C29.6,19.9,29.4,20,29.3,20.2 M30.7,48
				c0-0.1,0-0.3,0-0.4c0-2,0-3.8,0-5.5l2.1,4.5c0.1,0.2,0.2,0.4,0.4,0.6C32.4,47.5,31.5,47.8,30.7,48 M30.7,33.9
				c2,4.8,3.9,9.4,4.8,11.4c0.1,0.4-0.1,0.8-0.4,1c-0.4,0.1-0.8,0-0.9-0.4l-3.4-7.4C30.7,36.8,30.7,35.3,30.7,33.9 M45.2,48.4
				c0,0.2-0.1,0.3-0.3,0.3H33.5c3.5-1.3,6.6-3.3,9.2-5.9c0.9-0.9,1.7-1.8,2.4-2.8L45.2,48.4z M45.2,37.4c-2,3.3-4.8,6-8.2,8
				c0-0.2-0.1-0.4-0.2-0.6c-1-2.5-3.8-8.9-6.2-14.7c0-5.5,0-7.8,0-8.8l14.2-1.4c0.1,0,0.2,0,0.3-0.1L45.2,37.4L45.2,37.4z
				 M46.6,26.1V15.5c2.7,6.1,2.7,13,0,19.1V26.1z"/>
		</g>
	</g>
</g>
<g>
	<path class="st2" d="M29.3,20.2c-0.1,0.1-0.2,0.3-0.1,0.5c0,0.8,0.1,14.9,0.1,26.9c0,0.2-0.1,0.4-0.2,0.5c-0.3,0.3-0.8,0.3-1.1,0
		c-0.1-0.1-0.2-0.3-0.2-0.5l-0.5-14.1c0-0.4-0.3-0.7-0.7-0.7h-2.9c-0.4,0-0.7,0.3-0.7,0.7l-0.5,14.1c0,0.4-0.3,0.7-0.8,0.7
		s-0.7-0.3-0.7-0.8c0-3,0-17.1,0.1-24.6c0-1.8,0-2.2,0-2.3c0-0.4-0.2-0.8-0.6-0.8c0,0,0,0,0,0L5.4,18.5c-0.3,0-0.5-0.3-0.5-0.6
		c0-0.3,0.3-0.5,0.6-0.5h17.1c1.1,0,2-0.9,2-2c0-0.7-0.4-1.3-1-1.7c-0.9-0.5-1.4-1.5-1.4-2.5c0-1.6,1.3-2.9,2.9-2.9
		c0.1,0,0.1,0,0.2,0c1.6,0.1,2.8,1.5,2.7,3.1c-0.1,0.9-0.6,1.8-1.4,2.3c-0.6,0.4-1,1-1,1.7c0,0.6,0.3,1.2,0.9,1.6
		c0.3,0.2,0.7,0.4,1.1,0.3h17.1c0.3,0,0.5,0.2,0.6,0.5c0,0.3-0.2,0.5-0.5,0.6l-14.9,1.4C29.6,19.9,29.4,20,29.3,20.2"/>
	<path class="st2" d="M42.5,10c0.3-0.1,0.6,0,0.7,0.2c0.1,0.2,0,0.5-0.2,0.7l-7.8,5c0,0,0,0,0,0H31L42.5,10z"/>
	<path class="st2" d="M6.9,10.2C7,10,7.3,9.9,7.6,10c0,0,0,0,0,0l11.6,6h-4.3c0,0,0,0-0.1,0l-7.8-5C6.8,10.8,6.8,10.5,6.9,10.2"/>
	<path class="st2" d="M14.6,45.4c0.9-2,2.8-6.7,4.8-11.4c0,1.6,0,3.1,0,4.6c0,0,0,0,0,0.1L16,46c-0.2,0.4-0.6,0.5-1,0.3
		C14.6,46.1,14.5,45.7,14.6,45.4"/>
	<path class="st2" d="M30.7,33.9c2,4.8,3.9,9.4,4.8,11.4c0.1,0.4-0.1,0.8-0.4,1c-0.4,0.1-0.8,0-0.9-0.4l-3.4-7.4
		C30.7,36.8,30.7,35.3,30.7,33.9"/>
</g>
</svg>
