<svg id="health_products" data-name="health products" xmlns="http://www.w3.org/2000/svg" xmlns:xlink="http://www.w3.org/1999/xlink" width="32.418" height="51.626" viewBox="0 0 32.418 51.626">
  <defs>
    <clipPath id="clipPath">
      <rect id="Rectangle_218" data-name="Rectangle 218" width="32.418" height="51.625" fill="none"/>
    </clipPath>
    <clipPath id="clipPath-2">
      <rect id="Rectangle_219" data-name="Rectangle 219" width="8.202" height="7.498" transform="translate(0 0)" fill="none"/>
    </clipPath>
  </defs>
  <g id="Group_568" data-name="Group 568" transform="translate(-6.903 -0.001)">
    <g id="Group_569" data-name="Group 569" transform="translate(6.903 0.001)">
      <g id="Group_568-2" data-name="Group 568" transform="translate(0 0)" clipPath="url(#clipPath)">
        <path id="Path_873" data-name="Path 873" d="M27.542,12.015H4.783a.771.771,0,0,0-.759.759v25.8a.771.771,0,0,0,.759.759H27.542a.771.771,0,0,0,.759-.759v-25.8a.771.771,0,0,0-.759-.759" transform="translate(0.046 0.138)" fill="#fcdcdd"/>
        <path id="Path_874" data-name="Path 874" d="M4.156,42.142H28.165a2.4,2.4,0,0,0-2.4,2.4v3.2a2.4,2.4,0,0,1-2.4,2.393H8.958a2.4,2.4,0,0,1-2.4-2.393V44.535a2.4,2.4,0,0,0-2.4-2.393" transform="translate(0.048 0.485)" fill="#d0f4fa"/>
        <path id="Path_875" data-name="Path 875" d="M25.765,6.6A2.4,2.4,0,0,0,28.166,9H4.156a2.4,2.4,0,0,0,2.4-2.4v-3.2a2.4,2.4,0,0,1,2.4-2.4h14.4a2.4,2.4,0,0,1,2.4,2.4V6.6Z" transform="translate(0.048 0.011)" fill="#d0f4fa"/>
        <g id="Group_571" data-name="Group 571" transform="translate(12.026 15.909)">
          <g id="Group_570" data-name="Group 570" clipPath="url(#clipPath-2)">
            <path id="Path_884" data-name="Path 884" d="M7.5.7A2.36,2.36,0,0,1,8.2,2.4a2.4,2.4,0,0,1-.7,1.7L4.1,7.5.7,4.1A2.4,2.4,0,1,1,4.1.7,2.4,2.4,0,0,1,7.5.7Z" fill="#fff"/>
          </g>
        </g>
        <path id="Path_878" data-name="Path 878" d="M16.08,24.119a.757.757,0,0,1-.536-.223L12.108,20.46c-.011-.01-.021-.021-.031-.032a3.2,3.2,0,0,1,.029-4.479,3.263,3.263,0,0,1,3.975-.431,3.189,3.189,0,0,1,3.993,4.92l-.021.022L16.617,23.9a.761.761,0,0,1-.537.223m-1.721-7.586a1.671,1.671,0,0,0-1.181,2.852l2.9,2.9,2.882-2.88a.182.182,0,0,1,.019-.02,1.674,1.674,0,0,0,0-2.364,1.713,1.713,0,0,0-2.364,0,.76.76,0,0,1-.775.184.78.78,0,0,1-.3-.185A1.661,1.661,0,0,0,14.359,16.532Z" transform="translate(0.129 0.173)" fill="#e54253"/>
        <path id="Path_881" data-name="Path 881" d="M28.213,8h0a1.407,1.407,0,0,1-1.4-1.415V3.372A3.4,3.4,0,0,0,23.411,0H9A3.4,3.4,0,0,0,5.6,3.413l0,3.19A1.4,1.4,0,0,1,4.2,8,4.208,4.208,0,0,0,0,12.2V39.419a4.21,4.21,0,0,0,4.2,4.2,1.407,1.407,0,0,1,1.4,1.415v3.218a3.4,3.4,0,0,0,3.4,3.369h14.41a3.4,3.4,0,0,0,3.4-3.414l0-3.19a1.4,1.4,0,0,1,1.4-1.4,4.209,4.209,0,0,0,4.2-4.2V12.2a4.208,4.208,0,0,0-4.2-4.2M24.819,44.953l-.011,3.266,0,.037a1.4,1.4,0,0,1-1.395,1.363H9.005a1.4,1.4,0,0,1-1.395-1.4V48.19L7.6,44.976a3.305,3.305,0,0,0-.309-1.352H25.124a3.14,3.14,0,0,0-.3,1.329M7.6,6.676l.012-3.27,0-.039A1.4,1.4,0,0,1,9,2h14.41a1.4,1.4,0,0,1,1.395,1.4l.009,3.247A3.306,3.306,0,0,0,25.124,8H7.293a3.141,3.141,0,0,0,.3-1.325M30.412,12.2V39.419a2.2,2.2,0,0,1-2.2,2.2H4.2a2.2,2.2,0,0,1-2.2-2.2V12.2a2.2,2.2,0,0,1,2.2-2.2H28.213a2.2,2.2,0,0,1,2.2,2.2" transform="translate(0 0)" fill="#404145"/>
        <path id="Path_882" data-name="Path 882" d="M24.478,28.349H19.164a.483.483,0,0,0-.129.021l-.055.01a.679.679,0,0,0-.148.034.941.941,0,0,0-.2.111.7.7,0,0,0-.114.079,1.058,1.058,0,0,0-.148.185.374.374,0,0,0-.067.09L17.648,30.2l-2.175-4.352a.34.34,0,0,0-.063-.084.914.914,0,0,0-.12-.154.949.949,0,0,0-.161-.128l-.088-.062c-.036-.017-.063-.023-.057-.016a.979.979,0,0,0-.216-.06.929.929,0,0,0-.147-.016,1.614,1.614,0,0,0-.192.022,1.024,1.024,0,0,0-.161.045l-.082.026a.354.354,0,0,0-.1.07,1.06,1.06,0,0,0-.146.114,1.106,1.106,0,0,0-.129.164L12.5,28.349H7.785a.961.961,0,0,0,0,1.922H13.1a.956.956,0,0,0,.33-.065c.029-.011.057-.024.085-.037a.97.97,0,0,0,.231-.155l.039-.034a.937.937,0,0,0,.174-.239l.656-1.314,2.173,4.347a.936.936,0,0,0,.1.153l.037.052a.769.769,0,0,0,.234.185l.1.052a1.127,1.127,0,0,0,.186.064V33.3h.286l.006-.005A.776.776,0,0,0,18,33.226l.1-.039a.96.96,0,0,0,.267-.207.523.523,0,0,0,.039-.055.836.836,0,0,0,.1-.15l1.251-2.5h4.719a.961.961,0,0,0,0-1.922" transform="translate(0.079 0.291)" fill="#404145"/>
        <path id="Path_883" data-name="Path 883" d="M20.639,34.316h-9.1a.961.961,0,1,0,0,1.922h9.1a.961.961,0,1,0,0-1.922" transform="translate(0.122 0.395)" fill="#404145"/>
      </g>
    </g>
  </g>
</svg>
