<svg
  xmlns="http://www.w3.org/2000/svg"
  x="0"
  y="0"
  enableBackground="new 0 0 466.2 274.6"
  version="1.1"
  viewBox="0 0 466.2 274.6"
  xmlSpace="preserve"
>
  <g transform="translate(29.941 89.489)">
	<g>
	  <path
		fill="#CCC"
		d="M0 144.4c.1.2.1.3.1.4 1.9 5.3 3.9 10.4 6.2 15.5l423.6-.5c2.3-5.2 4.4-10.5 6.3-15.9L0 144.4z"
	  ></path>
	  <path
		fill="#CCC"
		d="M417.4 123.2c.6-1.8-.4-3.8-2.2-4.4-.1 0-.3-.1-.5-.1s-.4-.1-.6-.1l-22.4-.6c-1 0-2 .4-2.7 1.2-.3-.1-.6-.1-1-.1-2.9 0-5.3 2.3-5.3 5.3 0 2.9 2.2 5.2 5.1 5.3.8 0 1.6-.1 2.3-.5l2.1 22c.4 1.5 1.7 2.5 3.3 2.6l14.6.4c1.5 0 2.9-.9 3.4-2.4l3.9-28.6zm-29.5 4.9c-2.1 0-3.8-1.6-3.9-3.7 0-2.1 1.6-3.8 3.7-3.9h.5c-.2.6-.2 1.2 0 1.9l1.5 5.2c-.5.4-1.1.5-1.8.5z"
	  ></path>
	  <path
		fill="#FFF"
		d="M414.7 118.6c-.5 2.7-5.8 4.6-12.3 4.3-5.9-.3-10.8-2.4-11.7-4.8.3-.1.7-.1 1-.1l22.4.6h.6z"
	  ></path>
	  <path
		fill="#CCC"
		d="M274.6 89.8v56.3H314V89.8c0-.8-.5-1.6-1.3-1.8-.2-.1-.4-.1-.6-.1h-35.7c-1 0-1.8.9-1.8 1.9zm15.4 19.4c0-2.3 1.9-4.2 4.2-4.2s4.2 1.9 4.2 4.2v6.5c0 2.3-1.9 4.2-4.2 4.2s-4.2-1.9-4.2-4.2v-6.5z"
	  ></path>
	  <path
		fill="#3F3D56"
		d="M274.4 144.3v5.4c0 .6.5 1.1 1.1 1.1h37.6c.6 0 1.1-.5 1.1-1.1v-5.4h-39.8z"
	  ></path>
	  <path
		fill="#CCC"
		d="M212.5 4.9v102.9c0 2.7 2.2 4.9 4.9 4.9h152.4c2.7 0 4.9-2.2 4.9-4.9V4.9c0-2.7-2.2-4.9-4.9-4.9H217.4c-2.7 0-4.9 2.2-4.9 4.9z"
	  ></path>
	  <path
		fill="#FFF"
		d="M216.1 6.2v100.3c0 1.5 1.2 2.6 2.6 2.6h149.9c1.5 0 2.6-1.2 2.6-2.6V6.2c0-1.5-1.2-2.6-2.6-2.6H218.7c-1.5 0-2.7 1.2-2.6 2.6z"
	  ></path>
	  <path
		fill="#F2F2F2"
		d="M247.1 150.5c.3.4.8.6 1.3.6h89.2c.9 0 1.6-.7 1.6-1.6v-.3l-1.4-6.6c-.1-.5-.5-1-1-1.2-.2-.1-.4-.1-.6-.1h-86.4c-.2 0-.4 0-.6.1-.5.2-.9.6-1 1.2l-1.4 6.6c-.2.4 0 .9.3 1.3z"
	  ></path>
	  <path
		fill="#CCC"
		d="M363.7 17.4H223.5c-.3 0-.6-.2-.6-.6 0-.3.2-.6.6-.6h140.2c.3 0 .6.2.6.6 0 .3-.3.6-.6.6z"
	  ></path>
	  <ellipse cx="233" cy="10.1" fill="#CCC" rx="3.3" ry="3.3"></ellipse>
	  <ellipse cx="244.3" cy="10.1" fill="#CCC" rx="3.3" ry="3.3"></ellipse>
	  <ellipse cx="255.6" cy="10.1" fill="#CCC" rx="3.3" ry="3.3"></ellipse>
	  <path
		fill="#CCC"
		d="M356.9 7.6h-8c-.3 0-.6.3-.6.6s.3.6.6.6h8c.3 0 .6-.3.6-.6 0-.4-.2-.6-.6-.6z"
	  ></path>
	  <path
		fill="#CCC"
		d="M356.9 9.8h-8c-.3 0-.6.3-.6.6s.3.6.6.6h8c.3 0 .6-.3.6-.6s-.2-.6-.6-.6z"
	  ></path>
	  <path
		fill="#CCC"
		d="M356.9 12.1h-8c-.3 0-.6.3-.6.6s.3.6.6.6h8c.3 0 .6-.3.6-.6s-.2-.6-.6-.6z"
	  ></path>
	  <path d="M310.9 39.4h-32.8c-1.8 0-3.2 1.4-3.2 3.2v32.8c0 1.8 1.4 3.2 3.2 3.2h32.8c1.8 0 3.2-1.4 3.2-3.2V42.7c0-1.8-1.4-3.3-3.2-3.3zm-20.3 6.4h4.1v4.1h-4.1v-4.1zM301 56.7c-1.4 0-2.7.4-3.9 1.2-.2.1-.4.3-.6.4-1.2 1-1.9 2.4-1.8 3.9v10.1h-4.1V52.6h3.3l.8 2c.1-.1.2-.1.2-.2 1.8-1.2 3.9-1.8 6.1-1.8v4.1z"></path>
	</g>
  </g>
  <g>
	<g>
	  <path
		fill="#FFD6B8"
		d="M1.6 131.3c3.2 5.3 10 7 15.3 3.8.6-.3 1.1-.7 1.6-1.2l34.4 19.7-1.3-20.6-32.5-15.6c-4.4-4.4-11.5-4.4-15.9 0-3.6 3.8-4.3 9.5-1.6 13.9z"
	  ></path>
	  <path
		fill="#2F2E41"
		d="M101.2 210.3c-10.2 14.3-9.8 38.2-7 64.3h48.2l2.1-4.9 2.8 4.9h45.4s-3.5-66.4-9.8-68.5-81.7 4.2-81.7 4.2z"
	  ></path>
	  <circle cx="142.4" cy="36.8" r="24.5" fill="#FFD6B8"></circle>
	  <path
		fill="#3F3D56"
		d="M160.1 67.6l4.8 9.2L198 91.5l-8.7 84.1-3.7 8.7 2 7.6-4.8 5.6c4.8 4.3 5.4 8.9 2.8 13.6l-15.2 3.5s-84.7 7.5-77.6-5.6c7.8-14.3 9.8-56.7-7.4-79.3C70.8 110.5 82 85.6 82 85.6l34.7-10.4 12.8-7.6h30.6z"
	  ></path>
	  <path
		fill="#2F2E41"
		d="M153.3.9c.2-.5.8-.8 1.3-.8-11.2-.7-23 .6-32.4 6.8-2.3 1.5-4.4 3.3-6.9 4.4-.4.2-.5.6-.4 1 0 .1.1.2.2.3l.3.2c.3.3.4.7.1 1-.1.1-.2.2-.4.3-.4.1-.6.5-.5.9.1.2.2.3.3.4l2.1 1.3c.3.2.4.7.2 1-.1.1-.1.2-.2.2l-.6.3c-.4.1-.6.6-.4 1 0 .1.1.2.2.3.9.8 1.6 1.8 2 2.9.6 1.8.9 3.8.9 5.7.7-2.8 3.8-4.4 6.6-4.6s5.7.8 8.4 1.5c6.1 1.5 12.4 1.7 18.6.7-2.1 4.2-.3 9.2 1.5 13.6l5.8-2.5c7.9-4.5 2.4 14.4-.6 17 6 2.1 21.8-21.1 16.7-29.9-2.6-4.6-.8-10.5-6-14.8-2.5-2.7-7.6-1.5-10.2-3.7-1-.9.5-3.2-.9-3.7-1.8-.4-3.8-.7-5.7-.8z"
	  ></path>
	  <path
		fill="#3F3D56"
		d="M111.8 77.5c-4.5 19.9-16 66.4-27.7 76.2-.7.7-1.6 1.2-2.6 1.5-41 10-54.2-15.5-54.2-15.5s11-5.4 11.3-15.8l22.2 6.9 19.3-43.5 2.8-2.7 28.9-7.1z"
	  ></path>
	  <path
		fill="#FFD6B8"
		d="M199.3 261.5c4.4-4.3 4.6-11.3.3-15.8-.5-.5-1-.9-1.5-1.3l11.5-37.9-19.7 5.9-7.9 35.1c-3.3 5.2-1.7 12.2 3.5 15.5 4.4 2.7 10.1 2.1 13.8-1.5z"
	  ></path>
	  <path
		fill="#3F3D56"
		d="M188.8 89.3l9.1 2.1s37.7 73.3 28.6 87.3-20.2 60.3-20.2 60.3-16.5-3.3-22.7-11.7l11.5-54.9-11.9-46.1 5.6-37z"
	  ></path>
	  <path
		fill="#E6E6E6"
		d="M15.8 198.3l.3-118.1c0-5 4.1-9 9-9l89.2.2c5 0 9 4.1 9 9l-.3 118.2c0 5-4.1 9-9 9l-89.2-.2c-5-.1-9-4.2-9-9.1z"
	  ></path>
	  <path
		fill="#FFF"
		d="M22.7 162.6l.2-75.9c0-4.7 3.8-8.4 8.5-8.4l76.7.2c4.7 0 8.4 3.8 8.4 8.5l-.3 105c0 4.7-3.8 8.4-8.5 8.4l-47.5-.1c-20.7-.1-37.5-16.9-37.5-37.7z"
	  ></path>
	  <path
		fill="#16A0B7"
		d="M99.3 111.6H39.5c-2 0-3.6-1.6-3.6-3.6s1.6-3.6 3.6-3.6h59.8c2 0 3.6 1.6 3.6 3.6s-1.6 3.6-3.6 3.6z"
	  ></path>
	  <path
		fill="#16A0B7"
		d="M52.7 95.1H39.5c-2 0-3.6-1.6-3.6-3.6s1.6-3.6 3.6-3.6h13.2c2 0 3.6 1.6 3.6 3.6s-1.7 3.6-3.6 3.6z"
	  ></path>
	  <path
		fill="#16A0B7"
		d="M99.3 128.1H39.5c-2 0-3.6-1.6-3.6-3.6s1.6-3.6 3.6-3.6h59.8c2 0 3.6 1.6 3.6 3.6s-1.6 3.6-3.6 3.6z"
	  ></path>
	  <path
		fill="#16A0B7"
		d="M99.3 144.7H39.5c-2 0-3.6-1.6-3.6-3.6s1.6-3.6 3.6-3.6h59.8c2 0 3.6 1.6 3.6 3.6s-1.6 3.6-3.6 3.6z"
	  ></path>
	  <circle cx="94.4" cy="174" r="14.3" fill="#16A0B7"></circle>
	  <path
		fill="#FFF"
		d="M92.5 181.4c-.5 0-1-.2-1.3-.6l-3.9-5.2c-.5-.7-.3-1.7.4-2.2.7-.5 1.6-.4 2.2.3l2.5 3.4 6.5-9.8c.5-.7 1.5-1 2.2-.5s1 1.5.5 2.2v.1l-7.8 11.7c-.3.3-.7.6-1.3.6z"
	  ></path>
	  <circle cx="64" cy="36.9" r="6.8" fill="#F2F2F2"></circle>
	  <circle cx="39.3" cy="231.8" r="6.8" fill="#F2F2F2"></circle>
	  <circle cx="195.1" cy="63.2" r="6.8" fill="#F2F2F2"></circle>
	</g>
  </g>
</svg>