<svg
      xmlns="http://www.w3.org/2000/svg"
      x="0"
      y="0"
      enableBackground="new 0 0 474 337.7"
      version="1.1"
      viewBox="0 0 474 337.7"
      xmlSpace="preserve"
    >
      <path
        fill="#CCC"
        d="M357.9 101.2c-.7-1.7-2.4-2.8-4.2-2.8h-84.3c-2.5 0-4.6 2-4.6 4.6v106.6c0 2.5 2 4.6 4.6 4.6h84.3c2.5 0 4.6-2 4.6-4.6V102.9c-.1-.6-.2-1.2-.4-1.7zm-.7 108.3c0 2-1.6 3.5-3.6 3.6h-84.3c-2 0-3.6-1.6-3.6-3.6V102.9c0-2 1.6-3.5 3.6-3.6h84.3c1.5 0 2.8.9 3.3 2.2.1.1.1.3.1.4.1.3.1.6.1.9l.1 106.7z"
      ></path>
      <g transform="translate(360.665)">
        <path
          fill="#A0616A"
          d="M101.5 181.1c-3.7-2.2-5-7-2.9-10.7.2-.4.5-.8.8-1.1l-8.2-59.7 17 .8 2.7 58.2c3.1 3 3.2 8 .2 11.1-2.5 2.7-6.5 3.3-9.6 1.4z"
        ></path>
        <path
          fill="#EFF1F4"
          d="M110.6 111.3c-.3.4-.8.7-1.3.9L94 118c-1.6.6-3.4-.1-4.1-1.7L76.4 85.9c-1.3-2.8-1.5-6-.6-9 1.4-4.3 5-7.6 9.4-8.4 1.7-.3 3.4-.3 5.1.1 4.1.9 7.4 3.8 8.8 7.7l12 31.8c.4 1.1.2 2.3-.5 3.2z"
        ></path>
        <path fill="#A0616A" d="M31 326.7H20.4l-3.8-41 14.4.3v40.7z"></path>
        <path
          fill="#2F2E41"
          d="M12.8 323.7h20.4v12.8H0c0-7 5.7-12.8 12.8-12.8z"
        ></path>
        <path fill="#A0616A" d="M80.1 326.7H69.5l-5-40.8h15.6v40.8z"></path>
        <path
          fill="#2F2E41"
          d="M62 323.7h20.4v12.8H49.1c0-7 5.8-12.8 12.9-12.8z"
        ></path>
        <path
          fill="#2F2E41"
          d="M81.4 312.2L64.8 311c-2-.1-3.5-1.7-3.6-3.7l-3.7-76.5c-.1-1.7-1.5-2.9-3.2-2.9-1.4.1-2.5 1.1-2.8 2.4l-15.4 75.4c-.4 1.9-2.2 3.2-4.1 3.1l-15-1.2c-2.1-.2-3.7-2-3.6-4.2v-.1l13.9-139.2c.2-2.1 2.1-3.7 4.3-3.5.1 0 .3 0 .4.1l53 11.5c1.8.4 3.1 2 3.1 3.9l-2.5 132.3c0 2.1-1.8 3.8-3.9 3.8h-.3z"
        ></path>
        <circle cx="66.9" cy="26.5" r="21.2" fill="#A0616A"></circle>
        <path
          fill="#E8EAED"
          d="M34.1 174.9c-4.1-3.7-6.4-9-6.3-14.5C27.8 130 54.1 62 55 59.8c.1-.5.8-.7 4.4-3.2s8.9-2.8 15.6-1.1c1.4.4 2.5 1.5 2.8 2.9l1.3 1.8c.2.9.9 1.7 1.8 2.1 5.4 2.3 22.7 12.8 16.8 52.5-5.5 36.9-7.7 58.5-8.4 66.1-.2 1.9-1.6 3.3-3.5 3.5-2.7.2-7.2.6-12.7.6-12.7-.1-30-1.8-39-10.1z"
        ></path>
        <path
          fill="#A0616A"
          d="M8.7 163.6c-1.9-3.9-.3-8.6 3.6-10.5.4-.2.8-.4 1.3-.5l26.5-54.1 13.7 10.2-30.2 49.8c.9 4.2-1.8 8.4-6 9.4-3.6.7-7.3-1-8.9-4.3z"
        ></path>
        <path
          fill="#EFF1F4"
          d="M55.2 110.7c-.5.1-1.1.2-1.6 0L37.7 107c-1.7-.4-2.7-2-2.4-3.7L41 70.6c.5-3.1 2.1-5.8 4.5-7.8C49 59.9 53.8 59.2 58 61c1.6.6 3 1.6 4.2 2.9 2.9 3 4 7.3 3.1 11.3l-7.7 33.1c-.4 1.1-1.2 2-2.4 2.4z"
        ></path>
        <path
          fill="#2F2E41"
          d="M62 45.7c-2.1-2.1-3-5.2-2.4-8.1.7-3.9 1.2-6.4 1.3-7.3.3-3.1-2.9-5.7-6-6.1h-.3l.2.2c.6.6 1.3 1.3 1.2 2-.1.4-.5.7-1.2.9-4.9 1.4-8.7.1-11.9-4-.9-1.2-1.5-2.5-1.8-4-1.2-5.7 1.9-10.5 4.7-13.5 2.3-2.5 6-5.6 10.7-5.8 3.6-.2 8 1.9 9.3 5.7 1.2-1.8 3.3-3 5.5-3.1 2.5-.1 4.9.6 7 2 10.3 5.9 14.7 19.9 9.6 30.6-3.2 6.7-10 11.7-17.9 13.1-.5.1-1 .1-1.5.1-2.6 0-4.9-1-6.5-2.7z"
        ></path>
      </g>
      <path
        fill="#3F3D56"
        d="M247 151c-.9-2.2-3-3.6-5.4-3.6H134.5c-3.2 0-5.8 2.6-5.8 5.8v135.5c0 3.2 2.6 5.8 5.8 5.8h107.1c3.2 0 5.8-2.6 5.8-5.8V153.2c0-.8-.1-1.5-.4-2.2zm-.9 137.7c0 2.5-2 4.5-4.5 4.5H134.5c-2.5 0-4.5-2-4.5-4.5V153.2c0-2.5 2-4.5 4.5-4.5h107.1c1.8 0 3.5 1.1 4.2 2.8.1.2.1.3.2.5.1.4.2.8.2 1.2l-.1 135.5z"
      ></path>
      <path
        fill="#CCC"
        d="M224.6 179.4h-32.3c-1.4 0-2.6-1.1-2.6-2.6s1.1-2.6 2.6-2.6h32.3c1.4 0 2.6 1.2 2.6 2.6 0 1.4-1.2 2.6-2.6 2.6z"
      ></path>
      <path
        fill="#CCC"
        d="M224.6 192.9h-32.3c-1.4 0-2.6-1.1-2.6-2.6s1.1-2.6 2.6-2.6h32.3c1.4 0 2.6 1.2 2.6 2.6 0 1.5-1.2 2.6-2.6 2.6z"
      ></path>
      <path
        fill="#16A0B7"
        d="M175.8 200.7h-23.6c-1.6 0-2.9-1.3-2.9-2.9V170c0-1.6 1.3-2.9 2.9-2.9h23.6c1.6 0 2.9 1.3 2.9 2.9v27.8c0 1.6-1.3 2.9-2.9 2.9z"
      ></path>
      <path
        fill="#CCC"
        d="M224.4 220.7h-72.9c-1.4 0-2.6-1.1-2.6-2.6 0-1.4 1.1-2.6 2.6-2.6h72.9c1.4 0 2.6 1.2 2.6 2.6 0 1.4-1.2 2.6-2.6 2.6z"
      ></path>
      <path
        fill="#CCC"
        d="M224.4 234.2h-72.9c-1.4 0-2.6-1.2-2.6-2.6 0-1.4 1.2-2.6 2.6-2.6h72.9c1.4 0 2.6 1.2 2.6 2.6 0 1.5-1.2 2.6-2.6 2.6z"
      ></path>
      <path
        fill="#CCC"
        d="M224.4 247.8h-72.9c-1.4 0-2.6-1.1-2.6-2.6 0-1.4 1.1-2.6 2.6-2.6h72.9c1.4 0 2.6 1.1 2.6 2.6 0 1.4-1.2 2.6-2.6 2.6z"
      ></path>
      <path
        fill="#CCC"
        d="M224.4 261.3h-72.9c-1.4 0-2.6-1.1-2.6-2.6 0-1.4 1.1-2.6 2.6-2.6h72.9c1.4 0 2.6 1.2 2.6 2.6 0 1.5-1.2 2.6-2.6 2.6z"
      ></path>
      <path
        fill="#CCC"
        d="M224.4 274.9h-72.9c-1.4 0-2.6-1.2-2.6-2.6 0-1.4 1.2-2.6 2.6-2.6h72.9c1.4 0 2.6 1.2 2.6 2.6 0 1.4-1.2 2.6-2.6 2.6z"
      ></path>
      <path
        fill="#3F3D56"
        d="M317 337.7h150.6c.4 0 .8-.3.8-.8 0-.4-.3-.8-.8-.8H317c-.4 0-.8.3-.8.8.1.5.4.8.8.8z"
      ></path>
      <circle cx="189.9" cy="89.8" r="24.9" fill="#16A0B7"></circle>
      <path
        fill="#FFF"
        d="M187.4 99.3c-.6 0-1.1-.2-1.6-.5l-5.9-4.5c-1.1-.9-1.4-2.5-.5-3.6s2.5-1.4 3.6-.5l3.8 2.9 9-11.7c.9-1.1 2.5-1.4 3.6-.5l-.1.1.1-.1c1.1.9 1.4 2.5.5 3.6l-10.5 13.7c-.4.8-1.2 1.1-2 1.1z"
      ></path>
      <circle cx="59.7" cy="61.6" r="16.9" fill="#CCC"></circle>
      <path
        fill="#CCC"
        d="M107.1 101.2c-.7-1.7-2.4-2.8-4.2-2.8H18.6c-2.5 0-4.6 2-4.6 4.6v106.6c0 2.5 2 4.6 4.6 4.6h84.3c2.5 0 4.6-2 4.6-4.6V102.9c0-.6-.2-1.2-.4-1.7zm-.7 108.3c0 2-1.6 3.5-3.6 3.6H18.6c-2 0-3.6-1.6-3.6-3.6V102.9c0-2 1.6-3.5 3.6-3.6h84.3c1.5 0 2.8.9 3.3 2.2.1.1.1.3.1.4.1.3.1.6.1.9v106.7z"
      ></path>
      <path
        fill="#CCC"
        d="M89.5 123.5H64.1c-1.1 0-2-.9-2-2s.9-2 2-2h25.4c1.1 0 2 .9 2 2s-.9 2-2 2z"
      ></path>
      <path
        fill="#CCC"
        d="M89.5 134.2H64.1c-1.1 0-2-.9-2-2s.9-2 2-2h25.4c1.1 0 2 .9 2 2s-.9 2-2 2z"
      ></path>
      <path
        fill="#CCC"
        d="M51.1 140.2H32.6c-1.3 0-2.3-1-2.3-2.3V116c0-1.3 1-2.3 2.3-2.3h18.6c1.3 0 2.3 1 2.3 2.3v22c-.1 1.2-1.1 2.2-2.4 2.2z"
      ></path>
      <path
        fill="#CCC"
        d="M89.3 156H32c-1.1 0-2-.9-2-2s.9-2 2-2h57.4c1.1 0 2 .9 2 2s-.9 2-2.1 2z"
      ></path>
      <path
        fill="#CCC"
        d="M89.3 166.7H32c-1.1 0-2-.9-2-2s.9-2 2-2h57.4c1.1 0 2 .9 2 2s-.9 2-2.1 2z"
      ></path>
      <path
        fill="#CCC"
        d="M89.3 177.3H32c-1.1 0-2-.9-2-2s.9-2 2-2h57.4c1.1 0 2 .9 2 2s-.9 2-2.1 2z"
      ></path>
      <path
        fill="#CCC"
        d="M89.3 188H32c-1.1 0-2-.9-2-2s.9-2 2-2h57.4c1.1 0 2 .9 2 2s-.9 2-2.1 2z"
      ></path>
      <path
        fill="#CCC"
        d="M89.3 198.7H32c-1.1 0-2-.9-2-2s.9-2 2-2h57.4c1.1 0 2 .9 2 2s-.9 2-2.1 2z"
      ></path>
      <path
        fill="#CCC"
        d="M.6 214.5h118.5c.3 0 .6-.2.6-.6s-.2-.6-.6-.6H.6c-.3 0-.6.3-.6.6 0 .4.3.6.6.6z"
      ></path>
      <circle cx="310.1" cy="61.7" r="16.9" fill="#e54253"></circle>
      <path
        fill="#CCC"
        d="M340.3 123.5h-25.4c-1.1 0-2-.9-2-2s.9-2 2-2h25.4c1.1 0 2 .9 2 2s-.9 2-2 2z"
      ></path>
      <path
        fill="#CCC"
        d="M340.3 134.2h-25.4c-1.1 0-2-.9-2-2s.9-2 2-2h25.4c1.1 0 2 .9 2 2s-.9 2-2 2z"
      ></path>
      <path
        fill="#CCC"
        d="M301.9 140.2h-18.6c-1.3 0-2.3-1-2.3-2.3V116c0-1.3 1-2.3 2.3-2.3h18.6c1.3 0 2.3 1 2.3 2.3v22c-.1 1.2-1.1 2.2-2.3 2.2z"
      ></path>
      <path
        fill="#CCC"
        d="M340.1 156h-57.4c-1.1 0-2-.9-2-2s.9-2 2-2h57.4c1.1 0 2 .9 2 2s-.9 2-2 2z"
      ></path>
      <path
        fill="#CCC"
        d="M340.1 166.7h-57.4c-1.1 0-2-.9-2-2s.9-2 2-2h57.4c1.1 0 2 .9 2 2s-.9 2-2 2z"
      ></path>
      <path
        fill="#CCC"
        d="M340.1 177.3h-57.4c-1.1 0-2-.9-2-2s.9-2 2-2h57.4c1.1 0 2 .9 2 2s-.9 2-2 2z"
      ></path>
      <path
        fill="#CCC"
        d="M340.1 188h-57.4c-1.1 0-2-.9-2-2s.9-2 2-2h57.4c1.1 0 2 .9 2 2s-.9 2-2 2z"
      ></path>
      <path
        fill="#CCC"
        d="M340.1 198.7h-57.4c-1.1 0-2-.9-2-2s.9-2 2-2h57.4c1.1 0 2 .9 2 2s-.9 2-2 2z"
      ></path>
      <path
        fill="#CCC"
        d="M251.4 214.5h118.5c.3 0 .6-.2.6-.6 0-.3-.2-.6-.6-.6H251.4c-.3 0-.6.3-.6.6 0 .4.2.6.6.6z"
      ></path>
      <path
        fill="#3F3D56"
        d="M112.1 295h150.6c.4 0 .8-.3.8-.8 0-.4-.3-.8-.8-.8H112.1c-.4 0-.8.3-.8.8 0 .4.4.8.8.8z"
      ></path>
      <path
        fill="none"
        stroke="#FFF"
        strokeLinecap="round"
        strokeWidth="4"
        d="M315.2 56.7L305.2 66.8"
      ></path>
      <path
        fill="none"
        stroke="#FFF"
        strokeLinecap="round"
        strokeWidth="4"
        d="M305.2 56.7L315.2 66.8"
      ></path>
      <text
        fill="#FFF"
        fontFamily="ProximaNova-Bold"
        fontSize="28"
        transform="translate(48.806 63.288)"
      >
        …
      </text>
    </svg>