<svg xmlns="http://www.w3.org/2000/svg" width="180" height="35.058" viewBox="0 0 180 35.058">
  <g id="Group_112" data-name="Group 112" transform="translate(-91.978 -151.76)">
    <path id="Path_81" data-name="Path 81" d="M124.161,151.76H94.847a2.87,2.87,0,0,0-2.869,2.869v29.319a2.871,2.871,0,0,0,2.869,2.869h29.313a2.869,2.869,0,0,0,2.869-2.869V154.629A2.868,2.868,0,0,0,124.161,151.76Zm-18.112,5.693h3.616v3.616h-3.616Zm9.275,9.691a6.371,6.371,0,0,0-3.49,1.027c-.178.113-.355.241-.524.373a4.482,4.482,0,0,0-1.646,3.521v9.06h-3.616V163.518h2.907l.709,1.759a2.562,2.562,0,0,1,.214-.147,10.032,10.032,0,0,1,5.445-1.6Z" fill="#e54253"/>
    <g id="Group_114" data-name="Group 114" transform="translate(138.658 154.113)">
      <g id="Group_113" data-name="Group 113">
        <g id="Group_112-2" data-name="Group 112">
          <rect id="Rectangle_76" data-name="Rectangle 76" width="2.89" height="14.081" transform="translate(0.051 5.17)" fill="#2a2a35"/>
          <rect id="Rectangle_77" data-name="Rectangle 77" width="2.992" height="2.992" fill="#e54253"/>
        </g>
        <path id="Path_82" data-name="Path 82" d="M132.255,157.281a4.936,4.936,0,0,0-3.895-1.642,6.438,6.438,0,0,0-2.79.6,5.551,5.551,0,0,0-2.076,1.683l-.572-1.961h-2.013v14.08H123.8V162.5a4.453,4.453,0,0,1,1.064-3.063,3.455,3.455,0,0,1,2.713-1.2,2.957,2.957,0,0,1,2.416.994,4.477,4.477,0,0,1,.817,2.916v7.892h2.894V161.56A6.232,6.232,0,0,0,132.255,157.281Z" transform="translate(-113.857 -150.787)" fill="#2a2a35"/>
        <path id="Path_83" data-name="Path 83" d="M141.26,157.281a4.932,4.932,0,0,0-3.9-1.642,6.456,6.456,0,0,0-2.79.6,5.575,5.575,0,0,0-2.075,1.683l-.572-1.961h-2.01v14.08h2.888V162.5a4.453,4.453,0,0,1,1.064-3.063,3.466,3.466,0,0,1,2.719-1.2,2.947,2.947,0,0,1,2.411.994,4.477,4.477,0,0,1,.823,2.916v7.892h2.888V161.56A6.213,6.213,0,0,0,141.26,157.281Z" transform="translate(-106.134 -150.787)" fill="#2a2a35"/>
        <path id="Path_84" data-name="Path 84" d="M152.779,163.047a7.883,7.883,0,0,0-.884-3.735,6.75,6.75,0,0,0-2.539-2.686,7.107,7.107,0,0,0-3.754-1,7.187,7.187,0,0,0-3.692.964,6.829,6.829,0,0,0-2.6,2.654,7.6,7.6,0,0,0-.942,3.767,7.23,7.23,0,0,0,2.076,5.267,6.927,6.927,0,0,0,5.158,2.119,7.12,7.12,0,0,0,4.175-1.272,7.317,7.317,0,0,0,2.661-3.5h-3.059a4.03,4.03,0,0,1-1.545,1.517,4.536,4.536,0,0,1-2.232.544,4.144,4.144,0,0,1-4.316-3.694h11.431A7.894,7.894,0,0,0,152.779,163.047Zm-11.417-1.4a4.3,4.3,0,0,1,1.49-2.5,4.589,4.589,0,0,1,5.494-.009,4.407,4.407,0,0,1,1.53,2.505Z" transform="translate(-98.889 -150.8)" fill="#2a2a35"/>
        <path id="Path_85" data-name="Path 85" d="M154.541,155.769a5.069,5.069,0,0,0-4.316,2l-.483-1.924h-1.961v14.08h2.892v-7.513a4.171,4.171,0,0,1,.9-2.912,3.445,3.445,0,0,1,2.686-.994h1.527v-2.738Z" transform="translate(-90.821 -150.676)" fill="#2a2a35"/>
        <path id="Path_86" data-name="Path 86" d="M166.1,159.886a7.077,7.077,0,0,0-5.252-2.1,7,7,0,0,0-4.649,1.646V153.1h-2.888v19.121h2.19l.368-1.6a6.88,6.88,0,0,0,4.979,1.948,7.053,7.053,0,0,0,5.252-2.11,7.79,7.79,0,0,0,0-10.566Zm-2.19,8.59a4.618,4.618,0,1,1,0-6.6,4.829,4.829,0,0,1,0,6.6Z" transform="translate(-86.084 -152.967)" fill="#2a2a35"/>
        <path id="Path_87" data-name="Path 87" d="M176.475,159.227a6.993,6.993,0,0,0-2.695-2.648,8.222,8.222,0,0,0-7.691,0,7.032,7.032,0,0,0-2.7,2.643,7.8,7.8,0,0,0,0,7.565,7.086,7.086,0,0,0,2.7,2.648,8.18,8.18,0,0,0,7.691,0,7.045,7.045,0,0,0,2.695-2.648,7.748,7.748,0,0,0,0-7.559Zm-3.252,7.106a4.813,4.813,0,0,1-6.58,0,4.924,4.924,0,0,1,0-6.647,4.823,4.823,0,0,1,6.58,0,4.909,4.909,0,0,1,0,6.647Z" transform="translate(-78.28 -150.8)" fill="#2a2a35"/>
        <path id="Path_88" data-name="Path 88" d="M183.569,153.1v6.341a6.97,6.97,0,0,0-4.634-1.646,7.052,7.052,0,0,0-5.252,2.1,7.782,7.782,0,0,0,.006,10.566,7.048,7.048,0,0,0,5.247,2.114,6.894,6.894,0,0,0,4.964-1.946l.37,1.588h2.19V153.1Zm-1.111,15.38a4.486,4.486,0,0,1-3.3,1.324,4.424,4.424,0,0,1-3.287-1.319,4.851,4.851,0,0,1,0-6.61,4.775,4.775,0,0,1,6.591.009,4.792,4.792,0,0,1,0,6.6Z" transform="translate(-70.386 -152.967)" fill="#2a2a35"/>
        <path id="Path_89" data-name="Path 89" d="M192.692,155.81l-4.194,9.819-4.478-9.819h-3.144L187,168.868l-2.188,4.656a6.829,6.829,0,0,1-1.437,2.266,3.153,3.153,0,0,1-2.019.539h-.483v2.6h.709a5.075,5.075,0,0,0,3.38-1.051,10.474,10.474,0,0,0,2.478-3.735l8.326-18.329Z" transform="translate(-62.45 -150.641)" fill="#2a2a35"/>
      </g>
      <path id="Path_90" data-name="Path 90" d="M118.505,166.495l-.141-.537-.033-.123h-1.178v6.352h1.633v-3.378a1.589,1.589,0,0,1,.358-1.137,1.4,1.4,0,0,1,1.075-.371h.852v-1.5h-.728A2.539,2.539,0,0,0,118.505,166.495Z" transform="translate(-117.077 -142.075)" fill="#2a2a35"/>
      <path id="Path_91" data-name="Path 91" d="M130.142,167.409a2.956,2.956,0,0,0-1.172-1.213,3.513,3.513,0,0,0-1.777-.457,3.811,3.811,0,0,0-1.744.425,3.17,3.17,0,0,0-1.207,1.218,3.01,3.01,0,0,0-.444,1.67,3.13,3.13,0,0,0,.984,2.368,3.294,3.294,0,0,0,2.411.973,3.361,3.361,0,0,0,1.967-.579,2.934,2.934,0,0,0,1.172-1.484h-1.777a1.62,1.62,0,0,1-.444.362,2.228,2.228,0,0,1-.917.212,1.722,1.722,0,0,1-1.178-.394,1.084,1.084,0,0,1-.156-.18,1.705,1.705,0,0,1-.349-.67h5.011l.033-.154c0-.149.033-.3.033-.425A3.33,3.33,0,0,0,130.142,167.409Zm-4.6.916a1.787,1.787,0,0,1,.54-.793,2.012,2.012,0,0,1,2.221,0,1.46,1.46,0,0,1,.539.793Z" transform="translate(-111.38 -142.129)" fill="#2a2a35"/>
      <path id="Path_92" data-name="Path 92" d="M137.715,170.143a1.683,1.683,0,0,0-1.127-1.541,7.015,7.015,0,0,0-1.363-.321c-.163-.024-.286-.045-.366-.061s-.186-.039-.316-.067l-.254-.078-.178-.106-.11-.124-.032-.165a.44.44,0,0,1,.234-.388,1.729,1.729,0,0,1,1.551.022.628.628,0,0,1,.273.526l.006.158h1.56l0-.167a1.909,1.909,0,0,0-.743-1.525,2.9,2.9,0,0,0-1.863-.563,3.054,3.054,0,0,0-1.872.537,1.73,1.73,0,0,0-.739,1.445,1.91,1.91,0,0,0,.084.576v0a1.784,1.784,0,0,0,.208.444h0v0h0a1.279,1.279,0,0,0,.353.345,3.3,3.3,0,0,0,.39.232,2.87,2.87,0,0,0,.474.167c.184.048.334.085.455.108s.271.05.464.084.34.059.448.08a3.575,3.575,0,0,1,.364.095,1.054,1.054,0,0,1,.275.117l.152.162.063.225a.481.481,0,0,1-.266.425,1.782,1.782,0,0,1-1.651-.039.705.705,0,0,1-.321-.591l-.007-.156h-1.6l.006.169a2.064,2.064,0,0,0,.786,1.618,3.038,3.038,0,0,0,1.956.6,3.194,3.194,0,0,0,1.956-.561l-.106-.128.106.128a1.832,1.832,0,0,0,.763-1.53v-.006l-.006-.143Z" transform="translate(-104.131 -142.127)" fill="#2a2a35"/>
      <path id="Path_93" data-name="Path 93" d="M146.4,167.409A3.233,3.233,0,0,0,145.2,166.2a3.426,3.426,0,0,0-1.777-.457,3.575,3.575,0,0,0-1.711.425,3.07,3.07,0,0,0-1.239,1.218,3.3,3.3,0,0,0-.444,1.67,2.919,2.919,0,0,0,.254,1.278,2.679,2.679,0,0,0,.728,1.09,3.3,3.3,0,0,0,2.411.973,3.337,3.337,0,0,0,1.967-.579,3.152,3.152,0,0,0,1.205-1.484h-1.805a1.064,1.064,0,0,1-.444.362,2.146,2.146,0,0,1-.923.212,1.707,1.707,0,0,1-1.172-.394,1.146,1.146,0,0,1-.162-.18,1.719,1.719,0,0,1-.344-.67h5.011l.033-.154a2.319,2.319,0,0,0,.028-.425A3.64,3.64,0,0,0,146.4,167.409Zm-4.634.916a1.83,1.83,0,0,1,.539-.793,1.714,1.714,0,0,1,1.111-.334,1.8,1.8,0,0,1,1.144.334,1.626,1.626,0,0,1,.54.793Z" transform="translate(-97.468 -142.129)" fill="#2a2a35"/>
      <path id="Path_94" data-name="Path 94" d="M154.4,165.882h-.141l-.028.132-.1.483a3.374,3.374,0,0,0-.845-.511,3.641,3.641,0,0,0-1.339-.245,3.6,3.6,0,0,0-1.759.431,3.217,3.217,0,0,0-1.243,1.19,3.448,3.448,0,0,0,0,3.391,3.229,3.229,0,0,0,1.243,1.2,3.743,3.743,0,0,0,3.083.189,3.289,3.289,0,0,0,.838-.5l.074.453.024.136h1.358v-6.348Zm-1.007,4.472a2.028,2.028,0,0,1-2.7,0,1.834,1.834,0,0,1,0-2.589,1.863,1.863,0,0,1,1.352-.516,1.841,1.841,0,0,1,1.352.513,1.852,1.852,0,0,1,0,2.593Z" transform="translate(-90.202 -142.127)" fill="#2a2a35"/>
      <path id="Path_95" data-name="Path 95" d="M158.983,166.495l-.141-.537-.032-.123h-1.179v6.352h1.633v-3.378a1.581,1.581,0,0,1,.36-1.137,1.4,1.4,0,0,1,1.074-.371h.854v-1.5h-.73A2.535,2.535,0,0,0,158.983,166.495Z" transform="translate(-82.377 -142.075)" fill="#2a2a35"/>
      <path id="Path_96" data-name="Path 96" d="M169.461,169.716l-.045.1a1.786,1.786,0,0,1-.674.786,1.84,1.84,0,0,1-1.007.277,1.725,1.725,0,0,1-1.285-.52,1.869,1.869,0,0,1,0-2.591,1.736,1.736,0,0,1,1.289-.516,1.911,1.911,0,0,1,1.012.271,1.715,1.715,0,0,1,.676.745l.046.095h1.607l-.05-.2a3.062,3.062,0,0,0-1.172-1.759,3.462,3.462,0,0,0-2.114-.659,3.651,3.651,0,0,0-1.766.431,3.215,3.215,0,0,0-1.252,1.194,3.4,3.4,0,0,0,0,3.384,3.223,3.223,0,0,0,1.25,1.2,3.609,3.609,0,0,0,1.763.436,3.457,3.457,0,0,0,2.125-.678,3.091,3.091,0,0,0,1.181-1.79l.05-.2h-1.631Z" transform="translate(-76.684 -142.127)" fill="#2a2a35"/>
      <path id="Path_97" data-name="Path 97" d="M178.312,167.418a2.445,2.445,0,0,0-1.867-.739,3.208,3.208,0,0,0-1.217.228,2.74,2.74,0,0,0-.661.4v-2.645h-1.633v8.51h1.633v-3.39a1.69,1.69,0,0,1,.435-1.2,1.406,1.406,0,0,1,1.083-.457,1.164,1.164,0,0,1,.949.364,1.723,1.723,0,0,1,.327,1.144v3.542h1.633v-3.793A2.772,2.772,0,0,0,178.312,167.418Z" transform="translate(-69.257 -143.056)" fill="#2a2a35"/>
    </g>
  </g>
</svg>
